<svg width="24" height="32" viewBox="0 0 24 32" fill="none" xmlns="http://www.w3.org/2000/svg">
<path d="M10.6036 13.6377V25.9322C11.3933 26.0367 12.193 26.042 12.984 25.948V13.6377H10.6036Z" fill="#1E664C"/>
<path d="M10.6032 25.9695L10.6032 16.5223C11.3405 15.9324 12.1411 15.4666 12.9828 15.1379L12.9828 25.9695H10.6032Z" fill="#E72B2C"/>
<path d="M20.0291 21.6536C24.3265 15.0439 19.6096 6.19861 11.5538 6.19861C9.31284 6.1961 7.13691 6.95138 5.37945 8.34173L5.87832 6.48075L3.30452 7.17021C7.08534 2.60463 11.6332 0 11.6332 0C11.6332 0 23.9323 6.70963 23.9323 16.2098C23.9353 18.7506 23.147 21.2292 21.6771 23.3015L22.7271 24.346L17.7486 25.6801C18.4512 23.0577 18.2522 23.8023 19.0659 20.7651L20.0291 21.6536Z" fill="#FF151F"/>
<path d="M6.39311 16.545V24.3738C7.13039 24.8627 7.93094 25.2487 8.77259 25.5211V16.545H6.39311Z" fill="#E72B2C"/>
<path d="M14.8143 10.7416V25.5697C15.6536 25.3148 16.4542 24.9465 17.1937 24.4748V10.7416H14.8143Z" fill="#1E664C"/>
<path d="M2.25522 8.69847L1.20983 7.65307L6.18833 6.31898L4.7982 11.2414L3.82566 10.3605C-2.04315 19.9905 9.48229 30.6577 18.3276 23.5155L18.054 25.5193L20.6277 24.8289C16.846 29.3954 12.2982 32 12.2982 32C12.2982 32 6.27429e-06 25.2894 6.27429e-06 15.7865C-0.00256569 13.2469 0.785648 10.7696 2.25522 8.69847Z" fill="#006649"/>
</svg>
