<svg width="229" height="89" viewBox="0 0 229 89" fill="none" xmlns="http://www.w3.org/2000/svg">
<path d="M193.237 54.2344C192.018 54.2344 190.799 54.2344 189.579 54.2344C138.335 54.2344 87.0899 54.2316 35.8452 54.2644C34.6259 54.2644 34.174 53.9945 34.3047 52.7297C34.4244 51.5603 34.4 50.3663 34.3074 49.1915C34.2285 48.1884 34.5143 47.9021 35.5512 47.913C41.8085 47.9676 48.0685 47.9403 54.3257 47.9403C92.8736 47.9403 131.419 47.9567 169.967 47.9103C172.863 47.9076 175.448 48.9734 178.14 49.6821C182.076 50.7207 185.968 51.9228 189.879 53.0622C191.011 53.3921 192.135 53.7437 193.265 54.0872C193.254 54.1362 193.246 54.1853 193.237 54.2344Z" fill="white"/>
<path d="M9.92344 55.262C6.66008 55.262 4.00367 55.1121 1.43708 54.1989C0.258572 53.7792 -0.206844 53.1277 0.0843807 51.8492C0.495362 50.0392 0.813804 48.2047 1.10231 46.3702C1.25472 45.4161 1.57589 45.179 2.54755 45.5197C4.99166 46.3811 7.51743 46.9699 10.1276 46.8472C12.7295 46.7273 15.2036 46.0213 16.246 43.3608C17.3374 40.5777 16.6216 38.0208 14.4088 35.9355C12.4247 34.0656 10.0405 32.7326 7.92569 31.0344C5.29105 28.9164 2.99391 26.553 1.55411 23.4019C0.307563 20.676 0.541631 17.8956 0.968943 15.1179C1.98143 8.56763 5.82179 4.84134 12.7132 3.63378C15.7724 3.09678 18.8398 3.09133 21.8936 3.79733C24.2533 4.34251 24.531 4.70232 24.1173 7.04113C23.8233 8.69302 23.4532 10.3313 23.2191 11.9913C23.0585 13.1308 22.5387 13.1417 21.6514 12.7846C19.5502 11.9341 17.3483 11.8251 15.1056 11.9532C12.9718 12.0758 11.5293 13.1335 10.71 15.0471C9.89894 16.9415 10.0677 18.7597 11.3904 20.4061C12.7976 22.1562 14.5939 23.4455 16.4447 24.6694C18.9814 26.3486 21.4255 28.1313 23.3497 30.5355C28.9129 37.492 27.5412 51.762 14.4823 54.9049C12.8357 55.2975 11.0611 55.1803 9.92344 55.262Z" fill="white"/>
<path d="M79.1942 25.2882C79.1942 19.0705 79.2214 12.8527 79.1697 6.63769C79.1588 5.49009 79.3956 4.99398 80.653 4.83588C85.0922 4.27435 89.5231 4.30433 93.9269 4.94492C98.6845 5.63729 101.736 9.51077 102.046 14.9244C102.277 18.9478 101.335 22.4833 97.9442 25.0374C97.0406 25.7189 96.567 26.3159 97.8462 27.289C99.2642 28.3657 99.6915 30.1484 100.19 31.7949C101.452 35.9573 101.842 40.3351 103.254 44.4621C103.469 45.0917 103.222 45.2417 102.664 45.3207C100.497 45.6287 98.3225 45.5606 96.1533 45.4434C95.0346 45.3834 94.4222 44.6365 94.131 43.5516C93.4125 40.8748 93.1675 38.1108 92.5769 35.4121C92.3265 34.2645 92.1224 33.0924 91.7359 31.9911C91.1997 30.4646 90.062 29.5896 88.4181 29.3688C87.4573 29.238 87.1797 29.5624 87.1906 30.5355C87.2369 35.0741 87.1688 39.6127 87.2396 44.1486C87.2587 45.3016 86.9348 45.6015 85.8161 45.5388C84.0089 45.4379 82.1908 45.4597 80.3808 45.5361C79.4364 45.5769 79.1642 45.318 79.1697 44.3476C79.2159 37.9963 79.1942 31.6422 79.1942 25.2882ZM87.2124 16.7289C87.2124 18.4026 87.2097 20.0763 87.2151 21.75C87.2178 22.1425 87.1226 22.5868 87.7649 22.6114C89.0985 22.6632 90.3152 22.5241 91.4528 21.6382C93.5214 20.0245 93.72 17.9147 93.4397 15.5541C93.0641 12.4029 91.2378 10.7947 88.1133 10.9092C87.3975 10.9337 87.1797 11.149 87.1988 11.8496C87.2396 13.4715 87.2124 15.0988 87.2124 16.7289Z" fill="white"/>
<path d="M130.322 33.4386C130.322 36.7533 130.278 40.068 130.349 43.3799C130.371 44.3476 130.052 44.7319 129.149 44.9418C125.447 45.8005 121.68 46.1221 117.946 45.6015C113.251 44.9473 110.121 42.0033 107.846 37.939C104.506 31.9748 104.789 18.6207 108.227 12.7628C111.643 6.94573 116.596 4.19531 123.221 4.2471C124.895 4.26073 126.566 4.40248 128.188 4.91767C129.105 5.20934 129.535 5.7109 129.345 6.7222C129.043 8.32502 128.811 9.93875 128.539 11.547C128.414 12.2939 128.128 12.5829 127.241 12.3702C125.382 11.9286 123.458 11.9123 121.558 12.084C118.91 12.3266 117.263 14.0276 116.016 16.1947C115.097 17.792 114.694 19.5693 114.514 21.382C114.182 24.773 114.016 28.1722 114.656 31.5523C115.102 33.9075 116.261 35.8674 118.074 37.4238C118.48 37.7728 118.95 38.0835 119.443 38.2825C122.14 39.3783 122.679 39.0239 122.687 36.1999C122.693 34.2945 122.641 32.3837 122.709 30.481C122.742 29.5733 122.456 29.3389 121.572 29.3416C119.125 29.347 119.125 29.3034 119.122 26.8283C119.119 25.6017 119.171 24.375 119.103 23.1511C119.054 22.2788 119.397 22.088 120.202 22.1016C123.194 22.1453 126.188 22.1643 129.179 22.0935C130.199 22.0689 130.357 22.4642 130.346 23.3556C130.295 26.7193 130.322 30.0776 130.322 33.4386Z" fill="white"/>
<path d="M71.1869 45.4461C67.0036 45.5143 67.0009 45.517 66.1952 41.4636C65.9203 40.0843 65.591 38.7104 65.4413 37.3202C65.3488 36.4698 65.0848 36.129 64.2192 36.1427C62.9074 36.1618 61.5928 36.0691 60.2782 36.0527C59.1378 36.0391 58.4111 36.5406 58.1824 37.7346C57.7388 40.0489 57.2407 42.3522 56.7699 44.6611C56.6828 45.0945 56.7127 45.547 56.0214 45.5252C53.9828 45.4597 51.9415 45.4625 49.9029 45.4243C48.9068 45.4052 48.6237 44.9636 48.8442 43.9414C51.4271 31.9857 53.9747 20.0218 56.5304 8.06061C56.5385 8.01699 56.563 7.9761 56.5712 7.93249C57.2924 4.67233 57.2924 4.65325 60.6728 4.68869C62.5753 4.70777 64.4805 4.84952 66.383 4.84134C67.1642 4.83861 67.3819 5.17662 67.5098 5.83901C68.9414 13.2234 70.403 20.6051 71.8346 27.9895C72.8771 33.3759 73.8487 38.7731 74.9374 44.1486C75.1524 45.209 74.8013 45.4488 73.9113 45.4488C72.9995 45.4461 72.0932 45.4461 71.1869 45.4461ZM62.1262 14.8344C62.0473 14.829 61.9684 14.8235 61.8922 14.8181C61.2281 18.6452 60.5231 22.4642 59.908 26.2968C59.3174 29.9794 59.5406 30.1457 63.351 29.7205C64.1077 29.636 64.3989 29.3716 64.2737 28.6138C64.0695 27.3653 63.909 26.1087 63.713 24.8575C63.1904 21.5156 62.657 18.1764 62.1262 14.8344Z" fill="white"/>
<path d="M135.648 25.0129C135.648 18.6589 135.676 12.3048 135.621 5.95078C135.613 4.8577 135.929 4.59329 136.982 4.60419C142.148 4.65599 147.316 4.64508 152.482 4.60964C153.34 4.60419 153.674 4.79228 153.631 5.71908C153.555 7.3955 153.568 9.07737 153.628 10.7565C153.658 11.5852 153.424 11.8578 152.569 11.8387C150.122 11.7814 147.673 11.8469 145.226 11.8033C144.45 11.7896 144.211 12.0322 144.224 12.7982C144.265 15.1588 144.263 17.5194 144.227 19.8773C144.216 20.5833 144.429 20.815 145.15 20.8014C147.461 20.7578 149.774 20.8205 152.085 20.7632C152.975 20.7414 153.277 21.0004 153.233 21.9136C153.16 23.4073 153.165 24.9093 153.236 26.4058C153.28 27.2863 153.037 27.5943 152.12 27.567C149.856 27.5043 147.589 27.5779 145.321 27.5316C144.532 27.5153 144.2 27.6652 144.219 28.5565C144.276 31.4596 144.268 34.3654 144.224 37.2712C144.211 38.0971 144.442 38.3643 145.289 38.3479C147.961 38.2961 150.637 38.3779 153.31 38.3043C154.357 38.2743 154.624 38.6096 154.572 39.6127C154.488 41.2428 154.521 42.8811 154.564 44.5139C154.583 45.258 154.379 45.5388 153.579 45.5333C147.912 45.5006 142.249 45.4897 136.582 45.5388C135.441 45.5497 135.643 44.871 135.643 44.214C135.64 37.8136 135.643 31.416 135.643 25.0156C135.646 25.0129 135.646 25.0129 135.648 25.0129Z" fill="white"/>
<path d="M34.3265 28.7473C34.3292 23.6663 34.2965 18.5825 34.3537 13.5015C34.3646 12.4684 34.0788 12.1903 33.0717 12.2421C31.4006 12.3293 29.7186 12.2312 28.0447 12.283C27.3153 12.3048 27.1193 12.0431 27.1329 11.3507C27.1683 9.40174 27.1765 7.44728 27.1302 5.49827C27.1111 4.73775 27.4269 4.61236 28.091 4.61509C35.0695 4.63417 42.048 4.64235 49.0238 4.61236C49.8839 4.60964 50.0989 4.88495 50.0744 5.70272C50.02 7.56177 50.0281 9.42355 50.0717 11.2826C50.0907 12.0458 49.8594 12.3157 49.0755 12.2857C47.5813 12.2285 46.0789 12.3566 44.5928 12.2421C43.2401 12.1385 42.7802 12.4738 42.7938 13.9621C42.87 23.9879 42.8155 34.0165 42.8618 44.0423C42.8672 45.1926 42.655 45.6206 41.4057 45.5415C39.4188 45.4161 37.4183 45.4597 35.4288 45.5306C34.5251 45.5606 34.3047 45.2771 34.3101 44.3994C34.3455 39.182 34.3265 33.9647 34.3265 28.7473Z" fill="white"/>
<path d="M163.916 28.8864C163.916 23.7563 163.884 18.6289 163.943 13.4987C163.957 12.4575 163.666 12.1903 162.664 12.2448C161.037 12.3321 159.401 12.2339 157.771 12.2857C157.03 12.3075 156.739 12.1249 156.761 11.3235C156.815 9.37448 156.804 7.42002 156.766 5.46829C156.755 4.8168 156.959 4.62054 157.61 4.62327C164.545 4.64235 171.48 4.63962 178.415 4.62327C178.995 4.62327 179.207 4.79227 179.196 5.39197C179.166 7.43365 179.152 9.47807 179.199 11.5198C179.215 12.2885 178.804 12.283 178.265 12.2776C176.678 12.2639 175.086 12.3484 173.508 12.2476C172.362 12.174 171.997 12.4384 172.002 13.6923C172.065 23.7672 172.011 33.8447 172.068 43.9223C172.076 45.1953 171.845 45.6615 170.478 45.5524C168.723 45.4107 166.943 45.457 165.179 45.5388C164.18 45.5851 163.873 45.3289 163.884 44.2767C163.949 39.1466 163.916 34.0165 163.916 28.8864Z" fill="white"/>
<path d="M223.25 40.2233C219.739 44.5684 215.471 48.0412 210.809 51.0642C210.346 51.364 209.99 51.2877 209.568 51.0233C202.921 46.869 196.942 42.0006 193.101 34.9896C189.49 28.3903 189.5 21.7227 193.295 15.1861C193.926 14.0985 193.945 13.4442 192.943 12.7519C192.807 12.6565 192.728 12.4793 192.587 12.2885C193.779 11.5443 195.298 11.806 196.346 10.8628C197.061 10.9391 197.731 10.9637 198.414 10.5493C198.896 10.2577 199.644 10.1132 200.104 10.4294C200.676 10.8219 199.848 11.2526 199.859 11.7133C199.868 12.0268 199.878 12.3375 199.889 12.651C198.929 14.2293 198.983 16.181 198.079 17.8384C197.568 17.4159 197.119 17.0451 196.58 16.6008C193.504 21.9817 193.085 27.3953 196.014 32.8907C197.162 35.0442 198.564 37.0449 200.828 38.2253C201.795 39.3729 203.123 39.888 204.494 40.3215C205.371 40.9321 206.4 41.0629 207.409 41.2455C208.694 41.5399 209.99 41.4363 211.285 41.36C211.642 41.3355 212.006 41.3464 212.355 41.2782C214.279 40.9075 214.279 40.9021 214.279 38.8931C214.279 32.5036 214.279 26.1169 214.276 19.7274C214.276 17.1514 214.271 17.2005 216.81 17.1487C217.809 17.1269 218.1 17.3831 218.092 18.4163C218.041 24.8057 218.062 31.1925 218.076 37.5819C218.076 38.0017 217.896 38.4706 218.275 38.8985C218.816 38.5524 219.342 38.2143 219.87 37.8763C219.84 38.5851 219.848 39.2993 219.769 40.0053C219.679 40.8094 220.134 41.0656 220.691 40.7303C221.516 40.2315 222.393 40.3542 223.25 40.2233Z" fill="white"/>
<path d="M199.884 12.651C199.873 12.3375 199.862 12.0268 199.854 11.7133C199.843 11.2526 200.67 10.8219 200.099 10.4294C199.642 10.1132 198.89 10.2577 198.409 10.5494C197.726 10.9637 197.056 10.9392 196.34 10.8628C199.767 6.57229 204.002 3.21672 208.558 0.223699C208.996 -0.0652443 209.364 -0.0761479 209.805 0.201892C216.647 4.51969 222.834 9.52714 226.636 16.8843C229.804 23.0175 229.796 29.238 226.565 35.3685C225.86 36.7042 224.804 37.9036 227.077 38.9776C225.607 39.4546 224.428 39.8363 223.25 40.2179C222.393 40.3487 221.519 40.2288 220.691 40.7249C220.134 41.0602 219.679 40.8039 219.769 39.9998C219.845 39.2965 219.84 38.5823 219.87 37.8709C220.278 36.418 220.686 34.9678 221.108 33.4686C222.85 34.6271 222.85 34.6271 223.582 33.1687C228.84 22.6904 221.228 10.0914 209.5 9.84607C205.994 9.78065 202.842 10.871 199.884 12.651Z" fill="white"/>
<path d="M168.491 80.1248C164.716 78.7128 164.199 76.7774 168.222 74.2178C168.086 74.0406 167.98 73.8253 167.814 73.6972C164.545 71.1894 165.225 66.0538 169.937 64.3556C172.517 63.426 175.116 63.516 177.473 65.1406C177.993 65.4977 178.298 65.465 178.725 65.018C179.329 64.3856 180.094 63.9685 180.976 63.8431C181.618 63.7504 182.133 63.9903 182.473 64.5546C182.699 64.9335 182.726 65.3369 182.495 65.7158C182.152 66.28 181.627 66.4872 180.984 66.3973C180.807 66.3727 180.636 66.2937 180.459 66.2664C180.007 66.1983 179.506 66.0974 179.196 66.5172C178.916 66.8988 179.378 67.1578 179.517 67.4604C180.826 70.3062 179.381 73.6263 176.248 74.902C174.327 75.6843 172.345 75.7307 170.391 75.1174C169.67 74.8911 169.194 74.9974 168.676 75.4554C167.697 76.3195 167.808 77.1154 169.074 77.5461C170.753 78.1186 172.533 78.2194 174.278 78.4838C176.025 78.7482 177.773 78.9936 179.438 79.6123C181.088 80.2284 182.44 81.1552 182.609 83.1124C182.783 85.1323 181.79 86.5988 180.072 87.3866C175.859 89.3165 171.469 89.5618 167.15 87.869C164.267 86.7405 163.949 84.1946 166.202 82.0684C166.888 81.4196 167.642 80.8417 168.491 80.1248ZM173.464 87.2476C174.849 87.3021 176.504 87.084 178.072 86.4216C179.21 85.9419 180.179 85.2522 180.062 83.8266C179.95 82.4854 178.869 82.052 177.802 81.8094C175.954 81.3869 174.076 81.0952 172.209 80.7572C170.114 80.3783 168.731 81.0789 167.765 82.9979C167.014 84.4917 167.419 85.7401 168.924 86.5007C170.255 87.1685 171.698 87.2666 173.464 87.2476ZM176.994 69.6547C176.975 67.1387 175.249 65.3669 172.863 65.4105C170.56 65.4514 168.758 67.4086 168.813 69.8073C168.867 72.2225 170.726 74.057 173.064 73.9997C175.304 73.9452 177.013 72.0589 176.994 69.6547Z" fill="white"/>
<path d="M147.18 67.0051C148.538 66.141 149.513 65.2606 150.702 64.71C151.96 64.1293 153.255 63.775 154.638 63.824C157.618 63.9303 159.48 65.6531 159.61 68.6325C159.736 71.4865 159.673 74.3514 159.7 77.2109C159.719 79.1135 159.866 79.318 161.755 79.4761C162.392 79.5279 162.626 79.6642 162.61 80.3265C162.593 81.0952 162.079 80.9126 161.665 80.9153C159.308 80.9235 156.949 80.9099 154.592 80.9262C154.08 80.929 153.74 80.9044 153.74 80.2339C153.742 79.6069 154.009 79.5333 154.551 79.4815C156.445 79.3043 156.758 78.9827 156.78 77.1454C156.81 74.6485 156.842 72.1489 156.761 69.6547C156.666 66.7189 155.016 65.5277 152.147 66.1601C150.558 66.509 149.216 67.3159 147.945 68.2836C147.463 68.6489 147.297 69.0932 147.303 69.6874C147.325 72.138 147.292 74.5913 147.319 77.0419C147.341 78.9963 147.608 79.2962 149.559 79.4761C150.161 79.5306 150.31 79.7296 150.313 80.2911C150.316 80.8963 149.992 80.9235 149.54 80.9235C147.09 80.9153 144.644 80.9072 142.194 80.929C141.672 80.9344 141.47 80.7681 141.476 80.2339C141.481 79.7405 141.598 79.5497 142.148 79.4788C144.35 79.1899 144.363 79.1544 144.371 76.9683C144.382 73.9262 144.339 70.8841 144.393 67.842C144.41 66.9452 144.154 66.599 143.264 66.7244C142.907 66.7734 142.54 66.7217 142.178 66.738C141.75 66.7598 141.467 66.6508 141.497 66.1492C141.522 65.7567 141.38 65.266 141.998 65.2197C143.386 65.1107 144.592 64.5055 145.833 63.9385C146.693 63.546 147.327 63.7641 147.194 64.9444C147.126 65.525 147.18 66.1165 147.18 67.0051Z" fill="white"/>
<path d="M46.6695 67.0378C48.4359 65.8112 49.8186 64.6363 51.6095 64.162C53.1881 63.745 54.7313 63.6523 56.2636 64.2983C58.0654 65.0561 59.0888 66.3864 59.1133 68.3708C59.1486 71.2303 59.1214 74.0897 59.1486 76.9492C59.1677 79.119 59.2684 79.2553 61.3886 79.4733C62.0092 79.5387 62.1153 79.7568 62.1235 80.302C62.1317 80.9126 61.7942 80.9289 61.3478 80.9262C58.901 80.918 56.4514 80.918 54.0046 80.9235C53.5637 80.9235 53.2071 80.918 53.2071 80.3047C53.2071 79.7432 53.365 79.5442 53.9665 79.4761C56.0568 79.2362 56.2391 79.0235 56.2446 76.9382C56.2527 74.305 56.2827 71.6719 56.1684 69.0414C56.0758 66.9234 54.6224 65.7758 52.5131 66.0075C50.5126 66.2283 48.8197 67.1442 47.2873 68.4226C46.8736 68.7688 46.8519 69.1668 46.8519 69.6274C46.8573 72.2143 46.841 74.8039 46.86 77.3907C46.8709 78.9854 47.2547 79.3888 48.8605 79.487C49.4375 79.5224 49.9111 79.4542 49.8675 80.3074C49.824 81.1852 49.2334 80.9099 48.8088 80.9153C46.498 80.9371 44.1846 80.9262 41.8711 80.9317C41.3513 80.9344 40.8967 80.9753 40.9076 80.1902C40.9158 79.4979 41.2859 79.536 41.7677 79.4924C43.6892 79.3179 43.877 79.1162 43.8906 77.1291C43.9097 74.0434 43.8716 70.9549 43.9178 67.8692C43.9315 67.0133 43.7355 66.6971 42.8128 66.6944C42.1923 66.6917 41.1335 67.3241 40.9566 66.1029C40.7661 64.7754 41.9745 65.3205 42.5788 65.0698C43.3272 64.759 44.1056 64.511 44.8432 64.1729C46.3865 63.4615 46.6614 63.6087 46.6695 65.2415C46.6722 65.7267 46.6695 66.2201 46.6695 67.0378Z" fill="white"/>
<path d="M98.5402 78.2249C97.0351 79.2089 95.6607 80.3211 93.9623 80.8608C93.0015 81.1661 92.0217 81.316 91.0201 81.3188C87.5907 81.3297 85.563 79.4733 85.4269 76.0442C85.3235 73.46 85.3997 70.8704 85.3807 68.2836C85.3671 66.1383 84.9561 65.7349 82.8658 65.6749C82.3922 65.6613 81.7445 65.9529 81.7308 64.9962C81.7172 64.0857 82.3133 64.2575 82.825 64.2329C84.2729 64.162 85.7263 64.1484 87.1716 64.0257C88.0561 63.9494 88.331 64.2111 88.3147 65.1216C88.2603 68.2999 88.2929 71.4783 88.2929 74.654C88.2957 78.6229 90.4377 80.1412 94.2127 78.8546C94.3842 78.7973 94.5556 78.7373 94.7244 78.6692C98.2436 77.2599 98.5729 76.7774 98.5729 73.0566C98.5729 71.5138 98.5756 69.9682 98.5729 68.4253C98.5647 66.0892 98.249 65.7758 95.9328 65.6722C95.5899 65.6558 95.0537 65.9366 94.9639 65.2715C94.885 64.6772 94.9203 64.2275 95.7532 64.2247C97.3372 64.2166 98.9267 64.1402 100.508 64.023C101.341 63.9603 101.474 64.3201 101.469 65.048C101.442 68.9514 101.45 72.8576 101.469 76.7611C101.48 79.0127 101.589 79.149 103.829 79.4815C104.4 79.566 104.46 79.8277 104.471 80.2829C104.482 80.7409 104.305 80.9262 103.842 80.9453C102.484 81.0053 101.123 81.0543 99.7732 81.1934C98.9294 81.2806 98.6328 81.0107 98.6872 80.1657C98.7226 79.5578 98.8179 78.9227 98.5402 78.2249Z" fill="white"/>
<path d="M38.1832 72.6341C38.175 77.9032 34.8191 81.3297 29.6669 81.3297C24.5255 81.3297 21.2622 77.925 21.273 72.5714C21.2812 67.3431 24.7841 63.8104 29.9445 63.8213C34.9089 63.8322 38.194 67.3459 38.1832 72.6341ZM34.898 72.6586C34.9334 71.004 34.6694 69.4121 33.861 67.951C32.1436 64.849 28.042 64.6227 25.9952 67.5067C24.218 70.0091 24.1309 75.1664 25.8211 77.7397C27.748 80.67 32.1083 80.4655 33.7957 77.358C34.585 75.8942 34.9252 74.3187 34.898 72.6586Z" fill="white"/>
<path d="M73.4268 81.3188C71.8999 81.3378 70.4629 81.0026 69.1673 80.1684C68.7509 79.9013 68.3726 79.6696 68.231 80.4138C68.144 80.8663 67.8391 80.9208 67.4336 80.9399C66.8947 80.9644 66.7504 80.6427 66.6007 80.2393C66.0999 78.8818 65.5991 77.5243 65.0548 76.1832C64.8479 75.668 64.6846 75.2591 65.376 75.0083C65.8849 74.823 66.2905 74.5722 66.7014 75.2755C67.3628 76.4122 68.2256 77.4044 69.2871 78.2194C70.7214 79.3207 72.3273 79.7786 74.1182 79.6015C75.5307 79.4597 76.6929 78.5056 76.8508 77.3662C77.0549 75.897 76.1023 75.1882 74.9782 74.7167C73.2717 74.0052 71.5135 73.4164 69.7797 72.7649C69.2735 72.5741 68.77 72.3724 68.2828 72.1325C66.1598 71.0885 65.18 69.6247 65.3787 67.8338C65.5583 66.2283 67.1451 64.6227 69.0966 64.0993C71.0127 63.5869 72.8662 63.7532 74.6244 64.699C75.1225 64.9662 75.4763 65.386 75.9662 64.5246C76.2329 64.0585 77.093 63.9385 77.3625 64.898C77.719 66.1601 78.0919 67.4195 78.4784 68.6707C78.6144 69.115 78.8676 69.5429 78.1654 69.731C77.6591 69.8673 77.2182 70.1753 76.8589 69.3876C76.184 67.8965 75.0082 66.8307 73.5575 66.0865C72.3436 65.465 71.0725 65.236 69.7579 65.7267C68.9033 66.0456 68.2338 66.6099 68.1875 67.5858C68.144 68.4989 68.7155 69.0795 69.4858 69.4884C71.0508 70.3225 72.76 70.7832 74.4094 71.3938C75.4273 71.77 76.4371 72.1625 77.3761 72.7131C80.3346 74.4468 80.4761 78.1077 77.6564 80.0976C76.3881 80.9944 74.9537 81.3269 73.4268 81.3188Z" fill="white"/>
<path d="M6.22733 72.5305C6.28177 73.1629 6.26272 73.8117 6.40425 74.4223C6.9241 76.6957 7.97196 78.6201 10.3725 79.337C12.9065 80.0948 14.9314 79.0181 16.8149 77.3989C17.2694 77.0091 17.5525 75.6162 18.5241 76.6166C19.4767 77.5925 18.1676 78.0095 17.7239 78.4757C15.141 81.1961 11.9484 82.0602 8.43193 80.8335C5.09509 79.6696 3.29331 77.0609 2.94493 73.5636C2.60471 70.1672 3.66618 67.2859 6.57299 65.3015C9.86356 63.0553 14.8552 63.3961 17.5388 65.9884C18.2111 66.6399 18.7092 67.3759 18.6711 68.3626C18.6466 69.0032 18.3771 69.5157 17.7593 69.7447C17.1034 69.99 16.4937 69.8728 16.0718 69.2731C15.816 68.9078 15.6091 68.5016 15.4186 68.0955C14.0142 65.1188 10.789 64.4728 8.36661 66.7162C6.66825 68.2809 6.211 70.3171 6.22733 72.5305Z" fill="white"/>
<path d="M112.44 67.0051C112.44 70.3607 112.429 73.7163 112.446 77.0718C112.454 78.9554 112.772 79.3207 114.585 79.4815C115.151 79.5306 115.505 79.5633 115.488 80.2884C115.472 81.0216 115.028 80.9235 114.585 80.9235C112.231 80.9235 109.874 80.9262 107.519 80.9235C107.084 80.9235 106.613 81.0434 106.591 80.2993C106.572 79.5824 106.904 79.5251 107.489 79.4842C109.101 79.3725 109.498 78.9963 109.509 77.3962C109.547 71.3638 109.525 65.3342 109.552 59.3018C109.555 58.5794 109.297 58.3232 108.605 58.3804C108.156 58.4159 107.699 58.3695 107.247 58.3886C106.784 58.4077 106.578 58.2142 106.605 57.7508C106.627 57.3909 106.567 57.0202 107.106 56.963C108.518 56.8103 109.789 56.2297 111.082 55.6709C111.839 55.3438 112.495 55.4338 112.465 56.6659C112.383 60.1114 112.437 63.5596 112.437 67.0051C112.437 67.0051 112.437 67.0051 112.44 67.0051Z" fill="white"/>
<path d="M128.953 78.3448C129.304 79.487 128.863 80.0676 127.867 80.5119C126.634 81.0598 125.393 81.3951 124.054 81.2915C121.596 81.098 120.369 79.8332 120.333 77.358C120.287 74.0897 120.238 70.8186 120.336 67.553C120.377 66.2337 120.026 65.7076 118.708 65.9475C118.531 65.9802 118.344 65.9748 118.167 65.9502C117.813 65.9012 117.301 66.141 117.277 65.4568C117.258 64.928 117.268 64.4973 117.933 64.3174C120.183 63.7123 121.15 61.9841 121.664 59.8933C121.718 59.6752 121.708 59.4354 121.781 59.2255C121.917 58.8411 121.833 58.2959 122.546 58.3341C123.313 58.3777 123.101 58.9174 123.109 59.3154C123.134 60.5857 123.161 61.8587 123.101 63.1289C123.06 63.9821 123.27 64.3692 124.214 64.2983C125.295 64.2166 126.392 64.3229 127.478 64.2711C128.207 64.2356 128.27 64.5982 128.275 65.1788C128.283 65.754 128.115 65.9857 127.508 65.9666C126.329 65.9284 125.151 65.9857 123.972 65.9448C123.324 65.923 123.098 66.1519 123.104 66.8034C123.128 70.1617 123.058 73.5227 123.147 76.881C123.21 79.2389 124.74 80.1712 126.939 79.318C127.611 79.0563 128.24 78.691 128.953 78.3448Z" fill="white"/>
<path d="M136.615 71.293C136.615 73.3783 136.655 75.4663 136.601 77.5489C136.566 78.8655 137.11 79.4924 138.419 79.5033C138.914 79.5088 139.532 79.2907 139.527 80.2257C139.521 81.1825 138.876 80.9126 138.397 80.9181C136.179 80.9371 133.961 80.9344 131.74 80.9235C131.245 80.9208 130.648 81.1416 130.659 80.2011C130.67 79.3779 131.152 79.5306 131.634 79.4979C133.365 79.3834 133.667 79.0726 133.672 77.3362C133.683 74.2996 133.599 71.2575 133.713 68.2236C133.762 66.9152 133.321 66.5935 132.135 66.7026C131.677 66.7435 130.97 67.0733 130.733 66.3782C130.572 65.9039 130.51 65.2769 131.364 65.1924C132.638 65.0698 133.8 64.5764 134.957 64.0394C136.253 63.4397 136.606 63.7123 136.609 65.1706C136.615 67.2123 136.609 69.2513 136.609 71.293C136.609 71.293 136.612 71.293 136.615 71.293Z" fill="white"/>
<path d="M137.096 57.9716C137.124 59.0483 136.247 59.9478 135.148 59.9724C134.029 59.9969 133.163 59.1846 133.12 58.067C133.079 56.963 133.912 56.0989 135.041 56.0743C136.144 56.0525 137.069 56.9085 137.096 57.9716Z" fill="white"/>
<path d="M211.225 24.4841C211.244 30.1076 211.266 35.7338 211.285 41.3573C209.99 41.4309 208.694 41.5372 207.409 41.2428C207.434 36.9032 207.453 32.5663 207.483 28.2267C207.488 27.5507 207.535 26.8747 207.562 26.1986C208.163 26.2777 208.487 25.7734 208.917 25.5172C209.652 25.0783 210.289 24.465 211.225 24.4841Z" fill="white"/>
<path d="M200.828 38.2253C200.807 34.6462 200.798 31.0643 200.752 27.4853C200.744 26.7793 200.983 26.5639 201.683 26.5258C204.595 26.3704 204.62 26.3486 204.59 29.3171C204.549 32.9861 204.734 36.6551 204.497 40.3214C203.12 39.888 201.795 39.3701 200.828 38.2253Z" fill="white"/>
<path d="M211.225 24.4841C210.292 24.4623 209.652 25.0783 208.92 25.5172C208.493 25.7734 208.166 26.2777 207.565 26.1986C207.546 25.6589 207.51 25.1165 207.507 24.5767C207.499 21.78 207.502 21.8154 210.248 21.8072C211.078 21.8045 211.416 22.0117 211.304 22.8622C211.236 23.3964 211.25 23.9443 211.225 24.4841Z" fill="white"/>
</svg>
