<svg width="3476" height="735" viewBox="0 0 3476 735" fill="none" xmlns="http://www.w3.org/2000/svg">
<path d="M3107 10.3029C3195.68 10.4643 3281.13 43.472 3346.79 102.923C3412.45 162.373 3453.63 244.029 3462.34 332.048C3471.05 420.068 3446.67 508.176 3393.93 579.281C3341.19 650.386 3263.85 699.419 3176.91 716.866C3089.98 734.314 2999.64 718.934 2923.44 673.708C2847.23 628.483 2790.58 556.637 2764.48 472.108C2738.37 387.579 2744.68 296.394 2782.17 216.241C2819.67 136.088 2885.67 72.6822 2967.39 38.3235C3011.56 19.7237 3059.05 10.1939 3107 10.3029ZM3107 0C2903.2 0 2738 164.534 2738 367.5C2738 570.466 2903.2 735 3107 735C3310.8 735 3476 570.466 3476 367.5C3476 164.534 3310.8 0 3107 0Z" fill="white"/>
<path d="M3108.08 40.4788C3189.05 40.5924 3267.09 70.6987 3327.06 124.957C3387.03 179.215 3424.66 253.757 3432.64 334.121C3440.63 414.485 3418.39 494.942 3370.26 559.883C3322.13 624.823 3251.53 669.618 3172.16 685.576C3092.79 701.534 3010.3 687.517 2940.71 646.246C2871.11 604.975 2819.37 539.391 2795.51 462.218C2771.65 385.045 2777.39 301.786 2811.6 228.591C2845.81 155.397 2906.06 97.4873 2980.67 66.0961C3020.98 49.1061 3064.32 40.3936 3108.08 40.4788ZM3108.08 30.1759C2921.59 30.1759 2770.42 180.722 2770.42 366.422C2770.42 552.123 2921.59 702.669 3108.08 702.669C3294.57 702.669 3445.75 552.123 3445.75 366.422C3445.75 180.722 3294.57 30.1759 3108.08 30.1759Z" fill="white"/>
<path d="M3107 115.919C3169.79 116.004 3230.31 139.348 3276.82 181.422C3323.33 223.497 3352.51 281.302 3358.71 343.624C3364.9 405.946 3347.66 468.341 3310.34 518.704C3273.02 569.067 3218.27 603.808 3156.72 616.188C3095.17 628.567 3031.2 617.701 2977.23 585.699C2923.25 553.696 2883.12 502.839 2864.62 442.993C2846.11 383.147 2850.56 318.579 2877.08 261.815C2903.61 205.052 2950.33 160.14 3008.18 135.792C3039.45 122.627 3073.06 115.876 3107 115.94V115.919ZM3107 105.637C2961.1 105.616 2842.81 223.345 2842.81 368.578C2842.81 513.81 2961.1 631.54 3107 631.54C3252.9 631.54 3371.19 513.81 3371.19 368.578C3371.19 223.345 3252.9 105.616 3107 105.616V105.637Z" fill="white"/>
<path d="M2908.33 186.089L2899.75 183.017L2888.76 196.198L2893.36 204.044L2889.91 208.193L2869.63 172.919L2873.31 168.522L2911.78 181.95L2908.33 186.089ZM2886.23 191.833L2894.98 181.325L2876.11 174.59L2886.23 191.833Z" fill="white"/>
<path d="M2935.39 159.9L2930.85 164.147L2906.29 162.056L2918.83 175.387L2915.13 178.901L2889 151.117L2892.7 147.658L2904.5 160.191L2904.32 136.784L2908.85 132.537L2909.25 157.54L2935.39 159.9Z" fill="white"/>
<path d="M2961.41 140.728L2956.39 144.413L2932.25 139.434L2943.12 154.113L2939.04 157.109L2916.35 126.426L2920.43 123.43L2930.66 137.279L2933.27 114.011L2938.27 110.325L2935.74 135.242L2961.41 140.728Z" fill="white"/>
<path d="M2958.59 98.4598C2959.99 97.634 2961.54 97.0969 2963.15 96.8805C2964.76 96.6641 2966.4 96.7728 2967.96 97.2C2969.53 97.6273 2971 98.3645 2972.27 99.3677C2973.55 100.371 2974.61 101.62 2975.39 103.04C2976.22 104.43 2976.76 105.973 2976.96 107.576C2977.17 109.18 2977.05 110.808 2976.6 112.362C2976.18 113.935 2975.43 115.404 2974.42 116.679C2973.4 117.954 2972.13 119.009 2970.69 119.777L2963.03 124.088L2969.75 135.943L2965.34 138.443L2946.54 105.293L2958.59 98.4598ZM2968.32 115.703C2969.18 115.25 2969.93 114.623 2970.54 113.862C2971.14 113.102 2971.58 112.224 2971.83 111.285C2972.3 109.341 2971.99 107.29 2970.96 105.573C2970.46 104.671 2969.8 103.874 2969 103.223C2968.27 102.612 2967.42 102.163 2966.5 101.908C2965.59 101.661 2964.65 101.592 2963.71 101.704C2962.72 101.822 2961.76 102.141 2960.89 102.641L2953.25 106.952L2960.68 120.014L2968.32 115.703Z" fill="white"/>
<path d="M2996.43 116.695L3012.74 109.776L3014.62 114.238L2993.63 123.139L2978.68 88.0815L2999.42 79.2874L3001.3 83.6952L2985.23 90.5063L2989.82 101.283L3004.64 95.0004L3006.5 99.3651L2991.68 105.616L2996.43 116.695Z" fill="white"/>
<path d="M3045.96 99.7423L3049.89 98.6646L3053.21 110.282L3048.32 111.673L3046.33 104.657L3022.08 111.543L3024.09 118.559L3019.2 119.939L3015.89 108.321L3019.13 107.416C3020.57 103.902 3020.48 99.2861 3018.86 93.567L3013.36 74.3622L3036.82 67.7019L3045.96 99.7423ZM3041.07 101.133L3033.23 73.6509L3019.54 77.5953L3023.74 92.3061C3025.32 97.824 3025.61 102.343 3024.61 105.864L3041.07 101.133Z" fill="white"/>
<path d="M3080.54 98.9664L3076.64 70.8274L3061.09 101.661L3057.04 102.221L3051.78 64.5012L3056.82 63.8115L3060.73 92.0044L3076.27 61.1172L3080.33 60.5568L3085.57 98.2767L3080.54 98.9664Z" fill="white"/>
<path d="M3117.67 59.4251L3117.74 64.2102L3106.45 64.3826L3106.95 97.6839L3101.88 97.7593L3101.37 64.458L3090.14 64.6305L3090.06 59.8346L3117.67 59.4251Z" fill="white"/>
<path d="M3121.19 78.2527C3121.72 73.7476 3123.8 69.5658 3127.08 66.4189C3130.35 63.2719 3134.62 61.354 3139.16 60.9916C3143.69 60.6291 3148.21 61.8443 3151.95 64.4306C3155.68 67.0169 3158.41 70.8144 3159.65 75.1773C3160.9 79.5402 3160.59 84.1988 3158.78 88.3609C3156.97 92.5229 3153.77 95.9313 3149.73 98.0061C3145.68 100.081 3141.04 100.694 3136.6 99.7414C3132.15 98.7886 3128.17 96.3288 3125.34 92.7803C3123.69 90.7691 3122.47 88.4427 3121.76 85.9444C3121.04 83.446 3120.85 80.8284 3121.19 78.2527ZM3155.46 82.0786C3155.72 80.1428 3155.59 78.1739 3155.07 76.2916C3154.54 74.4092 3153.64 72.6528 3152.41 71.129C3151.23 69.5882 3149.74 68.3124 3148.03 67.3842C3146.32 66.4559 3144.44 65.8959 3142.5 65.7405C3140.56 65.4796 3138.59 65.6227 3136.7 66.1607C3134.82 66.6986 3133.08 67.6197 3131.57 68.8658C3130.05 70.0982 3128.8 71.6224 3127.88 73.3478C3126.96 75.0732 3126.4 76.9647 3126.23 78.9101C3125.98 80.8471 3126.11 82.8156 3126.62 84.7009C3127.14 86.5863 3128.02 88.3509 3129.23 89.892C3130.43 91.424 3131.94 92.6928 3133.66 93.6197C3135.38 94.5466 3137.27 95.1119 3139.21 95.2806C3141.14 95.5455 3143.09 95.4093 3144.96 94.8806C3146.83 94.3519 3148.57 93.4422 3150.07 92.2091C3151.61 90.9743 3152.88 89.4392 3153.81 87.6975C3154.74 85.9557 3155.3 84.0439 3155.46 82.0786Z" fill="white"/>
<path d="M3190.46 89.5255C3191.91 90.7095 3193.01 92.2675 3193.64 94.0303C3194.27 95.845 3194.32 97.8083 3193.8 99.656C3193.47 101.049 3192.85 102.357 3191.98 103.495C3191.1 104.633 3190 105.576 3188.74 106.262C3187.48 106.98 3186.09 107.44 3184.64 107.616C3183.2 107.792 3181.74 107.68 3180.34 107.286L3164.36 103.148L3173.96 66.2685L3188.78 70.1051C3190.14 70.4244 3191.43 71.0144 3192.57 71.8401C3193.7 72.6658 3194.66 73.7103 3195.38 74.9117C3196.11 76.0878 3196.59 77.403 3196.79 78.7739C3196.99 80.1449 3196.9 81.5418 3196.52 82.876C3196.18 84.4157 3195.44 85.8396 3194.38 87.0062C3193.32 88.1728 3191.97 89.0414 3190.46 89.5255ZM3181.5 102.695C3182.3 102.908 3183.13 102.952 3183.95 102.824C3184.71 102.69 3185.44 102.424 3186.11 102.038C3186.78 101.635 3187.37 101.1 3187.84 100.464C3188.34 99.7916 3188.71 99.0262 3188.92 98.2119C3189.14 97.4314 3189.19 96.6141 3189.08 95.8112C3188.97 95.0083 3188.69 94.2369 3188.27 93.5454C3187.89 92.8467 3187.37 92.2353 3186.74 91.7507C3186.11 91.2662 3185.38 90.9193 3184.61 90.7325L3173.56 87.8766L3170.45 99.8392L3181.5 102.695ZM3177.68 72.1312L3174.73 83.458L3184.61 86.0122C3185.35 86.2096 3186.13 86.2464 3186.89 86.1199C3187.61 85.9985 3188.3 85.7504 3188.94 85.3871C3189.57 85.0108 3190.13 84.5082 3190.56 83.9106C3191.04 83.266 3191.38 82.5335 3191.57 81.7552C3191.78 81.0213 3191.83 80.2541 3191.72 79.5002C3191.62 78.7463 3191.36 78.0212 3190.97 77.3689C3190.63 76.7024 3190.14 76.117 3189.56 75.6522C3188.97 75.1874 3188.28 74.8541 3187.56 74.6746L3177.68 72.1312Z" fill="white"/>
<path d="M3220.08 121.372L3220.39 112.287L3204.44 105.896L3198.31 112.675L3193.3 110.66L3220.77 80.6131L3226.07 82.7685L3224.99 123.42L3220.08 121.372ZM3207.83 102.157L3220.54 107.254L3221.18 87.2734L3207.83 102.157Z" fill="white"/>
<path d="M3268.55 104.031L3272.97 106.532L3254.1 139.671L3249.69 137.171L3258.17 122.256L3242.03 113.16L3233.55 128.075L3229.14 125.575L3248.02 92.4029L3252.44 94.9032L3244.44 108.913L3260.57 118.052L3268.55 104.031Z" fill="white"/>
<path d="M3302.88 128.248L3306.91 131.319L3283.68 161.549L3279.69 158.424L3290.16 144.845L3275.38 133.636L3264.95 147.259L3260.91 144.187L3284.1 113.914L3288.14 116.986L3278.27 129.811L3293.02 141.04L3302.88 128.248Z" fill="white"/>
<path d="M3289.97 166.776L3317.37 140.221L3320.91 143.853L3311.12 153.337L3317.26 159.642C3319.53 161.97 3320.79 165.103 3320.74 168.353C3320.7 171.603 3319.37 174.703 3317.03 176.971C3314.7 179.239 3311.55 180.49 3308.3 180.447C3305.04 180.405 3301.93 179.073 3299.66 176.745L3289.97 166.776ZM3296.92 167.11L3303.04 173.393C3303.73 174.117 3304.57 174.69 3305.49 175.074C3306.35 175.445 3307.28 175.643 3308.21 175.656C3309.17 175.664 3310.11 175.473 3310.98 175.096C3311.94 174.696 3312.81 174.114 3313.54 173.382C3314.29 172.672 3314.89 171.827 3315.32 170.893C3315.73 170.033 3315.95 169.096 3315.96 168.145C3315.98 167.209 3315.81 166.279 3315.46 165.407C3315.1 164.475 3314.55 163.628 3313.84 162.918L3307.72 156.635L3296.92 167.11ZM3310.97 188.276L3338.37 161.732L3341.9 165.364L3314.47 191.908L3310.97 188.276Z" fill="white"/>
<path d="M3333.44 217.601L3356.57 201.015L3322 201.694L3319.61 198.375L3350.62 176.141L3353.58 180.248L3330.41 196.866L3365.03 196.144L3367.42 199.452L3336.41 221.696L3333.44 217.601ZM3358.03 179.45L3361.4 177.036L3370.05 188.966L3366.68 191.38L3358.03 179.45Z" fill="white"/>
<path d="M3363.63 263.813L3365.36 267.51L3354.37 272.661L3352.21 268.07L3358.84 264.999L3348.22 242.194L3341.59 245.266L3339.43 240.675L3350.4 235.577L3351.81 238.595C3355.51 239.478 3360.07 238.667 3365.48 236.159L3383.59 227.774L3393.88 249.781L3363.63 263.813ZM3361.47 259.222L3387.45 247.184L3381.46 234.305L3367.55 240.772C3362.34 243.2 3357.9 244.195 3354.25 243.757L3361.47 259.222Z" fill="white"/>
<path d="M3368.87 278.492L3374.27 295.326L3369.7 296.791L3362.72 275.129L3399.09 263.479L3405.98 284.883L3401.45 286.348L3396.05 269.762L3384.88 273.34L3389.8 288.633L3385.28 290.077L3380.4 274.817L3368.87 278.492Z" fill="white"/>
<path d="M3411.42 308.851C3411.78 310.441 3411.81 312.087 3411.51 313.688C3411.2 315.289 3410.57 316.812 3409.66 318.162C3407.82 320.844 3404.99 322.701 3401.8 323.337C3398.6 323.973 3395.28 323.338 3392.55 321.568C3391.18 320.672 3390.02 319.507 3389.12 318.145C3388.22 316.782 3387.62 315.252 3387.34 313.647L3385.61 305.025L3372.27 307.698L3371.19 302.73L3408.7 295.293L3411.42 308.851ZM3391.97 312.698C3392.14 313.656 3392.5 314.569 3393.03 315.38C3393.57 316.191 3394.27 316.882 3395.08 317.408C3396.79 318.46 3398.83 318.808 3400.79 318.378C3401.8 318.185 3402.77 317.801 3403.64 317.246C3404.45 316.749 3405.14 316.083 3405.67 315.296C3406.21 314.49 3406.59 313.585 3406.77 312.634C3406.96 311.683 3406.95 310.705 3406.75 309.756L3405.04 301.135L3390.27 304.088L3391.97 312.698Z" fill="white"/>
<path d="M3379.71 374.355L3379.37 368.589L3396.82 353.124L3378.53 354.201L3378.23 349.147L3396.53 348.069L3377.38 334.749L3377.05 329.037L3397.44 343.112L3415.21 327.355L3415.55 333.057L3398.87 347.94L3416.36 346.862L3416.65 351.917L3399.17 352.994L3417.47 365.819L3417.81 371.585L3398.36 357.941L3379.71 374.355Z" fill="white"/>
<path d="M3376.53 405.026L3385.35 402.741L3386.96 385.67L3378.75 381.78L3379.26 376.391L3416 394.098L3415.46 399.788L3376.09 410.361L3376.53 405.026ZM3391.52 387.847L3390.24 401.448L3409.69 396.383L3391.52 387.847Z" fill="white"/>
<path d="M3407.94 443.694L3403.24 442.735L3405.5 431.699L3372.8 425.007L3373.81 420.038L3406.5 426.774L3408.77 415.792L3413.47 416.751L3407.94 443.694Z" fill="white"/>
<path d="M3372.07 447.068L3366.67 463.912L3362.1 462.447L3369.03 440.784L3405.39 452.435L3398.5 473.838L3393.93 472.372L3399.29 455.797L3388.13 452.219L3383.2 467.501L3378.68 466.057L3383.61 450.764L3372.07 447.068Z" fill="white"/>
<path d="M3365.53 467.124C3364.9 468.03 3364.49 469.076 3364.35 470.174C3364.26 471.205 3364.51 472.238 3365.06 473.116C3365.81 474.258 3366.78 475.237 3367.92 475.993C3369.59 477.14 3371.36 478.128 3373.21 478.946L3392.81 488.042L3382.24 510.836L3347.6 494.81L3349.76 490.219L3380.01 504.229L3386.32 490.618L3371.02 483.537C3368.37 482.387 3365.88 480.875 3363.64 479.043C3362.11 477.81 3360.89 476.238 3360.07 474.452C3359.44 472.996 3359.26 471.388 3359.54 469.829C3359.85 468.189 3360.46 466.619 3361.33 465.195L3365.53 467.124Z" fill="white"/>
<path d="M3356.84 526.732C3356 528.129 3354.88 529.34 3353.56 530.293C3352.23 531.245 3350.73 531.918 3349.14 532.272C3346.75 532.837 3344.24 532.674 3341.95 531.803C3339.66 530.933 3337.68 529.395 3336.27 527.39C3334.86 525.384 3334.09 523.003 3334.05 520.555C3334.02 518.106 3334.72 515.704 3336.07 513.66L3343.5 501.945L3375.78 522.292L3373.07 526.603L3361.54 519.339L3356.84 526.732ZM3340.1 516.16C3339.56 517 3339.19 517.942 3339.02 518.93C3338.86 519.852 3338.89 520.797 3339.1 521.71C3339.3 522.637 3339.71 523.509 3340.29 524.264C3340.9 525.092 3341.67 525.795 3342.56 526.333C3343.37 526.874 3344.29 527.248 3345.26 527.433C3346.22 527.618 3347.21 527.611 3348.17 527.411C3349.13 527.234 3350.05 526.854 3350.85 526.296C3351.65 525.738 3352.32 525.016 3352.82 524.178L3357.52 516.763L3344.78 508.745L3340.1 516.16Z" fill="white"/>
<path d="M3303.51 554.472L3306.91 550.862L3310.09 553.847C3314.11 550.154 3318.2 547.999 3322.34 547.381C3324.33 547.149 3326.35 547.354 3328.25 547.98C3330.16 548.607 3331.9 549.64 3333.36 551.008C3334.82 552.376 3335.97 554.045 3336.72 555.9C3337.47 557.755 3337.8 559.75 3337.69 561.747C3337.31 565.907 3335.39 570.107 3331.94 574.346L3335.12 577.331L3331.72 580.941L3328.48 577.956C3324.41 581.699 3320.33 583.855 3316.24 584.422C3314.25 584.66 3312.24 584.461 3310.34 583.84C3308.44 583.218 3306.7 582.189 3305.25 580.824C3303.79 579.46 3302.65 577.793 3301.91 575.942C3301.17 574.091 3300.84 572.1 3300.96 570.11C3301.29 566 3303.2 561.801 3306.71 557.512L3303.51 554.472ZM3309.99 560.583C3307.35 563.809 3305.89 566.834 3305.59 569.657C3305.53 571.06 3305.77 572.461 3306.29 573.762C3306.82 575.064 3307.63 576.235 3308.66 577.195C3309.68 578.156 3310.91 578.882 3312.25 579.324C3313.58 579.766 3315 579.913 3316.4 579.756C3319.21 579.281 3322.14 577.64 3325.19 574.831L3309.99 560.583ZM3329.87 554.656C3328.9 553.633 3327.69 552.864 3326.35 552.417C3325 551.97 3323.57 551.858 3322.18 552.091C3319.38 552.579 3316.47 554.221 3313.43 557.016L3328.55 571.22C3331.17 568.009 3332.61 564.995 3332.88 562.178C3333.03 560.779 3332.84 559.364 3332.32 558.055C3331.81 556.745 3330.98 555.579 3329.92 554.656H3329.87Z" fill="white"/>
<path d="M3299.88 609.565C3298.62 610.571 3297.18 611.321 3295.63 611.77C3294.08 612.22 3292.46 612.362 3290.86 612.186C3289.26 612.011 3287.7 611.523 3286.29 610.75C3284.88 609.976 3283.63 608.933 3282.62 607.679C3281.61 606.425 3280.86 604.985 3280.41 603.442C3279.96 601.898 3279.82 600.281 3279.99 598.683C3280.17 597.085 3280.66 595.537 3281.43 594.127C3282.21 592.718 3283.26 591.474 3284.51 590.468L3291.37 584.972L3282.84 574.356L3286.8 571.188L3310.68 600.9L3299.88 609.565ZM3287.47 594.143C3286.7 594.729 3286.05 595.469 3285.58 596.317C3285.1 597.165 3284.81 598.102 3284.72 599.068C3284.56 601.061 3285.2 603.035 3286.49 604.564C3287.13 605.374 3287.91 606.057 3288.8 606.58C3289.62 607.062 3290.54 607.367 3291.48 607.474C3292.45 607.575 3293.42 607.485 3294.35 607.207C3295.27 606.93 3296.14 606.471 3296.89 605.858L3303.74 600.372L3294.3 588.657L3287.47 594.143Z" fill="white"/>
<path d="M3243.36 602.226L3250.57 607.765L3265.07 598.562L3263.14 589.692L3267.69 586.804L3276.11 626.56L3271.27 629.632L3238.75 605.114L3243.36 602.226ZM3266.15 603.497L3254.59 610.826L3270.5 622.993L3266.15 603.497Z" fill="white"/>
<path d="M3229.3 651.606L3224.7 653.762L3208.65 619.189L3213.27 617.033L3220.47 632.617L3237.32 624.847L3230.1 609.296L3234.7 607.14L3250.75 641.713L3246.14 643.868L3239.37 629.169L3222.49 636.928L3229.3 651.606Z" fill="white"/>
<path d="M3174.17 669.443L3169.27 670.79L3159.15 634.051L3201.15 622.541L3211.27 659.28L3206.37 660.638L3197.52 628.511L3183.84 632.262L3192.69 664.377L3187.79 665.725L3178.94 633.609L3165.32 637.338L3174.17 669.443Z" fill="white"/>
<path d="M3127.33 637.392L3130.23 665.66L3146.85 635.387L3150.92 634.967L3154.84 672.859L3149.79 673.376L3146.86 645.065L3130.23 675.392L3126.16 675.812L3122.24 637.92L3127.33 637.392Z" fill="white"/>
<path d="M3095.53 657.405C3093.69 656.643 3092.11 655.362 3090.98 653.719C3089.88 652.041 3089.32 650.066 3089.38 648.061C3089.36 646.533 3089.69 645.02 3090.34 643.639C3091 642.258 3091.97 641.046 3093.17 640.097C3095.88 638.22 3099.08 637.173 3102.38 637.085C3105.69 636.997 3108.94 637.871 3111.75 639.601C3113.93 641.185 3115.56 643.403 3116.42 645.949L3112.1 648.363C3111.01 644.052 3107.93 641.896 3102.87 641.896C3100.67 641.743 3098.49 642.348 3096.69 643.61C3095.98 644.164 3095.41 644.877 3095.02 645.691C3094.64 646.505 3094.45 647.398 3094.47 648.298C3094.43 649.189 3094.59 650.079 3094.94 650.901C3095.29 651.723 3095.81 652.458 3096.48 653.051C3098.09 654.343 3100.11 654.999 3102.17 654.894H3106.64V659.474H3103.4C3101.4 659.351 3099.41 659.947 3097.81 661.155C3097.13 661.688 3096.58 662.37 3096.2 663.15C3095.83 663.929 3095.64 664.785 3095.65 665.649C3095.62 666.492 3095.77 667.332 3096.1 668.109C3096.43 668.886 3096.92 669.581 3097.55 670.143C3099.07 671.375 3101 671.994 3102.96 671.878C3107.18 671.878 3110.02 670.032 3111.46 666.339L3115.7 668.828C3113.36 674.066 3109.1 676.663 3102.92 676.62C3099.67 676.737 3096.49 675.62 3094.03 673.495C3092.92 672.534 3092.04 671.338 3091.45 669.994C3090.85 668.65 3090.57 667.191 3090.62 665.725C3090.57 664.018 3091.01 662.332 3091.88 660.861C3092.75 659.39 3094.01 658.192 3095.53 657.405Z" fill="white"/>
<path d="M3053.72 632.617L3047.75 670.251L3042.74 669.453L3048.71 631.831L3053.72 632.617ZM3083.42 637.305L3077.45 674.939L3072.43 674.142L3074.59 660.702L3065.88 659.334C3064.27 659.119 3062.71 658.576 3061.31 657.738C3059.91 656.9 3058.7 655.786 3057.75 654.463C3055.86 651.799 3055.09 648.507 3055.61 645.287C3056.12 642.067 3057.86 639.173 3060.48 637.219C3061.8 636.265 3063.3 635.59 3064.89 635.234C3066.47 634.878 3068.12 634.85 3069.72 635.15L3083.42 637.305ZM3077.66 641.196L3069.02 639.827C3068.03 639.656 3067.02 639.693 3066.05 639.935C3065.13 640.16 3064.27 640.555 3063.51 641.099C3062.75 641.664 3062.11 642.379 3061.64 643.2C3060.61 645.011 3060.27 647.131 3060.69 649.171C3060.87 650.094 3061.23 650.971 3061.77 651.747C3062.32 652.504 3063.02 653.148 3063.82 653.643C3064.67 654.169 3065.62 654.514 3066.61 654.656L3075.25 656.036L3077.66 641.196Z" fill="white"/>
<path d="M2979.74 648.05L2975.01 646.067L2997.63 623.996C2999.69 621.783 3002.35 620.214 3005.28 619.48C3008.01 619.002 3010.82 619.454 3013.27 620.763L3011.44 625.073C3009.93 624.133 3008.14 623.727 3006.37 623.92C3004.56 624.321 3002.92 625.27 3001.67 626.636L3000.98 627.294L3002.27 657.47L2997.53 655.487L2996.66 631.54L2979.74 648.05Z" fill="white"/>
<path d="M2948.47 631.356L2944.06 628.845L2963.09 595.803L2967.48 598.325L2959.82 611.634C2963.06 611.874 2966.21 612.839 2969.02 614.458C2971.94 615.958 2974.18 618.519 2975.28 621.614C2975.74 623.069 2975.89 624.607 2975.7 626.124C2975.51 627.64 2975 629.098 2974.19 630.397L2967.4 642.198L2963 639.676L2969.63 628.166C2970.13 627.391 2970.45 626.521 2970.58 625.613C2970.71 624.705 2970.65 623.779 2970.4 622.896C2969.74 621.018 2968.37 619.471 2966.59 618.585C2963.79 616.978 2960.67 616.023 2957.45 615.794L2948.47 631.356Z" fill="white"/>
<path d="M2949.38 592.02L2935.14 581.48L2937.99 577.633L2956.36 591.19L2933.58 621.84L2915.48 608.455L2918.33 604.608L2932.38 614.975L2939.37 605.578L2926.41 596.018L2929.23 592.214L2942.19 601.773L2949.38 592.02Z" fill="white"/>
<path d="M2889.41 585.069L2892.66 581.545L2900.95 589.197L2923.64 564.722L2927.37 568.16L2904.68 592.624L2912.94 600.232L2909.7 603.756L2889.41 585.069Z" fill="white"/>
<path d="M3109.7 151.623C3163.5 151.712 3215.35 171.729 3255.2 207.793C3295.04 243.857 3320.03 293.396 3325.32 346.799C3330.62 400.202 3315.83 453.663 3283.84 496.809C3251.85 539.954 3204.93 569.71 3152.18 580.303C3099.44 590.895 3044.63 581.57 2998.39 554.136C2952.14 526.701 2917.77 483.113 2901.93 431.829C2886.09 380.544 2889.91 325.219 2912.65 276.586C2935.4 227.953 2975.44 189.479 3025.02 168.63C3051.81 157.349 3080.61 151.565 3109.7 151.623ZM3109.7 135.792C2980.8 135.792 2876.3 239.769 2876.3 368.039C2876.3 496.308 2980.8 600.286 3109.7 600.286C3238.59 600.286 3343.09 496.308 3343.09 368.039C3343.09 239.769 3238.59 135.792 3109.7 135.792Z" fill="white"/>
<path d="M1311.72 609.727V640.683H1276.11V609.727C1236.7 606.821 1205.25 596.133 1181.75 577.663C1170.3 568.668 1161.14 557.091 1155.01 543.879C1148.89 530.667 1145.97 516.194 1146.51 501.642C1145.98 487.1 1148.9 472.64 1155.02 459.441C1161.15 446.241 1170.31 434.678 1181.75 425.693C1205.45 407.174 1236.9 396.486 1276.11 393.63V362.674H1311.72V393.63C1351.42 396.437 1382.9 407.125 1406.15 425.693C1417.69 434.619 1426.94 446.162 1433.13 459.368C1439.32 472.574 1442.28 487.065 1441.76 501.642C1442.28 516.229 1439.32 530.73 1433.13 543.948C1426.94 557.166 1417.69 568.723 1406.15 577.663C1382.85 596.133 1351.38 606.821 1311.72 609.727ZM1206.8 448.965C1198.79 455.138 1192.37 463.143 1188.09 472.309C1183.81 481.475 1181.79 491.534 1182.2 501.642C1181.78 511.719 1183.8 521.748 1188.08 530.879C1192.36 540.011 1198.79 547.975 1206.8 554.096C1222.96 566.557 1246.06 573.945 1276.11 576.26V426.876C1246.11 428.944 1223.01 436.307 1206.8 448.965ZM1311.72 426.802V576.26C1341.72 574.117 1364.85 566.803 1381.03 554.096C1389 547.896 1395.36 539.878 1399.59 530.713C1403.82 521.548 1405.79 511.503 1405.34 501.42C1405.78 491.337 1403.81 481.294 1399.58 472.13C1395.35 462.966 1388.99 454.948 1381.03 448.744C1364.87 436.283 1341.77 428.993 1311.72 426.876V426.802Z" fill="white"/>
<path d="M1586.22 437.81C1599.37 437.646 1612.4 440.245 1624.48 445.437C1636.56 450.63 1647.41 458.3 1656.34 467.952C1674.95 487.716 1685.31 513.837 1685.31 540.982C1685.31 568.127 1674.95 594.249 1656.34 614.012C1647.38 623.587 1636.51 631.167 1624.43 636.259C1612.35 641.35 1599.33 643.84 1586.22 643.564C1571.58 644.201 1557.04 640.955 1544.06 634.156C1531.09 627.357 1520.14 617.247 1512.33 604.851V717H1478.27V443.277H1512.33V476.966C1520.07 464.477 1530.99 454.27 1543.98 447.39C1556.96 440.51 1571.54 437.203 1586.22 437.81ZM1581.94 610.909C1591.09 611.128 1600.19 609.471 1608.68 606.04C1617.16 602.609 1624.86 597.478 1631.29 590.962C1637.78 584.34 1642.88 576.495 1646.31 567.883C1649.73 559.271 1651.41 550.064 1651.24 540.798C1651.48 531.587 1649.84 522.425 1646.41 513.874C1642.98 505.324 1637.83 497.565 1631.29 491.077C1618.09 478.06 1600.29 470.763 1581.75 470.763C1563.21 470.763 1545.41 478.06 1532.21 491.077C1525.67 497.565 1520.52 505.324 1517.09 513.874C1513.66 522.425 1512.02 531.587 1512.26 540.798C1512.09 550.064 1513.77 559.271 1517.19 567.883C1520.62 576.495 1525.72 584.34 1532.21 590.962C1538.7 597.503 1546.46 602.647 1555.01 606.077C1563.56 609.508 1572.72 611.152 1581.94 610.909Z" fill="white"/>
<path d="M1888.19 476.596V443.277H1922.25V639.057H1888.19V605.073C1880.42 617.5 1869.48 627.636 1856.49 634.439C1843.51 641.243 1828.94 644.468 1814.3 643.785C1801.19 644.061 1788.17 641.572 1776.09 636.48C1764.01 631.388 1753.14 623.808 1744.18 614.234C1725.57 594.47 1715.21 568.349 1715.21 541.204C1715.21 514.059 1725.57 487.937 1744.18 468.174C1753.11 458.529 1763.97 450.863 1776.05 445.671C1788.12 440.479 1801.16 437.877 1814.3 438.031C1828.93 437.317 1843.49 440.514 1856.48 447.292C1869.46 454.07 1880.41 464.185 1888.19 476.596ZM1818.44 610.909C1827.65 611.156 1836.82 609.514 1845.37 606.083C1853.92 602.652 1861.68 597.506 1868.17 590.962C1874.67 584.354 1879.8 576.513 1883.24 567.899C1886.68 559.285 1888.36 550.071 1888.19 540.797C1888.35 531.581 1886.65 522.427 1883.21 513.877C1879.76 505.327 1874.64 497.556 1868.13 491.024C1861.63 484.493 1853.88 479.333 1845.34 475.852C1836.81 472.371 1827.66 470.64 1818.44 470.76C1809.27 470.564 1800.15 472.268 1791.67 475.764C1783.19 479.261 1775.53 484.474 1769.16 491.077C1762.59 497.551 1757.43 505.305 1753.98 513.858C1750.54 522.411 1748.89 531.58 1749.13 540.797C1748.95 550.083 1750.63 559.311 1754.07 567.938C1757.51 576.566 1762.64 584.419 1769.16 591.035C1775.58 597.536 1783.27 602.653 1791.74 606.071C1800.22 609.489 1809.3 611.136 1818.44 610.909Z" fill="white"/>
<path d="M2109.41 524.544V443.276H2143.47V639.057H2109.41V556.903H2008.03V638.688H1973.9V443.276H2008.03V524.544H2109.41Z" fill="white"/>
<path d="M2429.34 606.181V443.276H2463.4V639.057H2195.19V443.276H2229.25V606.55H2312.67V443.276H2346.74V606.55L2429.34 606.181Z" fill="white"/>
<path d="M2549.11 580.397L2657.65 443.276H2685.06V639.057H2651.37V501.272L2542.9 638.688H2515.49V443.276H2549.11V580.397Z" fill="white"/>
<path d="M2842.53 538.507C2864.2 547.619 2875.04 563.133 2875.04 585.051C2875.17 593.138 2873.43 601.145 2869.95 608.45C2866.48 615.754 2861.37 622.158 2855.01 627.162C2841.71 638.244 2823.32 643.785 2799.82 643.785C2760.66 643.785 2734.43 628.123 2721.13 596.798L2749.72 579.953C2756.96 601.378 2773.79 612.091 2800.19 612.091C2810.86 612.693 2821.44 609.815 2830.34 603.89C2833.86 601.392 2836.71 598.06 2838.63 594.193C2840.55 590.325 2841.48 586.042 2841.34 581.726C2841.44 578.059 2840.69 574.42 2839.15 571.089C2837.61 567.759 2835.33 564.826 2832.48 562.518C2825.74 557.288 2817.35 554.664 2808.83 555.13H2780.24V524.544H2801.37C2809.73 525.012 2817.96 522.381 2824.5 517.156C2827.24 514.661 2829.39 511.594 2830.81 508.171C2832.23 504.749 2832.87 501.056 2832.7 497.356C2832.84 493.402 2832.03 489.471 2830.33 485.897C2828.63 482.322 2826.1 479.208 2822.95 476.818C2815.28 471.48 2806.04 468.878 2796.72 469.43C2774.8 469.43 2759.9 478.714 2752.01 497.282L2724.23 481.176C2738.07 452.511 2762.24 438.154 2796.72 438.105C2814.9 437.248 2832.78 443.024 2847.03 454.358C2853.05 459.271 2857.88 465.475 2861.16 472.51C2864.45 479.544 2866.11 487.228 2866.02 494.992C2866.47 503.702 2864.52 512.367 2860.37 520.041C2856.23 527.716 2850.06 534.104 2842.53 538.507Z" fill="white"/>
<path d="M3073.72 476.596V443.277H3107.78V639.057H3073.72V605.073C3065.95 617.5 3055.01 627.636 3042.02 634.439C3029.04 641.243 3014.48 644.468 2999.83 643.785C2986.73 644.052 2973.71 641.559 2961.63 636.467C2949.55 631.376 2938.68 623.801 2929.71 614.234C2911.1 594.47 2900.74 568.349 2900.74 541.204C2900.74 514.059 2911.1 487.937 2929.71 468.174C2938.63 458.489 2949.47 450.782 2961.55 445.551C2973.63 440.321 2986.67 437.683 2999.83 437.81C3014.49 437.119 3029.06 440.349 3042.05 447.167C3055.03 453.985 3065.97 464.144 3073.72 476.596ZM3004.27 610.909C3013.48 611.143 3022.64 609.495 3031.19 606.065C3039.74 602.635 3047.5 597.496 3053.99 590.962C3060.44 584.322 3065.5 576.469 3068.89 567.858C3072.27 559.246 3073.92 550.048 3073.72 540.797C3073.89 531.585 3072.21 522.432 3068.77 513.882C3065.33 505.333 3060.21 497.561 3053.71 491.028C3047.21 484.496 3039.47 479.335 3030.94 475.853C3022.4 472.372 3013.26 470.639 3004.05 470.76C2994.86 470.554 2985.73 472.253 2977.24 475.749C2968.74 479.246 2961.07 484.465 2954.69 491.077C2948.14 497.561 2942.98 505.317 2939.54 513.868C2936.09 522.418 2934.44 531.583 2934.66 540.797C2934.53 550.096 2936.25 559.329 2939.73 567.955C2943.2 576.581 2948.37 584.427 2954.91 591.035C2961.35 597.539 2969.05 602.656 2977.53 606.074C2986.02 609.492 2995.12 611.137 3004.27 610.909Z" fill="white"/>
<path fill-rule="evenodd" clip-rule="evenodd" d="M1140.67 143.917C1160.03 118.207 1169.34 73.8794 1154.27 0C964.083 29.5518 1004.87 132.318 1023.05 164.456C1051.06 121.029 1084.09 81.055 1121.46 45.362C1096.13 81.9607 1074.21 120.813 1056 161.427C1081.64 131.875 1111.71 130.323 1140.67 143.917ZM1200.52 204.203C1117.18 298.177 1072.48 246.166 1055.85 217.944C1081.74 209.336 1108.99 205.579 1136.24 206.862C1108.73 198.369 1079.95 194.744 1051.2 196.15C1061.32 171.844 1102.99 100.107 1200.52 204.203Z" fill="#85BC22"/>
<path fill-rule="evenodd" clip-rule="evenodd" d="M1020.98 196.076H57.5583C42.2929 196.076 27.6527 202.139 16.8585 212.932C6.06415 223.726 0 238.364 0 253.628V627.975C0 643.239 6.06415 657.877 16.8585 668.67C27.6527 679.464 42.2929 685.527 57.5583 685.527H963.418C978.683 685.527 993.323 679.464 1004.12 668.67C1014.91 657.877 1020.98 643.239 1020.98 627.975V196.076ZM606.982 303.497H581.934V328.542H606.982V303.497ZM285.424 303.497L223.211 460.417L153.166 303.497H113.193L205.331 503.636C190.036 538.951 176.736 547.373 160.998 547.373C149.472 547.595 145.26 546.486 112.971 537.03V568.576C129.471 574.896 147.026 578.006 164.692 577.737C198.755 576.408 217.152 561.78 231.191 528.755L326.801 303.497H285.424ZM459.946 577.737H494.452V376.785H459.946V474.971C444.779 478.967 429.157 480.978 413.471 480.955C385.025 480.955 370.247 467.879 370.247 437.884V376.785H335.889V436.48C336.333 485.831 365.075 510.803 413.471 510.803C429.157 510.825 444.779 508.814 459.946 504.818V577.737ZM536.272 476.597C536.272 535.478 567.453 577.737 631.882 577.737C666.856 577.737 693.209 565.252 710.942 540.281L688.776 524.544C682.065 532.768 673.528 539.313 663.844 543.661C654.161 548.009 643.596 550.038 632.991 549.589C624.56 549.919 616.151 548.538 608.268 545.531C600.386 542.523 593.194 537.952 587.125 532.091C581.057 526.23 576.238 519.202 572.959 511.43C569.679 503.657 568.007 495.302 568.044 486.866H713.232C713.232 429.609 699.563 376.933 627.449 376.933C569.595 376.933 536.272 424.881 536.272 476.597ZM569.226 459.752C573.068 430.422 593.83 404.047 627.449 404.047C661.142 404.047 681.461 429.683 681.461 459.752H569.226ZM840.319 404.712H907.704L907.335 404.564V376.785H739.462V404.712H805.961V577.737H840.319V404.712ZM667.865 303.719H642.818V328.764H667.865V303.719Z" fill="white"/>
</svg>
