<svg width="120" height="120" viewBox="0 0 120 120" fill="none" xmlns="http://www.w3.org/2000/svg">
<path d="M110.625 77.8125V28.125C110.625 22.9559 106.419 18.75 101.25 18.75H95.1562V23.4375C95.1562 26.0266 93.0579 28.125 90.4688 28.125C87.8796 28.125 85.7812 26.0266 85.7812 23.4375V18.75H64.4531V23.4375C64.4531 26.0266 62.3547 28.125 59.7656 28.125C57.1765 28.125 55.0781 26.0266 55.0781 23.4375V18.75H33.9844V23.4375C33.9844 26.0266 31.886 28.125 29.2969 28.125C26.7078 28.125 24.6094 26.0266 24.6094 23.4375V18.75H18.75C13.5809 18.75 9.375 22.9559 9.375 28.125V35.1562H96.5625C99.1516 35.1562 101.25 37.2546 101.25 39.8438C101.25 42.4329 99.1516 44.5312 96.5625 44.5312H9.375V101.25C9.375 106.419 13.5809 110.625 18.75 110.625H101.25C106.419 110.625 110.625 106.419 110.625 101.25C110.625 98.6609 112.723 96.5625 115.312 96.5625C117.902 96.5625 120 98.6609 120 101.25C120 111.589 111.589 120 101.25 120H18.75C8.41095 120 0 111.589 0 101.25V28.125C0 17.7859 8.41095 9.375 18.75 9.375H24.6094V4.6875C24.6094 2.09839 26.7078 0 29.2969 0C31.886 0 33.9844 2.09839 33.9844 4.6875V9.375H55.0781V4.6875C55.0781 2.09839 57.1765 0 59.7656 0C62.3547 0 64.4531 2.09839 64.4531 4.6875V9.375H85.7812V4.6875C85.7812 2.09839 87.8796 0 90.4688 0C93.0579 0 95.1562 2.09839 95.1562 4.6875V9.375H101.25C111.589 9.375 120 17.7859 120 28.125V77.8125C120 80.4016 117.902 82.5 115.312 82.5C112.723 82.5 110.625 80.4016 110.625 77.8125Z" fill="#04664A"/>
<path d="M28.5086 93.431V67.3975L22.5602 68.8201L21 62.8452L30.8002 60H35.9198V93.431H28.5086Z" fill="#04664A"/>
<path d="M55.2703 94C50.3296 94 46.0714 92.3403 42.4959 89.0209L47.0303 83.7573C49.7608 86.1599 52.4749 87.3612 55.1728 87.3612C56.9606 87.3612 58.3583 86.9503 59.366 86.1283C60.3736 85.3064 60.8774 84.1525 60.8774 82.6667C60.8774 81.2757 60.3249 80.185 59.2197 79.3947C58.1145 78.5728 56.6518 78.1618 54.8315 78.1618C53.0112 78.1618 51.1097 78.5728 49.1269 79.3947L44.7875 76.5969L45.7627 60.2371H66.7283V66.6388H52.1986L51.8086 72.3766C53.3688 71.9972 54.864 71.8075 56.2942 71.8075C59.8373 71.8075 62.714 72.6927 64.9243 74.463C67.1346 76.2334 68.2398 78.9205 68.2398 82.5244C68.2398 86.0335 67.0534 88.8312 64.6805 90.9177C62.3402 92.9726 59.2034 94 55.2703 94Z" fill="#04664A"/>
<path d="M83.2514 88.5467V80.0112H74.4263V73.4672H83.2514V64.9317H90.1749V73.4672H99V80.0112H90.1749V88.5467H83.2514Z" fill="#04664A"/>
</svg>
