<svg width="120" height="120" viewBox="0 0 120 120" fill="none" xmlns="http://www.w3.org/2000/svg">
<path fill-rule="evenodd" clip-rule="evenodd" d="M120 81.2109C120 63.7198 108.214 48.4378 91.5948 43.8327C90.5502 19.4861 70.4196 0 45.8203 0C20.5545 0 0 20.5545 0 45.8203C0 54.0546 2.19177 62.0718 6.35376 69.1104L0.168457 91.4713L22.5302 85.2869C29.0002 89.1129 36.2988 91.268 43.8318 91.593C48.436 108.214 63.7189 120 81.2109 120C88.1927 120 94.9823 118.141 100.948 114.608L119.831 119.831L114.608 100.948C118.141 94.9823 120 88.1927 120 81.2109ZM23.6398 77.6843L10.253 81.3876L13.9563 68.0008L13.1122 66.6806C9.13422 60.4568 7.03125 53.2434 7.03125 45.8203C7.03125 24.4318 24.4318 7.03125 45.8203 7.03125C67.2089 7.03125 84.6094 24.4318 84.6094 45.8203C84.6094 67.2089 67.2089 84.6094 45.8203 84.6094C38.3972 84.6094 31.1847 82.5064 24.96 78.5284L23.6398 77.6843ZM109.747 109.747L99.8135 106.999L98.4869 107.862C93.3444 111.203 87.3697 112.969 81.2109 112.969C67.4634 112.969 55.383 104.08 51.1029 91.3339C72.1545 88.9069 88.9069 72.1545 91.3348 51.102C104.08 55.383 112.969 67.4634 112.969 81.2109C112.969 87.3697 111.203 93.3444 107.862 98.4869L106.999 99.8135L109.747 109.747ZM49.3359 63.5156V70.5469H42.3047V63.5156H49.3359ZM50.5627 40.3464C52.0386 38.996 52.8516 37.153 52.8516 35.1562C52.8516 31.279 49.6976 28.125 45.8203 28.125C41.9431 28.125 38.7891 31.279 38.7891 35.1562H31.7578C31.7578 27.4017 38.0658 21.0938 45.8203 21.0938C53.5748 21.0938 59.8828 27.4017 59.8828 35.1562C59.8828 39.0921 58.2156 42.8741 55.3098 45.5338L49.3359 51.0013V56.4844H42.3047V47.905L50.5627 40.3464Z" fill="#04664A"/>
</svg>
