<svg width="204" height="255" viewBox="0 0 204 255" fill="none" xmlns="http://www.w3.org/2000/svg">
<mask id="path-1-outside-1" maskUnits="userSpaceOnUse" x="0.247803" y="0" width="204" height="255" fill="black">
<rect fill="white" x="0.247803" width="204" height="255"/>
<path d="M199.522 104.88C204.56 97.2 203.629 87.2071 197.26 80.5787C194.453 77.6573 193.279 73.553 194.12 69.5989C196.03 60.6258 191.536 51.6419 183.19 47.7515C179.512 46.0369 176.928 42.6312 176.277 38.6416C174.801 29.5879 167.349 22.8266 158.155 22.1991C154.103 21.9224 150.457 19.676 148.402 16.1894C143.739 8.27867 134.339 4.65317 125.536 7.37292C121.657 8.5717 117.443 7.787 114.261 5.27529C107.041 -0.425098 96.9578 -0.425098 89.7387 5.27529C86.5571 7.78799 82.3419 8.5717 78.4637 7.37292C69.6628 4.65268 60.2596 8.27818 55.597 16.1894C53.542 19.676 49.8967 21.9224 45.8448 22.1991C36.6507 22.8266 29.1987 29.5884 27.7222 38.6416C27.0717 42.6312 24.4875 46.0369 20.8099 47.7515C12.4648 51.6424 7.96999 60.6263 9.87902 69.5989C10.7206 73.553 9.54686 77.6578 6.74016 80.5792C0.371091 87.2075 -0.559843 97.201 4.47762 104.881C6.69746 108.266 7.09317 112.515 5.53566 116.249C2.00208 124.719 4.76211 134.372 12.2463 139.723C15.5451 142.081 17.4561 145.901 17.3588 149.942C17.1388 159.111 23.2159 167.12 32.137 169.419C34.7704 170.097 37.0583 171.613 38.6977 173.682L18.1805 222.979C15.3052 229.887 21.8128 237.001 28.9887 234.809L51.4513 227.948C52.1076 227.749 52.8156 228.041 53.1369 228.644L64.1457 249.303C67.6674 255.911 77.3218 255.445 80.1935 248.544L101.578 197.163C101.859 197.154 102.139 197.154 102.42 197.163L123.804 248.544C126.682 255.456 136.335 255.902 139.853 249.303L150.862 228.644C151.182 228.041 151.891 227.749 152.547 227.949L175.009 234.809C182.189 237.003 188.692 229.884 185.818 222.979L165.3 173.682C166.94 171.614 169.227 170.097 171.861 169.419C180.782 167.121 186.859 159.112 186.639 149.943C186.542 145.902 188.453 142.082 191.752 139.724C199.237 134.373 201.996 124.72 198.462 116.249C196.907 112.514 197.303 108.265 199.522 104.88V104.88ZM73.3145 245.707C72.8473 246.829 71.2953 246.898 70.7258 245.829L59.717 225.17C57.7255 221.433 53.331 219.623 49.2682 220.863L26.8056 227.723C25.6403 228.078 24.5952 226.936 25.0619 225.815L43.2645 182.077C47.3715 187.676 54.2371 190.796 61.4646 189.956C65.4982 189.488 69.4965 191.029 72.1602 194.08C76.0244 198.508 81.4695 200.858 87.0248 200.857C88.7819 200.857 90.5495 200.613 92.2822 200.134L73.3145 245.707ZM177.195 227.723L154.733 220.862C150.67 219.622 146.275 221.433 144.284 225.17L133.275 245.829C132.707 246.897 131.153 246.827 130.686 245.706L111.722 200.142C118.931 202.134 126.755 199.905 131.841 194.079C134.504 191.028 138.501 189.486 142.536 189.955C149.771 190.797 156.632 187.675 160.736 182.076L178.94 225.813C179.408 226.938 178.357 228.076 177.195 227.723V227.723ZM193.287 100.829C189.721 106.267 189.085 113.093 191.587 119.089C193.786 124.362 192.069 130.371 187.409 133.703C182.111 137.491 179.04 143.627 179.196 150.118C179.333 155.826 175.55 160.812 169.996 162.243C164.801 163.581 160.439 166.946 157.823 171.497C157.816 171.51 157.809 171.523 157.802 171.536C157.247 172.506 156.766 173.527 156.38 174.597C154.436 179.968 149.102 183.26 143.401 182.595C136.922 181.841 130.498 184.318 126.219 189.22C122.457 193.53 116.286 194.677 111.213 192.012C109.488 191.104 107.661 190.475 105.795 190.111C105.78 190.107 105.764 190.104 105.749 190.101C103.27 189.623 100.723 189.623 98.2447 190.103C98.2357 190.105 98.2273 190.107 98.2184 190.108C96.3481 190.472 94.5175 191.103 92.7882 192.012C87.715 194.678 81.5445 193.53 77.7825 189.22C74.0101 184.898 68.572 182.462 62.8965 182.462C62.1349 182.462 61.3678 182.506 60.6007 182.596C54.9049 183.259 49.5651 179.969 47.6213 174.597C47.2345 173.528 46.7549 172.509 46.2008 171.539C46.1924 171.524 46.1839 171.509 46.1755 171.493C43.5589 166.944 39.1982 163.581 34.0048 162.243C28.451 160.812 24.6682 155.826 24.8052 150.118C24.9611 143.627 21.8908 137.491 16.5922 133.703C11.933 130.372 10.2147 124.362 12.4146 119.089C14.916 113.092 14.2805 106.266 10.7146 100.829C7.57924 96.0482 8.15816 89.827 12.1237 85.7009C16.6324 81.0086 18.5176 74.4148 17.1661 68.0631C15.9775 62.4774 18.7758 56.8847 23.9706 54.4624C29.8784 51.7081 34.0292 46.2375 35.0748 39.8285C35.9938 34.1923 40.6331 29.9833 46.3562 29.5929C52.8648 29.1487 58.7215 25.5399 62.0222 19.9389C64.9252 15.0143 70.7799 12.758 76.2568 14.451C82.4873 16.3766 89.2581 15.1171 94.369 11.0814C98.8623 7.53252 105.14 7.53252 109.635 11.0814C114.745 15.1166 121.515 16.3771 127.747 14.451C133.225 12.7576 139.079 15.0148 141.981 19.9389C145.282 25.5395 151.139 29.1482 157.647 29.5929C163.37 29.9837 168.01 34.1928 168.929 39.8285C169.974 46.2375 174.125 51.7081 180.033 54.4629C185.228 56.8847 188.026 62.4774 186.837 68.0631C185.486 74.4148 187.37 81.0086 191.88 85.7009C195.843 89.827 196.422 96.0482 193.287 100.829V100.829Z"/>
</mask>
<path d="M199.522 104.88C204.56 97.2 203.629 87.2071 197.26 80.5787C194.453 77.6573 193.279 73.553 194.12 69.5989C196.03 60.6258 191.536 51.6419 183.19 47.7515C179.512 46.0369 176.928 42.6312 176.277 38.6416C174.801 29.5879 167.349 22.8266 158.155 22.1991C154.103 21.9224 150.457 19.676 148.402 16.1894C143.739 8.27867 134.339 4.65317 125.536 7.37292C121.657 8.5717 117.443 7.787 114.261 5.27529C107.041 -0.425098 96.9578 -0.425098 89.7387 5.27529C86.5571 7.78799 82.3419 8.5717 78.4637 7.37292C69.6628 4.65268 60.2596 8.27818 55.597 16.1894C53.542 19.676 49.8967 21.9224 45.8448 22.1991C36.6507 22.8266 29.1987 29.5884 27.7222 38.6416C27.0717 42.6312 24.4875 46.0369 20.8099 47.7515C12.4648 51.6424 7.96999 60.6263 9.87902 69.5989C10.7206 73.553 9.54686 77.6578 6.74016 80.5792C0.371091 87.2075 -0.559843 97.201 4.47762 104.881C6.69746 108.266 7.09317 112.515 5.53566 116.249C2.00208 124.719 4.76211 134.372 12.2463 139.723C15.5451 142.081 17.4561 145.901 17.3588 149.942C17.1388 159.111 23.2159 167.12 32.137 169.419C34.7704 170.097 37.0583 171.613 38.6977 173.682L18.1805 222.979C15.3052 229.887 21.8128 237.001 28.9887 234.809L51.4513 227.948C52.1076 227.749 52.8156 228.041 53.1369 228.644L64.1457 249.303C67.6674 255.911 77.3218 255.445 80.1935 248.544L101.578 197.163C101.859 197.154 102.139 197.154 102.42 197.163L123.804 248.544C126.682 255.456 136.335 255.902 139.853 249.303L150.862 228.644C151.182 228.041 151.891 227.749 152.547 227.949L175.009 234.809C182.189 237.003 188.692 229.884 185.818 222.979L165.3 173.682C166.94 171.614 169.227 170.097 171.861 169.419C180.782 167.121 186.859 159.112 186.639 149.943C186.542 145.902 188.453 142.082 191.752 139.724C199.237 134.373 201.996 124.72 198.462 116.249C196.907 112.514 197.303 108.265 199.522 104.88V104.88ZM73.3145 245.707C72.8473 246.829 71.2953 246.898 70.7258 245.829L59.717 225.17C57.7255 221.433 53.331 219.623 49.2682 220.863L26.8056 227.723C25.6403 228.078 24.5952 226.936 25.0619 225.815L43.2645 182.077C47.3715 187.676 54.2371 190.796 61.4646 189.956C65.4982 189.488 69.4965 191.029 72.1602 194.08C76.0244 198.508 81.4695 200.858 87.0248 200.857C88.7819 200.857 90.5495 200.613 92.2822 200.134L73.3145 245.707ZM177.195 227.723L154.733 220.862C150.67 219.622 146.275 221.433 144.284 225.17L133.275 245.829C132.707 246.897 131.153 246.827 130.686 245.706L111.722 200.142C118.931 202.134 126.755 199.905 131.841 194.079C134.504 191.028 138.501 189.486 142.536 189.955C149.771 190.797 156.632 187.675 160.736 182.076L178.94 225.813C179.408 226.938 178.357 228.076 177.195 227.723V227.723ZM193.287 100.829C189.721 106.267 189.085 113.093 191.587 119.089C193.786 124.362 192.069 130.371 187.409 133.703C182.111 137.491 179.04 143.627 179.196 150.118C179.333 155.826 175.55 160.812 169.996 162.243C164.801 163.581 160.439 166.946 157.823 171.497C157.816 171.51 157.809 171.523 157.802 171.536C157.247 172.506 156.766 173.527 156.38 174.597C154.436 179.968 149.102 183.26 143.401 182.595C136.922 181.841 130.498 184.318 126.219 189.22C122.457 193.53 116.286 194.677 111.213 192.012C109.488 191.104 107.661 190.475 105.795 190.111C105.78 190.107 105.764 190.104 105.749 190.101C103.27 189.623 100.723 189.623 98.2447 190.103C98.2357 190.105 98.2273 190.107 98.2184 190.108C96.3481 190.472 94.5175 191.103 92.7882 192.012C87.715 194.678 81.5445 193.53 77.7825 189.22C74.0101 184.898 68.572 182.462 62.8965 182.462C62.1349 182.462 61.3678 182.506 60.6007 182.596C54.9049 183.259 49.5651 179.969 47.6213 174.597C47.2345 173.528 46.7549 172.509 46.2008 171.539C46.1924 171.524 46.1839 171.509 46.1755 171.493C43.5589 166.944 39.1982 163.581 34.0048 162.243C28.451 160.812 24.6682 155.826 24.8052 150.118C24.9611 143.627 21.8908 137.491 16.5922 133.703C11.933 130.372 10.2147 124.362 12.4146 119.089C14.916 113.092 14.2805 106.266 10.7146 100.829C7.57924 96.0482 8.15816 89.827 12.1237 85.7009C16.6324 81.0086 18.5176 74.4148 17.1661 68.0631C15.9775 62.4774 18.7758 56.8847 23.9706 54.4624C29.8784 51.7081 34.0292 46.2375 35.0748 39.8285C35.9938 34.1923 40.6331 29.9833 46.3562 29.5929C52.8648 29.1487 58.7215 25.5399 62.0222 19.9389C64.9252 15.0143 70.7799 12.758 76.2568 14.451C82.4873 16.3766 89.2581 15.1171 94.369 11.0814C98.8623 7.53252 105.14 7.53252 109.635 11.0814C114.745 15.1166 121.515 16.3771 127.747 14.451C133.225 12.7576 139.079 15.0148 141.981 19.9389C145.282 25.5395 151.139 29.1482 157.647 29.5929C163.37 29.9837 168.01 34.1928 168.929 39.8285C169.974 46.2375 174.125 51.7081 180.033 54.4629C185.228 56.8847 188.026 62.4774 186.837 68.0631C185.486 74.4148 187.37 81.0086 191.88 85.7009C195.843 89.827 196.422 96.0482 193.287 100.829V100.829Z" fill="#04664A"/>
<path d="M199.522 104.88C204.56 97.2 203.629 87.2071 197.26 80.5787C194.453 77.6573 193.279 73.553 194.12 69.5989C196.03 60.6258 191.536 51.6419 183.19 47.7515C179.512 46.0369 176.928 42.6312 176.277 38.6416C174.801 29.5879 167.349 22.8266 158.155 22.1991C154.103 21.9224 150.457 19.676 148.402 16.1894C143.739 8.27867 134.339 4.65317 125.536 7.37292C121.657 8.5717 117.443 7.787 114.261 5.27529C107.041 -0.425098 96.9578 -0.425098 89.7387 5.27529C86.5571 7.78799 82.3419 8.5717 78.4637 7.37292C69.6628 4.65268 60.2596 8.27818 55.597 16.1894C53.542 19.676 49.8967 21.9224 45.8448 22.1991C36.6507 22.8266 29.1987 29.5884 27.7222 38.6416C27.0717 42.6312 24.4875 46.0369 20.8099 47.7515C12.4648 51.6424 7.96999 60.6263 9.87902 69.5989C10.7206 73.553 9.54686 77.6578 6.74016 80.5792C0.371091 87.2075 -0.559843 97.201 4.47762 104.881C6.69746 108.266 7.09317 112.515 5.53566 116.249C2.00208 124.719 4.76211 134.372 12.2463 139.723C15.5451 142.081 17.4561 145.901 17.3588 149.942C17.1388 159.111 23.2159 167.12 32.137 169.419C34.7704 170.097 37.0583 171.613 38.6977 173.682L18.1805 222.979C15.3052 229.887 21.8128 237.001 28.9887 234.809L51.4513 227.948C52.1076 227.749 52.8156 228.041 53.1369 228.644L64.1457 249.303C67.6674 255.911 77.3218 255.445 80.1935 248.544L101.578 197.163C101.859 197.154 102.139 197.154 102.42 197.163L123.804 248.544C126.682 255.456 136.335 255.902 139.853 249.303L150.862 228.644C151.182 228.041 151.891 227.749 152.547 227.949L175.009 234.809C182.189 237.003 188.692 229.884 185.818 222.979L165.3 173.682C166.94 171.614 169.227 170.097 171.861 169.419C180.782 167.121 186.859 159.112 186.639 149.943C186.542 145.902 188.453 142.082 191.752 139.724C199.237 134.373 201.996 124.72 198.462 116.249C196.907 112.514 197.303 108.265 199.522 104.88V104.88ZM73.3145 245.707C72.8473 246.829 71.2953 246.898 70.7258 245.829L59.717 225.17C57.7255 221.433 53.331 219.623 49.2682 220.863L26.8056 227.723C25.6403 228.078 24.5952 226.936 25.0619 225.815L43.2645 182.077C47.3715 187.676 54.2371 190.796 61.4646 189.956C65.4982 189.488 69.4965 191.029 72.1602 194.08C76.0244 198.508 81.4695 200.858 87.0248 200.857C88.7819 200.857 90.5495 200.613 92.2822 200.134L73.3145 245.707ZM177.195 227.723L154.733 220.862C150.67 219.622 146.275 221.433 144.284 225.17L133.275 245.829C132.707 246.897 131.153 246.827 130.686 245.706L111.722 200.142C118.931 202.134 126.755 199.905 131.841 194.079C134.504 191.028 138.501 189.486 142.536 189.955C149.771 190.797 156.632 187.675 160.736 182.076L178.94 225.813C179.408 226.938 178.357 228.076 177.195 227.723V227.723ZM193.287 100.829C189.721 106.267 189.085 113.093 191.587 119.089C193.786 124.362 192.069 130.371 187.409 133.703C182.111 137.491 179.04 143.627 179.196 150.118C179.333 155.826 175.55 160.812 169.996 162.243C164.801 163.581 160.439 166.946 157.823 171.497C157.816 171.51 157.809 171.523 157.802 171.536C157.247 172.506 156.766 173.527 156.38 174.597C154.436 179.968 149.102 183.26 143.401 182.595C136.922 181.841 130.498 184.318 126.219 189.22C122.457 193.53 116.286 194.677 111.213 192.012C109.488 191.104 107.661 190.475 105.795 190.111C105.78 190.107 105.764 190.104 105.749 190.101C103.27 189.623 100.723 189.623 98.2447 190.103C98.2357 190.105 98.2273 190.107 98.2184 190.108C96.3481 190.472 94.5175 191.103 92.7882 192.012C87.715 194.678 81.5445 193.53 77.7825 189.22C74.0101 184.898 68.572 182.462 62.8965 182.462C62.1349 182.462 61.3678 182.506 60.6007 182.596C54.9049 183.259 49.5651 179.969 47.6213 174.597C47.2345 173.528 46.7549 172.509 46.2008 171.539C46.1924 171.524 46.1839 171.509 46.1755 171.493C43.5589 166.944 39.1982 163.581 34.0048 162.243C28.451 160.812 24.6682 155.826 24.8052 150.118C24.9611 143.627 21.8908 137.491 16.5922 133.703C11.933 130.372 10.2147 124.362 12.4146 119.089C14.916 113.092 14.2805 106.266 10.7146 100.829C7.57924 96.0482 8.15816 89.827 12.1237 85.7009C16.6324 81.0086 18.5176 74.4148 17.1661 68.0631C15.9775 62.4774 18.7758 56.8847 23.9706 54.4624C29.8784 51.7081 34.0292 46.2375 35.0748 39.8285C35.9938 34.1923 40.6331 29.9833 46.3562 29.5929C52.8648 29.1487 58.7215 25.5399 62.0222 19.9389C64.9252 15.0143 70.7799 12.758 76.2568 14.451C82.4873 16.3766 89.2581 15.1171 94.369 11.0814C98.8623 7.53252 105.14 7.53252 109.635 11.0814C114.745 15.1166 121.515 16.3771 127.747 14.451C133.225 12.7576 139.079 15.0148 141.981 19.9389C145.282 25.5395 151.139 29.1482 157.647 29.5929C163.37 29.9837 168.01 34.1928 168.929 39.8285C169.974 46.2375 174.125 51.7081 180.033 54.4629C185.228 56.8847 188.026 62.4774 186.837 68.0631C185.486 74.4148 187.37 81.0086 191.88 85.7009C195.843 89.827 196.422 96.0482 193.287 100.829V100.829Z" stroke="#04664A" stroke-width="2" mask="url(#path-1-outside-1)"/>
<path d="M27.6472 90.8943L27.6472 90.8944C27.3592 93.1613 29.0253 95.198 31.329 95.4722L31.3881 94.9757L31.3291 95.4722C33.6278 95.7456 35.7516 94.1645 36.0392 91.9012C40.1226 59.805 68.4678 35.5774 101.998 35.5774C135.544 35.5774 163.89 59.8179 167.96 91.9313C168.226 94.0239 170.06 95.5353 172.152 95.5353C172.323 95.5353 172.496 95.525 172.669 95.5045C174.973 95.2313 176.64 93.1952 176.353 90.9283L175.857 90.9911L176.353 90.9282C171.758 54.6784 139.781 27.3672 101.998 27.3672C64.2316 27.3672 32.2568 54.6639 27.6472 90.8943Z" fill="#04664A" stroke="#04664A"/>
<path d="M172.611 106.258L172.671 105.761C170.361 105.48 168.245 107.124 167.961 109.441C163.89 142.646 135.533 167.687 101.999 167.687C68.4797 167.687 40.1239 142.658 36.0395 109.47C35.7547 107.154 33.6458 105.509 31.3276 105.793L31.3273 105.793C29.0105 106.077 27.3617 108.186 27.647 110.502C32.2521 147.922 64.216 176.137 101.998 176.137C139.797 176.137 171.763 147.907 176.353 110.469M176.353 110.469C176.353 110.469 176.353 110.469 176.353 110.469L175.857 110.408L176.353 110.469Z" fill="#04664A" stroke="#04664A"/>
<path d="M74.5949 139.864L82.2214 113.735C83.1021 110.718 82.038 107.521 79.5213 105.592L79.5212 105.592L57.6745 88.851L85.4126 87.8768C88.5992 87.7648 91.3748 85.7955 92.4728 82.851L102 57.3036L111.528 82.851L111.528 82.8511C112.626 85.7955 115.401 87.7648 118.588 87.8763L146.325 88.8505L124.479 105.592C121.961 107.521 120.897 110.719 121.778 113.735L129.404 139.865L106.36 124.681C105.036 123.808 103.518 123.371 102 123.371C100.482 123.371 98.9635 123.808 97.6396 124.68L97.9147 125.098L97.6396 124.68L74.5949 139.864ZM155.842 85.8156C154.814 82.7184 152 80.6461 148.69 80.5299L119.391 79.5013L109.34 52.5481C108.199 49.4893 105.312 47.5176 102 47.5176C98.6884 47.5176 95.801 49.4893 94.6603 52.5481L84.609 79.5013L55.3103 80.5299C52.0005 80.6461 49.1864 82.7184 48.1584 85.8156C47.1297 88.9147 48.1622 92.2184 50.7765 94.2216L73.8532 111.905L65.8033 139.486C64.8884 142.62 66.0422 145.885 68.7279 147.795C71.4082 149.701 74.9239 149.766 77.6771 147.952L102 131.924L126.323 147.951C126.323 147.951 126.323 147.951 126.323 147.951C129.073 149.763 132.588 149.702 135.272 147.794C137.958 145.884 139.111 142.619 138.196 139.485L130.146 111.905L153.223 94.2211C155.838 92.218 156.871 88.9148 155.842 85.8156Z" fill="#04664A" stroke="#04664A"/>
</svg>
