<svg width="150" height="51" viewBox="0 0 150 51" fill="none" xmlns="http://www.w3.org/2000/svg">
<path d="M2.43729 30.567C0.575324 30.1411 -0.116898 29.7652 0.0158443 29.2903C0.0960244 29.0507 0.283112 27.9335 0.468417 26.7887C0.735684 25.0595 0.867536 24.7397 1.2132 24.9C2.41056 25.3793 4.45961 25.8043 5.70953 25.8043C8.50336 25.8043 10.1533 24.3415 9.94037 22.0528C9.80674 20.3503 9.06195 19.446 6.29484 17.5573C3.47339 15.6161 1.95888 14.0187 1.05373 12.0766C0.468417 10.799 0.389128 10.3206 0.495144 8.2983C0.627886 4.65367 2.14507 2.25896 5.20439 0.84868C7.54565 -0.24177 12.6273 -0.29522 14.2505 0.768503C14.5427 0.954699 14.5427 1.35382 14.1703 3.35208C13.9307 4.62962 13.6919 5.72007 13.6652 5.77352C13.6117 5.82698 13.0531 5.66661 12.4179 5.45369C10.8749 4.91916 8.56038 4.94856 7.60267 5.50715C6.59151 6.11919 5.92601 7.52946 6.13894 8.72682C6.32513 9.95001 7.49576 11.1741 10.1569 12.9033C14.1472 15.5109 15.7169 18.0117 15.6902 21.6839C15.6902 25.5148 13.8015 28.4146 10.3448 30.0111C9.12075 30.5697 8.37596 30.7024 6.16745 30.7559C4.69926 30.8066 3.0226 30.7265 2.43729 30.567Z" fill="#FF2728"/>
<path d="M20.4003 28.2989V26.436H102.08L115.068 30.1608H20.4003V28.2989Z" fill="#006649"/>
<path d="M69.5365 25.007C66.1841 24.1553 63.9756 21.6546 62.9386 17.5574C62.486 15.6945 62.486 10.9585 62.9653 9.04313C64.2126 3.88219 67.4616 0.875434 72.1709 0.579658C74.4052 0.446916 76.8035 0.926217 76.8035 1.51153C76.8035 1.72446 76.6699 2.70889 76.5104 3.74589C76.2182 5.44838 76.138 5.58202 75.6329 5.39582C75.3131 5.26219 74.2226 5.1829 73.1847 5.1829C71.5357 5.1829 71.19 5.26219 70.2849 5.95441C68.6358 7.23106 67.9169 9.12064 67.8109 12.6593C67.6772 16.3573 68.1298 18.1926 69.5668 19.7356C70.3116 20.5374 70.8141 20.827 71.6952 20.933L72.8123 21.0924V15.4282H70.6804V11.1715H77.3283V24.4457L76.3483 24.7389C74.9113 25.1398 70.7357 25.2992 69.5365 25.007Z" fill="#006649"/>
<path d="M20.4003 15.1626V5.31822H16.1392V0.795166H29.7083V5.31822H25.4508V25.0069H20.4003V15.1626Z" fill="#006649"/>
<path d="M28.9102 24.7138C28.9102 24.5276 30.0541 19.1529 31.4376 12.7412C32.8212 6.32941 33.9651 1.00545 33.9651 0.928832C33.9651 0.852215 35.3219 0.821923 36.9451 0.84865L39.951 0.928832L42.2673 12.7679C43.5448 19.2865 44.5836 24.6871 44.5836 24.8199C44.6103 24.9268 43.5466 25.0069 42.2423 25.0069C40.1933 25.0069 39.8485 24.9268 39.7149 24.5544C39.5821 24.1018 38.7572 19.7649 38.7572 19.5253C38.7572 19.4727 37.8797 19.4193 36.7883 19.4193C34.5272 19.4193 34.7669 19.1271 34.0747 22.6915L33.623 25.0078H31.2781C29.6817 25.0069 28.9102 24.9 28.9102 24.7138ZM38.2182 15.4548C38.2182 15.3221 37.926 13.2997 37.5536 10.9852C37.1812 8.67067 36.8881 6.67508 36.8614 6.51561C36.8346 6.22339 35.3183 14.8695 35.2916 15.3755C35.2916 15.5884 35.7709 15.6945 36.7553 15.6945C37.5571 15.6945 38.2182 15.5884 38.2182 15.4548Z" fill="#006649"/>
<path d="M47.0015 13.0326V1.08838L48.0126 0.902185C49.6091 0.582355 54.7442 0.662535 56.0476 1.03493C59.0766 1.88662 60.5706 4.01496 60.5706 7.41994C60.5706 9.89484 60.0361 11.1715 58.469 12.5818C57.3509 13.5929 57.3242 13.6197 57.8837 14.0188C58.8147 14.6567 59.4793 16.3351 60.1715 19.7918C60.5172 21.6012 60.943 23.4105 61.1025 23.7829C61.2352 24.1821 61.3697 24.6337 61.3697 24.7674C61.3697 24.901 60.2258 25.0061 58.8423 25.0061C55.8355 25.0061 56.0485 25.2734 55.2502 20.6408C54.983 19.0176 54.6382 17.3685 54.4787 16.9952C54.1598 16.1177 53.2315 15.4255 52.4029 15.4255H51.7918V25.0061H47.0015V13.0326ZM54.6106 10.5381C55.4355 9.7131 55.5157 9.46899 55.5157 8.14335C55.5157 7.34155 55.3821 6.36156 55.1959 5.98828C54.8235 5.13659 53.7063 4.52455 52.5891 4.52455H51.7873V11.4379H52.7486C53.4934 11.4379 53.9192 11.2249 54.6106 10.5381Z" fill="#006649"/>
<path d="M80.5248 12.9006V0.795166H91.1665V5.05273H85.5797V10.3731H90.901V14.3688H85.5797V20.7538H91.6992V25.0114H80.5248V12.9006Z" fill="#006649"/>
<path d="M97.2843 15.1626V5.31822H93.0276V0.795166H106.33V5.31822H102.074V25.0069H97.2843V15.1626Z" fill="#006649"/>
<path d="M10.7017 43.1255L11.3573 43.6583C10.0733 45.3725 8.5332 46.2297 6.73697 46.2297C5.33686 46.2297 4.15531 45.7311 3.1923 44.7339C2.2293 43.7368 1.7478 42.4972 1.7478 41.0151C1.7478 40.0248 1.96977 39.1369 2.41371 38.3515C2.86447 37.5592 3.48599 36.9446 4.27824 36.5075C5.07733 36.0704 5.99252 35.8518 7.02382 35.8518C8.19854 35.8518 9.17862 36.1421 9.96405 36.7226C10.7495 37.2963 11.1422 37.8768 11.1422 38.4642C11.1422 38.7784 11.05 39.0208 10.8656 39.1916C10.6812 39.3623 10.4729 39.4477 10.2407 39.4477C10.1177 39.4477 9.99819 39.4169 9.88209 39.3555C9.76598 39.294 9.64646 39.195 9.52352 39.0584C9.46889 38.9969 9.36985 38.8057 9.22643 38.4847C9.04202 38.0886 8.8986 37.8222 8.79615 37.6856C8.58443 37.4124 8.32148 37.1973 8.00731 37.0402C7.69997 36.8831 7.35506 36.8046 6.9726 36.8046C6.39206 36.8046 5.85251 36.9651 5.35393 37.2861C4.86219 37.6071 4.46948 38.0817 4.17579 38.7101C3.88894 39.3316 3.74552 40.076 3.74552 40.9434C3.74552 42.2889 4.10408 43.3577 4.82121 44.15C5.44272 44.833 6.18375 45.1745 7.04431 45.1745C7.44044 45.1745 7.83998 45.1096 8.24294 44.9798C8.65273 44.8432 9.03861 44.6452 9.40059 44.3856C9.66695 44.2012 10.1006 43.7812 10.7017 43.1255Z" fill="#1E664C"/>
<path d="M17.7398 35.8518C18.7437 35.8518 19.6111 36.0601 20.3419 36.4767C21.0795 36.8933 21.6601 37.5012 22.0835 38.3003C22.507 39.0994 22.7187 40.0111 22.7187 41.0356C22.7187 42.0601 22.5001 42.9719 22.063 43.7709C21.6327 44.57 21.042 45.1813 20.2907 45.6047C19.5462 46.0214 18.655 46.2297 17.6168 46.2297C15.964 46.2297 14.721 45.714 13.8878 44.6827C13.0614 43.6514 12.6482 42.4391 12.6482 41.0459C12.6482 40.0282 12.8633 39.1267 13.2936 38.3413C13.7238 37.549 14.3249 36.9377 15.0966 36.5075C15.8752 36.0704 16.7563 35.8518 17.7398 35.8518ZM17.6578 36.8455C16.8792 36.8455 16.2201 37.1529 15.6806 37.7676C14.9976 38.5325 14.6561 39.6457 14.6561 41.1073C14.6561 42.5143 14.9464 43.5865 15.5269 44.3242C16.0528 44.9798 16.7665 45.3076 17.6681 45.3076C18.2486 45.3076 18.7642 45.154 19.215 44.8466C19.6726 44.5393 20.0414 44.051 20.3214 43.3816C20.6014 42.7055 20.7415 41.9132 20.7415 41.0049C20.7415 40.117 20.5912 39.3213 20.2907 38.6179C20.0585 38.0578 19.7067 37.6241 19.2355 37.3168C18.7711 37.0026 18.2452 36.8455 17.6578 36.8455Z" fill="#1E664C"/>
<path d="M24.3373 37.5729V36.7124C24.9452 36.6441 25.3994 36.5621 25.6999 36.4665C26.0004 36.3709 26.4341 36.166 27.001 35.8518H27.7386V37.7983C28.6401 37.0402 29.4085 36.5279 30.0436 36.2616C30.6856 35.9884 31.3345 35.8518 31.9901 35.8518C32.5502 35.8518 33.0453 35.9474 33.4756 36.1386C33.9059 36.3231 34.2542 36.5758 34.5206 36.8968C34.7938 37.2178 34.9748 37.5831 35.0635 37.9929C35.1182 38.2456 35.1455 38.6281 35.1455 39.1403V43.648C35.1455 44.1876 35.1831 44.5359 35.2582 44.693C35.3401 44.8432 35.4665 44.9525 35.6372 45.0208C35.808 45.0891 36.228 45.1232 36.8973 45.1232V45.9838H31.6213V45.1232H31.9082C32.3999 45.1232 32.7346 45.0788 32.9122 44.9901C33.0897 44.9013 33.2161 44.7715 33.2912 44.6008C33.3732 44.43 33.4141 44.0817 33.4141 43.5558V39.7858C33.4141 39.0072 33.3493 38.4676 33.2195 38.1671C33.0966 37.8666 32.8814 37.6241 32.5741 37.4397C32.2736 37.2485 31.8911 37.1529 31.4267 37.1529C30.8735 37.1529 30.2827 37.2963 29.6543 37.5831C29.026 37.8632 28.4181 38.2798 27.8308 38.833V43.5558C27.8308 44.0885 27.8684 44.4437 27.9435 44.6213C28.0254 44.7988 28.1552 44.932 28.3328 45.0208C28.4557 45.0891 28.7835 45.1232 29.3163 45.1232H29.6134V45.9838H24.3373V45.1232H24.5935C25.0989 45.1232 25.4438 45.0823 25.6282 45.0003C25.8126 44.9115 25.9424 44.7578 26.0175 44.5393C26.0585 44.43 26.0789 44.0544 26.0789 43.4124V37.5729H24.3373Z" fill="#1E664C"/>
<path d="M45.1136 36.0977H45.8307L46.7527 39.2325L45.8307 39.5399C45.4619 38.6998 44.9428 38.0407 44.2735 37.5627C43.611 37.0777 42.9383 36.8353 42.2553 36.8353C41.7294 36.8353 41.3026 36.9651 40.9747 37.2246C40.6469 37.4773 40.483 37.771 40.483 38.1056C40.483 38.4198 40.6025 38.6896 40.8415 38.915C41.0738 39.1472 41.5962 39.4101 42.409 39.7038L44.4067 40.4107C45.5336 40.8136 46.302 41.2439 46.7118 41.7015C47.1147 42.1659 47.3162 42.6918 47.3162 43.2792C47.3162 43.7778 47.1659 44.2593 46.8654 44.7237C46.5649 45.1813 46.1278 45.5467 45.5541 45.8199C44.9872 46.0931 44.335 46.2297 43.5974 46.2297C42.45 46.2297 41.4665 45.9018 40.6469 45.2462L40.4318 45.9838H39.7044L38.4238 42.6338L39.3561 42.265C39.9776 43.2485 40.5649 43.9451 41.1182 44.3549C41.8899 44.9354 42.7232 45.2257 43.6179 45.2257C44.2121 45.2257 44.7004 45.0686 45.0828 44.7544C45.4653 44.4334 45.6566 44.0783 45.6566 43.689C45.6566 43.368 45.537 43.0743 45.298 42.8079C45.0521 42.5484 44.5809 42.2957 43.8842 42.0498L41.5177 41.1893C40.5001 40.8205 39.7932 40.4175 39.397 39.9804C39.0009 39.5433 38.8029 39.0413 38.8029 38.4744C38.8029 37.7846 39.1239 37.1768 39.7659 36.6509C40.4147 36.1182 41.2377 35.8518 42.2348 35.8518C42.7539 35.8518 43.2183 35.9201 43.6281 36.0567C44.0379 36.1865 44.4408 36.405 44.837 36.7124L45.1136 36.0977Z" fill="#1E664C"/>
<path d="M48.5456 36.0977L52.4283 35.944V42.5416C52.4283 43.1221 52.5068 43.5831 52.6639 43.9246C52.8278 44.2661 53.0737 44.5325 53.4015 44.7237C53.7362 44.9081 54.1255 45.0003 54.5694 45.0003C55.1158 45.0003 55.7339 44.8535 56.4237 44.5598C57.1204 44.2661 57.8136 43.829 58.5034 43.2485V38.4744C58.5034 37.969 58.4658 37.6378 58.3907 37.4807C58.3156 37.3236 58.1824 37.1973 57.9912 37.1016C57.7999 37.006 57.4994 36.9582 57.0896 36.9582H56.3418V36.0977L60.2245 35.944V43.5865C60.2245 44.0783 60.2655 44.4198 60.3474 44.611C60.4294 44.7954 60.5489 44.9286 60.706 45.0106C60.8699 45.0857 61.1943 45.1232 61.6792 45.1232H61.9968V45.9838L58.5956 46.158V44.2627C57.6599 45.0071 56.8438 45.5228 56.1471 45.8096C55.4505 46.0897 54.7436 46.2297 54.0265 46.2297C53.4937 46.2297 53.0293 46.158 52.6332 46.0145C52.2439 45.8711 51.899 45.656 51.5985 45.3691C51.3048 45.0823 51.0794 44.7374 50.9223 44.3344C50.7652 43.9314 50.6867 43.5012 50.6867 43.0436V38.3822C50.6867 37.9656 50.6491 37.6754 50.574 37.5114C50.4989 37.3407 50.3725 37.2075 50.195 37.1119C50.0242 37.0094 49.7886 36.9582 49.4881 36.9582H48.5456V36.0977Z" fill="#1E664C"/>
<path d="M63.2672 32.6555V31.8154C64.196 31.7471 65.101 31.4602 65.982 30.9548H66.7401V43.566C66.7401 44.0988 66.7743 44.4334 66.8426 44.57C66.9314 44.7613 67.0611 44.9013 67.2319 44.9901C67.4026 45.0788 67.7304 45.1232 68.2154 45.1232H68.5432V45.9838H63.2672V45.1232H63.7999C64.1346 45.1232 64.3839 45.072 64.5478 44.9696C64.7185 44.8671 64.838 44.7271 64.9063 44.5495C64.9815 44.372 65.019 44.0168 65.019 43.4841V32.6555H63.2672Z" fill="#1E664C"/>
<path d="M72.3645 32.6145H73.0918V36.0977H76.1345V37.1221H73.0918V43.2997C73.0918 43.8256 73.1362 44.2012 73.225 44.4266C73.3206 44.652 73.4777 44.8364 73.6963 44.9798C73.9217 45.1232 74.1709 45.195 74.4441 45.195C75.093 45.195 75.8101 44.9047 76.5955 44.3242V45.3179C75.7008 45.9257 74.7959 46.2297 73.8807 46.2297C73.3616 46.2297 72.8904 46.1136 72.4669 45.8814C72.0503 45.6491 71.7634 45.3759 71.6064 45.0618C71.4561 44.7476 71.381 44.2012 71.381 43.4226V37.1221H69.5882V36.2616C70.1619 36.1318 70.6229 35.9303 70.9712 35.6571C71.3263 35.384 71.6132 35.0288 71.8317 34.5917C72.0503 34.1546 72.2279 33.4955 72.3645 32.6145Z" fill="#1E664C"/>
<path d="M80.1709 31.2314C80.4987 31.2314 80.7788 31.3475 81.011 31.5798C81.2432 31.8051 81.3593 32.0818 81.3593 32.4096C81.3593 32.7374 81.2432 33.0174 81.011 33.2496C80.7788 33.4819 80.4987 33.598 80.1709 33.598C79.8431 33.598 79.5631 33.4819 79.3309 33.2496C79.0986 33.0174 78.9825 32.7374 78.9825 32.4096C78.9825 32.0818 79.0986 31.8051 79.3309 31.5798C79.5631 31.3475 79.8431 31.2314 80.1709 31.2314ZM77.5585 37.5729V36.7226C78.1254 36.6543 78.6001 36.5587 78.9825 36.4357C79.3718 36.3128 79.8124 36.1182 80.3041 35.8518H81.052V44.068C81.052 44.3549 81.0929 44.57 81.1749 44.7135C81.2569 44.8569 81.3695 44.9627 81.513 45.031C81.6632 45.0925 81.933 45.1232 82.3223 45.1232H82.8038V45.9838H77.5585V45.1232H77.9786C78.4361 45.1232 78.7435 45.0823 78.9006 45.0003C79.0577 44.9183 79.1669 44.8022 79.2284 44.652C79.2967 44.5017 79.3309 44.15 79.3309 43.5968V37.5729H77.5585Z" fill="#1E664C"/>
<path d="M83.941 37.5729V36.7124C84.5488 36.6441 85.003 36.5621 85.3035 36.4665C85.604 36.3709 86.0377 36.166 86.6046 35.8518H87.3422V37.7983C88.2437 37.0402 89.0121 36.5279 89.6473 36.2616C90.2893 35.9884 90.9381 35.8518 91.5938 35.8518C92.1538 35.8518 92.649 35.9474 93.0792 36.1386C93.5095 36.3231 93.8578 36.5758 94.1242 36.8968C94.3974 37.2178 94.5784 37.5831 94.6672 37.9929C94.7218 38.2456 94.7491 38.6281 94.7491 39.1403V43.648C94.7491 44.1876 94.7867 44.5359 94.8618 44.693C94.9438 44.8432 95.0701 44.9525 95.2409 45.0208C95.4116 45.0891 95.8316 45.1232 96.501 45.1232V45.9838H91.2249V45.1232H91.5118C92.0035 45.1232 92.3382 45.0788 92.5158 44.9901C92.6933 44.9013 92.8197 44.7715 92.8948 44.6008C92.9768 44.43 93.0178 44.0817 93.0178 43.5558V39.7858C93.0178 39.0072 92.9529 38.4676 92.8231 38.1671C92.7002 37.8666 92.485 37.6241 92.1777 37.4397C91.8772 37.2485 91.4947 37.1529 91.0303 37.1529C90.4771 37.1529 89.8863 37.2963 89.258 37.5831C88.6296 37.8632 88.0218 38.2798 87.4344 38.833V43.5558C87.4344 44.0885 87.472 44.4437 87.5471 44.6213C87.6291 44.7988 87.7588 44.932 87.9364 45.0208C88.0593 45.0891 88.3872 45.1232 88.9199 45.1232H89.217V45.9838H83.941V45.1232H84.1971C84.7025 45.1232 85.0474 45.0823 85.2318 45.0003C85.4162 44.9115 85.546 44.7578 85.6211 44.5393C85.6621 44.43 85.6826 44.0544 85.6826 43.4124V37.5729H83.941Z" fill="#1E664C"/>
<path d="M105.701 36.907C106.008 36.545 106.319 36.2787 106.633 36.1079C106.954 35.9372 107.248 35.8518 107.514 35.8518C107.76 35.8518 107.965 35.9269 108.129 36.0772C108.299 36.2206 108.385 36.3982 108.385 36.6099C108.385 36.8285 108.31 37.0129 108.159 37.1631C108.009 37.3134 107.818 37.3885 107.586 37.3885C107.49 37.3885 107.36 37.3714 107.196 37.3373C107.005 37.2895 106.845 37.2656 106.715 37.2656C106.544 37.2656 106.367 37.3441 106.182 37.5012C106.606 38.0134 106.817 38.6144 106.817 39.3043C106.817 40.2468 106.421 41.0629 105.629 41.7527C104.837 42.4425 103.836 42.7875 102.627 42.7875C101.958 42.7875 101.285 42.6474 100.609 42.3674C100.158 42.6884 99.9022 42.8865 99.8407 42.9616C99.7451 43.0777 99.6973 43.2007 99.6973 43.3304C99.6973 43.5285 99.7998 43.6924 100.005 43.8222C100.264 43.9929 100.776 44.1363 101.541 44.2524L104.502 44.693C105.158 44.7954 105.817 44.9662 106.479 45.2052C107.142 45.4442 107.62 45.755 107.914 46.1375C108.214 46.5199 108.364 46.9775 108.364 47.5103C108.364 48.4118 107.948 49.1323 107.114 49.6719C106.056 50.3617 104.485 50.7066 102.402 50.7066C101.309 50.7066 100.421 50.5905 99.7383 50.3583C99.0553 50.1261 98.526 49.7982 98.1504 49.3748C97.8772 49.0674 97.7406 48.7499 97.7406 48.422C97.7406 47.9986 97.8772 47.5854 98.1504 47.1824C98.4304 46.7795 99.0724 46.2058 100.076 45.4613C99.4275 45.2974 98.9631 45.1062 98.6831 44.8876C98.3279 44.6076 98.1504 44.29 98.1504 43.9349C98.1504 43.7573 98.1811 43.5934 98.2426 43.4431C98.3109 43.286 98.4167 43.1324 98.5601 42.9821C98.7104 42.825 98.9802 42.6099 99.3695 42.3367C99.6153 42.1659 99.7895 42.0396 99.892 41.9576C99.3934 41.6025 99.0177 41.2064 98.765 40.7692C98.5123 40.3253 98.386 39.8404 98.386 39.3145C98.386 38.4471 98.7206 37.689 99.39 37.0402C100.203 36.2479 101.299 35.8518 102.679 35.8518C103.293 35.8518 103.829 35.9303 104.287 36.0874C104.745 36.2377 105.216 36.5109 105.701 36.907ZM102.586 36.8046C101.917 36.8046 101.35 37.047 100.886 37.5319C100.421 38.0168 100.189 38.6179 100.189 39.335C100.189 39.8131 100.295 40.2468 100.507 40.6361C100.718 41.0185 101.015 41.3225 101.398 41.5478C101.78 41.7664 102.183 41.8757 102.607 41.8757C103.03 41.8757 103.433 41.763 103.816 41.5376C104.205 41.3122 104.502 41.0083 104.707 40.6258C104.919 40.2434 105.025 39.8131 105.025 39.335C105.025 38.5837 104.796 37.9759 104.338 37.5114C103.887 37.0402 103.303 36.8046 102.586 36.8046ZM100.957 45.6969C100.302 46.257 99.8646 46.7112 99.6461 47.0595C99.4344 47.4078 99.3285 47.7425 99.3285 48.0635C99.3285 48.3367 99.4344 48.5996 99.6461 48.8523C99.8646 49.1118 100.233 49.3236 100.753 49.4875C101.272 49.6514 101.924 49.7334 102.709 49.7334C103.638 49.7334 104.434 49.6309 105.096 49.426C105.766 49.2279 106.244 48.9718 106.531 48.6577C106.742 48.4118 106.848 48.1215 106.848 47.7869C106.848 47.5 106.759 47.2576 106.582 47.0595C106.411 46.8614 106.083 46.6873 105.598 46.537C105.12 46.3936 104.673 46.2877 104.256 46.2194L100.957 45.6969Z" fill="#1E664C"/>
<path d="M130.908 19.5349V37.1457C132.039 37.2954 133.184 37.303 134.318 37.1684V19.5349H130.908Z" fill="#1E664C"/>
<path d="M130.907 37.1992V23.6668C131.963 22.8218 133.11 22.1546 134.316 21.6838V37.1992H130.907Z" fill="#E72B2C"/>
<path d="M144.409 31.0169C150.565 21.5491 143.808 8.87899 132.269 8.87899C129.059 8.87541 125.942 9.95727 123.425 11.9488L124.139 9.28314L120.452 10.2707C125.868 3.73092 132.382 0 132.382 0C132.382 0 150 9.611 150 23.2192C150.004 26.8586 148.875 30.4091 146.77 33.3775L148.274 34.8736L141.142 36.7846C142.149 33.0283 141.864 34.0948 143.029 29.7443L144.409 31.0169Z" fill="#FF151F"/>
<path d="M124.877 23.6992V34.9134C125.933 35.6137 127.079 36.1665 128.285 36.5567V23.6992H124.877Z" fill="#E72B2C"/>
<path d="M136.939 15.3865V36.6265C138.141 36.2614 139.288 35.7337 140.348 35.0581V15.3865H136.939Z" fill="#1E664C"/>
<path d="M118.949 12.4599L117.452 10.9625L124.583 9.05151L122.592 16.1025L121.199 14.8406C112.792 28.6348 129.302 43.9147 141.972 33.6841L141.58 36.5543L145.267 35.5654C139.849 42.1065 133.335 45.8375 133.335 45.8375C133.335 45.8375 115.719 36.2251 115.719 22.6129C115.715 18.9752 116.844 15.4267 118.949 12.4599Z" fill="#006649"/>
</svg>
