<svg width="15" height="20" viewBox="0 0 15 20" fill="none" xmlns="http://www.w3.org/2000/svg">
<path d="M14.569 10.822C14.7022 10.7303 14.8112 10.6075 14.8864 10.4643C14.9617 10.3211 15.001 10.1618 15.001 10C15.001 9.83823 14.9617 9.67889 14.8864 9.53569C14.8112 9.3925 14.7022 9.26974 14.569 9.178L1.569 0.178001C1.41906 0.0738258 1.24343 0.0127372 1.06121 0.00136752C0.878979 -0.0100022 0.697122 0.0287857 0.535393 0.113516C0.373664 0.198246 0.238248 0.325678 0.143857 0.481966C0.0494672 0.638254 -0.000287182 0.817421 4.09231e-07 1L1.19604e-06 19C0.000753613 19.1822 0.0511478 19.3607 0.145764 19.5163C0.24038 19.672 0.375639 19.7989 0.536994 19.8834C0.698349 19.968 0.879696 20.0069 1.06153 19.9961C1.24337 19.9853 1.41881 19.9251 1.569 19.822L14.569 10.822Z" fill="white"/>
</svg>
