<svg width="32" height="32" viewBox="0 0 32 32" fill="none" xmlns="http://www.w3.org/2000/svg">
<path fill-rule="evenodd" clip-rule="evenodd" d="M15.9497 31.7413C24.7149 31.7413 31.8204 24.6358 31.8204 15.8706C31.8204 7.10553 24.7149 0 15.9497 0C7.18463 0 0.0791016 7.10553 0.0791016 15.8706C0.0791016 19.1421 1.06893 22.1823 2.76542 24.7082L0.212378 31.8764L7.29294 29.1746C9.78257 30.7979 12.756 31.7413 15.9497 31.7413Z" fill="white"/>
<path d="M23.6528 9.146C23.5963 9.146 23.5344 9.15676 23.4753 9.17828L8.1964 14.9832C7.76601 15.1473 7.77677 15.7606 8.21254 15.9085L11.7552 17.1055L13.891 21.3798C13.891 21.3798 13.891 21.3825 13.8937 21.3825L13.8991 21.3933H13.9018C13.9394 21.4713 14.0201 21.5224 14.1062 21.5224C14.1573 21.5224 14.2084 21.5063 14.2541 21.4686L16.2555 19.7713L14.0201 18.0766L14.195 20.3039L12.5891 16.9791L21.1269 11.8521L14.0201 18.0793L19.5506 22.2783C19.7362 22.4182 19.9487 22.4827 20.1559 22.4827C20.5943 22.4827 21.0166 22.1949 21.135 21.7188L24.1262 9.75661C24.2096 9.43382 23.9568 9.146 23.6528 9.146Z" fill="#04664A"/>
</svg>
