<svg width="33" height="32" viewBox="0 0 33 32" fill="none" xmlns="http://www.w3.org/2000/svg">
<path fill-rule="evenodd" clip-rule="evenodd" d="M16.1308 31.7413C24.896 31.7413 32.0015 24.6358 32.0015 15.8706C32.0015 7.10553 24.896 0 16.1308 0C7.36572 0 0.260193 7.10553 0.260193 15.8706C0.260193 19.1428 1.25048 22.1837 2.94769 24.71L0.395273 31.8764L7.4747 29.175C9.96419 30.7981 12.9374 31.7413 16.1308 31.7413Z" fill="white"/>
<path fill-rule="evenodd" clip-rule="evenodd" d="M16.1312 6.45654C10.9382 6.45654 6.71637 10.6783 6.71637 15.8713C6.71637 17.6994 7.23624 19.4533 8.21885 20.9729L6.79064 24.1207C6.65924 24.412 6.70495 24.7491 6.91632 24.9948C7.07628 25.1833 7.30479 25.2861 7.53902 25.2861C7.61329 25.2861 7.68185 25.2747 7.75611 25.2575L11.698 24.1778C13.0576 24.9033 14.583 25.2861 16.1312 25.2861C21.3241 25.2861 25.5459 21.0643 25.5459 15.8713C25.5459 10.6783 21.3241 6.45654 16.1312 6.45654ZM16.1312 23.6408C14.7544 23.6408 13.4061 23.2752 12.2178 22.5839C12.0922 22.5097 11.9494 22.4697 11.8008 22.4697C11.7266 22.4697 11.6523 22.4811 11.5837 22.4982L9.00723 23.2066L9.90415 21.23C10.0241 20.9615 9.99555 20.6473 9.82416 20.4073C8.8644 19.0762 8.35597 17.5109 8.35597 15.8656C8.35597 11.581 11.8408 8.09613 16.1254 8.09613C20.4101 8.09613 23.8949 11.581 23.8949 15.8656C23.9006 20.156 20.4158 23.6408 16.1312 23.6408Z" fill="#04664A"/>
<path fill-rule="evenodd" clip-rule="evenodd" d="M19.7534 17.2825C19.3592 17.0483 18.8451 16.7855 18.3823 16.9741C18.0281 17.1226 17.7996 17.6767 17.5654 17.9624C17.4454 18.1109 17.3083 18.1338 17.1255 18.0595C15.7887 17.5282 14.7604 16.6313 14.0234 15.403C13.8978 15.2145 13.9206 15.0602 14.0691 14.8831C14.2919 14.6204 14.5719 14.3233 14.6347 13.9691C14.6976 13.6149 14.5319 13.2036 14.3833 12.8894C14.1948 12.4895 13.9892 11.9125 13.5835 11.684C13.2122 11.4726 12.7266 11.5925 12.3953 11.861C11.824 12.3238 11.5498 13.055 11.5612 13.7749C11.5612 13.9805 11.5898 14.1862 11.6355 14.3804C11.7497 14.8546 11.9725 15.3002 12.2182 15.7229C12.4067 16.0429 12.6066 16.3514 12.8237 16.6484C13.5378 17.6196 14.4291 18.4651 15.4574 19.0935C15.9715 19.4077 16.5257 19.6877 17.1027 19.8762C17.7482 20.0876 18.3195 20.3104 19.0165 20.179C19.742 20.0419 20.4618 19.5905 20.7532 18.8879C20.8389 18.6822 20.8789 18.448 20.8332 18.2309C20.7303 17.7681 20.119 17.4996 19.7534 17.2825Z" fill="#04664A"/>
</svg>
