<svg width="33" height="32" viewBox="0 0 33 32" fill="none" xmlns="http://www.w3.org/2000/svg">
<path fill-rule="evenodd" clip-rule="evenodd" d="M16.312 31.7413C25.0771 31.7413 32.1826 24.6358 32.1826 15.8706C32.1826 7.10553 25.0771 0 16.312 0C7.54687 0 0.441345 7.10553 0.441345 15.8706C0.441345 19.1429 1.43167 22.1839 3.12894 24.7101L0.576576 31.8764L7.65591 29.1751C10.1454 30.7981 13.1185 31.7413 16.312 31.7413Z" fill="white"/>
<path fill-rule="evenodd" clip-rule="evenodd" d="M21.4571 18.2603C20.878 17.9162 20.1226 17.5301 19.4427 17.8071C18.9223 18.0253 18.5866 18.8395 18.2425 19.2591C18.0662 19.4773 17.8648 19.5109 17.5962 19.4018C15.6322 18.6212 14.1214 17.3035 13.0387 15.4989C12.854 15.222 12.8876 14.9953 13.1058 14.7352C13.4331 14.3491 13.8444 13.9126 13.9367 13.3922C14.0291 12.8718 13.7857 12.2675 13.5674 11.8059C13.2905 11.2184 12.9883 10.3707 12.3924 10.0349C11.8468 9.72438 11.1334 9.90063 10.6466 10.2951C9.80724 10.975 9.40437 12.0493 9.42116 13.1069C9.42116 13.409 9.46313 13.7112 9.53027 13.9965C9.69814 14.6932 10.0255 15.3479 10.3864 15.969C10.6634 16.439 10.9571 16.8922 11.2761 17.3287C12.3252 18.7555 13.6346 19.9977 15.1454 20.921C15.9008 21.3826 16.7149 21.7939 17.5626 22.0709C18.5111 22.3814 19.3504 22.7088 20.3744 22.5157C21.4403 22.3143 22.4979 21.6512 22.9259 20.6188C23.0518 20.3167 23.1106 19.9725 23.0434 19.6536C22.8923 18.9737 21.9943 18.5793 21.4571 18.2603Z" fill="#04664A"/>
</svg>
