<svg width="24" height="32" viewBox="0 0 24 32" fill="none" xmlns="http://www.w3.org/2000/svg"><path d="M10.604 13.638v12.294c.79.105 1.589.11 2.38.016v-12.31h-2.38z" fill="#1E664C"/><path d="M10.603 25.97v-9.448a9.13 9.13 0 0 1 2.38-1.384V25.97h-2.38z" fill="#E72B2C"/><path d="M20.03 21.654c4.296-6.61-.42-15.455-8.476-15.455a9.934 9.934 0 0 0-6.175 2.143l.5-1.861-2.574.69C7.085 2.604 11.633 0 11.633 0s12.3 6.71 12.3 16.21c.002 2.54-.786 5.02-2.256 7.091l1.05 1.045-4.978 1.334 1.317-4.915.963.889z" fill="#FF151F"/><path d="M6.393 16.545v7.829a9.723 9.723 0 0 0 2.38 1.147v-8.976h-2.38z" fill="#E72B2C"/><path d="M14.814 10.742V25.57a9.626 9.626 0 0 0 2.38-1.095V10.742h-2.38z" fill="#1E664C"/><path d="M2.255 8.698L1.21 7.653 6.188 6.32l-1.39 4.922-.972-.88c-5.87 9.63 5.656 20.297 14.502 13.154l-.274 2.004 2.574-.69C16.846 29.395 12.298 32 12.298 32S0 25.29 0 15.787a12.227 12.227 0 0 1 2.255-7.089z" fill="#006649"/></svg>