<svg width="229" height="89" viewBox="0 0 229 89" fill="none" xmlns="http://www.w3.org/2000/svg"><path d="M193.237 54.234h-3.658c-51.244 0-102.49-.002-153.734.03-1.22 0-1.671-.27-1.54-1.534.12-1.17.095-2.364.002-3.538-.079-1.004.207-1.29 1.244-1.279 6.258.055 12.517.027 18.775.027 38.548 0 77.093.017 115.641-.03 2.896-.002 5.481 1.063 8.173 1.772 3.936 1.039 7.828 2.24 11.739 3.38 1.132.33 2.256.682 3.386 1.025-.011.05-.019.098-.028.147zM9.923 55.262c-3.263 0-5.92-.15-8.486-1.063-1.178-.42-1.644-1.071-1.353-2.35.411-1.81.73-3.644 1.018-5.479.153-.954.474-1.191 1.446-.85 2.444.861 4.97 1.45 7.58 1.327 2.601-.12 5.076-.826 6.118-3.486 1.091-2.783.376-5.34-1.837-7.425-1.984-1.87-4.369-3.203-6.483-4.902-2.635-2.118-4.932-4.481-6.372-7.632C.308 20.676.542 17.896.97 15.118 1.98 8.568 5.822 4.84 12.713 3.634c3.06-.537 6.127-.543 9.18.163 2.36.546 2.638.905 2.224 3.244-.294 1.652-.664 3.29-.898 4.95-.16 1.14-.68 1.15-1.568.794-2.1-.85-4.303-.96-6.545-.832-2.134.123-3.577 1.18-4.396 3.094-.811 1.895-.642 3.713.68 5.36 1.408 1.75 3.204 3.038 5.055 4.262 2.536 1.68 4.98 3.462 6.905 5.866 5.563 6.957 4.191 21.227-8.868 24.37-1.646.392-3.42.275-4.559.357zM79.194 25.288c0-6.218.027-12.435-.024-18.65-.011-1.148.226-1.644 1.483-1.802 4.44-.562 8.87-.532 13.274.109 4.757.692 7.809 4.566 8.119 9.98.231 4.023-.711 7.558-4.102 10.112-.903.682-1.377 1.279-.098 2.252 1.418 1.077 1.846 2.86 2.344 4.506 1.262 4.162 1.652 8.54 3.064 12.667.215.63-.032.78-.59.859-2.167.308-4.341.24-6.51.122-1.12-.06-1.732-.806-2.023-1.891-.719-2.677-.963-5.441-1.554-8.14-.25-1.148-.455-2.32-.841-3.42-.536-1.527-1.674-2.402-3.318-2.623-.96-.131-1.238.193-1.227 1.166.046 4.54-.022 9.078.049 13.614.019 1.153-.305 1.453-1.424 1.39-1.807-.101-3.625-.08-5.435-.003-.945.04-1.217-.218-1.211-1.188.046-6.352.024-12.706.024-19.06zm8.018-8.56c0 1.675-.002 3.348.003 5.022.003.392-.092.837.55.861 1.334.052 2.55-.087 3.688-.973 2.068-1.614 2.267-3.723 1.987-6.084-.376-3.151-2.202-4.76-5.327-4.645-.716.025-.933.24-.914.94.04 1.623.013 3.25.013 4.88zM130.322 33.439c0 3.314-.044 6.629.027 9.94.022.969-.297 1.353-1.2 1.563-3.702.858-7.469 1.18-11.203.66-4.695-.655-7.825-3.599-10.1-7.663-3.34-5.964-3.057-19.318.381-25.176 3.416-5.817 8.369-8.568 14.994-8.516 1.674.014 3.345.155 4.967.67.917.292 1.347.794 1.157 1.805-.302 1.603-.534 3.217-.806 4.825-.125.747-.411 1.036-1.298.823-1.859-.441-3.783-.458-5.683-.286-2.648.243-4.295 1.944-5.542 4.11-.919 1.598-1.322 3.375-1.502 5.188-.332 3.391-.498 6.79.142 10.17.446 2.355 1.605 4.315 3.418 5.872.406.349.876.66 1.369.858 2.697 1.096 3.236.742 3.244-2.082.006-1.906-.046-3.816.022-5.719.033-.908-.253-1.142-1.137-1.14-2.447.006-2.447-.038-2.45-2.513-.003-1.226.049-2.453-.019-3.677-.049-.872.294-1.063 1.099-1.05 2.992.044 5.986.063 8.977-.008 1.02-.024 1.178.371 1.167 1.263-.051 3.363-.024 6.722-.024 10.083zM71.187 45.446c-4.183.068-4.186.071-4.992-3.982-.275-1.38-.604-2.754-.754-4.144-.092-.85-.356-1.191-1.222-1.177-1.312.019-2.626-.074-3.94-.09-1.141-.014-1.868.488-2.097 1.682-.443 2.314-.941 4.617-1.412 6.926-.087.433-.057.886-.749.864-2.038-.065-4.08-.063-6.118-.1-.996-.02-1.28-.461-1.059-1.484 2.583-11.955 5.13-23.92 7.686-35.88.008-.044.033-.085.041-.129.721-3.26.721-3.279 4.102-3.243 1.902.019 3.808.16 5.71.152.781-.002.999.336 1.127.998 1.431 7.384 2.893 14.766 4.325 22.15 1.042 5.387 2.014 10.784 3.102 16.16.215 1.06-.136 1.3-1.026 1.3-.912-.003-1.818-.003-2.724-.003zm-9.06-30.612l-.235-.016c-.664 3.827-1.369 7.646-1.984 11.479-.59 3.682-.367 3.849 3.443 3.424.757-.085 1.048-.35.923-1.107-.204-1.249-.365-2.505-.561-3.756-.523-3.342-1.056-6.682-1.587-10.024zM135.648 25.013c0-6.354.028-12.708-.027-19.062-.008-1.093.308-1.358 1.361-1.347 5.166.052 10.334.041 15.5.006.858-.006 1.192.182 1.149 1.11a62.22 62.22 0 0 0-.003 5.037c.03.828-.204 1.1-1.059 1.082-2.447-.058-4.896.008-7.343-.036-.776-.013-1.015.23-1.002.995.041 2.36.039 4.721.003 7.08-.011.705.202.937.923.923 2.311-.043 4.624.02 6.935-.038.89-.022 1.192.237 1.148 1.15a46.74 46.74 0 0 0 .003 4.493c.044.88-.199 1.188-1.116 1.161-2.264-.063-4.531.01-6.799-.035-.789-.017-1.121.133-1.102 1.024.057 2.904.049 5.81.005 8.715-.013.826.218 1.093 1.065 1.077 2.672-.052 5.348.03 8.021-.044 1.047-.03 1.314.306 1.262 1.309-.084 1.63-.051 3.268-.008 4.9.019.745-.185 1.026-.985 1.02-5.667-.032-11.33-.043-16.997.006-1.141.01-.939-.668-.939-1.325-.003-6.4 0-12.798 0-19.198.003-.003.003-.003.005-.003zM34.327 28.747c.002-5.08-.03-10.165.027-15.245.01-1.034-.275-1.312-1.282-1.26-1.671.087-3.353-.01-5.027.041-.73.022-.926-.24-.912-.932.035-1.95.044-3.904-.003-5.853-.019-.76.297-.886.961-.883 6.978.02 13.957.027 20.933-.003.86-.002 1.075.273 1.05 1.09a105.92 105.92 0 0 0-.002 5.58c.019.764-.213 1.034-.997 1.004-1.494-.057-2.996.07-4.482-.044-1.353-.104-1.813.232-1.8 1.72.077 10.026.023 20.055.069 30.08.005 1.15-.207 1.579-1.456 1.5-1.987-.126-3.988-.082-5.977-.011-.904.03-1.124-.254-1.119-1.132.035-5.217.017-10.434.017-15.652zM163.916 28.886c0-5.13-.032-10.257.027-15.387.014-1.042-.277-1.309-1.279-1.254-1.627.087-3.263-.011-4.893.04-.741.022-1.032-.16-1.01-.962.054-1.949.043-3.903.005-5.855-.011-.651.193-.847.844-.845 6.935.02 13.87.017 20.805 0 .58 0 .792.17.781.769a162.57 162.57 0 0 0 .003 6.128c.016.769-.395.763-.934.758-1.587-.014-3.179.07-4.757-.03-1.146-.074-1.511.19-1.506 1.444.063 10.075.009 20.153.066 30.23.008 1.273-.223 1.74-1.59 1.63-1.755-.141-3.535-.095-5.299-.013-.999.046-1.306-.21-1.295-1.262.065-5.13.032-10.26.032-15.39zM223.25 40.223c-3.511 4.345-7.779 7.818-12.441 10.841-.463.3-.819.224-1.241-.04-6.647-4.155-12.626-9.023-16.467-16.034-3.611-6.6-3.601-13.267.194-19.804.631-1.088.65-1.742-.352-2.434-.136-.096-.215-.273-.356-.463 1.192-.745 2.711-.483 3.759-1.426.715.076 1.385.1 2.068-.314.482-.291 1.23-.436 1.69-.12.572.393-.256.824-.245 1.284.009.314.019.625.03.938-.96 1.578-.906 3.53-1.81 5.187l-1.499-1.237c-3.076 5.38-3.495 10.794-.566 16.29 1.148 2.153 2.55 4.154 4.814 5.334.967 1.148 2.295 1.663 3.666 2.096.877.611 1.906.742 2.915.925 1.285.294 2.581.19 3.876.114.357-.024.721-.014 1.07-.082 1.924-.37 1.924-.376 1.924-2.385 0-6.39 0-12.776-.003-19.166 0-2.576-.005-2.526 2.534-2.578.999-.022 1.29.234 1.282 1.267-.051 6.39-.03 12.776-.016 19.166 0 .42-.18.889.199 1.316l1.595-1.022c-.03.71-.022 1.423-.101 2.13-.09.803.365 1.06.922.724.825-.498 1.702-.376 2.559-.507z" fill="#fff"/><path d="M199.884 12.651c-.011-.313-.022-.624-.03-.938-.011-.46.816-.891.245-1.284-.457-.316-1.209-.171-1.69.12-.683.415-1.353.39-2.069.314 3.427-4.29 7.662-7.646 12.218-10.64.438-.288.806-.3 1.247-.021 6.842 4.318 13.029 9.325 16.831 16.682 3.168 6.133 3.16 12.354-.071 18.484-.705 1.336-1.761 2.536.512 3.61l-3.827 1.24c-.857.13-1.731.01-2.559.507-.557.335-1.012.079-.922-.725.076-.703.071-1.418.101-2.13l1.238-4.401c1.742 1.158 1.742 1.158 2.474-.3C228.84 22.69 221.228 10.09 209.5 9.846c-3.506-.065-6.658 1.025-9.616 2.805zM168.491 80.125c-3.775-1.412-4.292-3.348-.269-5.907-.136-.177-.242-.393-.408-.52-3.269-2.509-2.589-7.644 2.123-9.342 2.58-.93 5.179-.84 7.536.785.52.357.825.324 1.252-.123a3.826 3.826 0 0 1 2.251-1.175c.642-.093 1.157.147 1.497.712.226.378.253.782.022 1.16-.343.565-.868.772-1.511.682-.177-.024-.348-.103-.525-.13-.452-.069-.953-.17-1.263.25-.28.382.182.64.321.943 1.309 2.846-.136 6.166-3.269 7.442-1.921.782-3.903.829-5.857.215-.721-.226-1.197-.12-1.715.338-.979.865-.868 1.66.398 2.091 1.679.573 3.459.673 5.204.938 1.747.264 3.495.51 5.16 1.128 1.65.616 3.002 1.543 3.171 3.5.174 2.02-.819 3.487-2.537 4.275-4.213 1.93-8.603 2.175-12.922.482-2.883-1.129-3.201-3.674-.948-5.8.686-.65 1.44-1.227 2.289-1.944zm4.973 7.123a10.95 10.95 0 0 0 4.608-.826c1.138-.48 2.107-1.17 1.99-2.595-.112-1.342-1.193-1.775-2.26-2.018-1.848-.422-3.726-.714-5.593-1.052-2.095-.379-3.478.322-4.444 2.24-.751 1.495-.346 2.743 1.159 3.504 1.331.667 2.774.766 4.54.747zm3.53-17.593c-.019-2.516-1.745-4.288-4.131-4.245-2.303.041-4.105 1.999-4.05 4.397.054 2.415 1.913 4.25 4.251 4.193 2.24-.055 3.949-1.941 3.93-4.345zM147.18 67.005c1.358-.864 2.333-1.744 3.522-2.295 1.258-.58 2.553-.935 3.936-.886 2.98.106 4.842 1.83 4.972 4.808.126 2.855.063 5.72.09 8.579.019 1.903.166 2.107 2.055 2.265.637.052.871.188.855.85-.017.77-.531.587-.945.59-2.357.008-4.716-.006-7.073.01-.512.003-.852-.022-.852-.692.002-.627.269-.7.811-.752 1.894-.178 2.207-.5 2.229-2.337.03-2.496.062-4.996-.019-7.49-.095-2.936-1.745-4.127-4.614-3.495-1.589.349-2.931 1.156-4.202 2.124-.482.365-.648.81-.642 1.403.022 2.451-.011 4.904.016 7.355.022 1.954.289 2.254 2.24 2.434.602.055.751.254.754.815.003.605-.321.633-.773.633-2.45-.009-4.896-.017-7.346.005-.522.005-.724-.16-.718-.695.005-.493.122-.684.672-.755 2.202-.29 2.215-.325 2.223-2.51.011-3.043-.032-6.085.022-9.127.017-.897-.239-1.243-1.129-1.118-.357.05-.724-.002-1.086.014-.428.022-.711-.087-.681-.589.025-.392-.117-.883.501-.93 1.388-.108 2.594-.713 3.835-1.28.86-.393 1.494-.175 1.361 1.005-.068.581-.014 1.172-.014 2.061zM46.67 67.038c1.766-1.227 3.149-2.402 4.94-2.876 1.578-.417 3.121-.51 4.654.136 1.801.758 2.825 2.088 2.85 4.073.035 2.86.007 5.719.035 8.578.019 2.17.12 2.306 2.24 2.524.62.066.726.284.734.829.009.61-.329.627-.775.624-2.447-.008-4.897-.008-7.343-.002-.441 0-.798-.006-.798-.62 0-.56.158-.76.76-.828 2.09-.24 2.272-.453 2.278-2.538.008-2.633.038-5.266-.077-7.897-.092-2.118-1.546-3.265-3.655-3.034-2 .221-3.693 1.137-5.226 2.416-.413.346-.435.744-.435 1.204.005 2.587-.011 5.177.008 7.764.01 1.594.395 1.998 2 2.096.578.035 1.051-.033 1.008.82-.044.878-.635.603-1.06.608-2.31.022-4.623.011-6.937.017-.52.002-.974.043-.963-.742.008-.692.378-.654.86-.698 1.921-.174 2.109-.376 2.123-2.363.019-3.086-.02-6.174.027-9.26.014-.856-.182-1.172-1.105-1.175-.62-.002-1.68.63-1.856-.591-.19-1.328 1.017-.782 1.622-1.033.748-.311 1.527-.559 2.264-.897 1.543-.712 1.818-.564 1.826 1.069.003.485 0 .978 0 1.796zM98.54 78.225c-1.505.984-2.88 2.096-4.578 2.636-.96.305-1.94.455-2.942.458-3.43.01-5.457-1.846-5.593-5.275-.104-2.584-.027-5.174-.046-7.76-.014-2.146-.425-2.55-2.515-2.61-.474-.013-1.121.279-1.135-.678-.014-.91.582-.739 1.094-.763 1.448-.071 2.901-.085 4.347-.207.884-.077 1.159.185 1.143 1.096-.055 3.178-.022 6.356-.022 9.532.003 3.969 2.145 5.487 5.92 4.2.171-.057.343-.117.511-.185 3.52-1.41 3.849-1.892 3.849-5.612 0-1.543.003-3.089 0-4.632-.008-2.336-.324-2.65-2.64-2.753-.343-.016-.88.265-.97-.4-.078-.595-.043-1.044.79-1.047a69.209 69.209 0 0 0 4.755-.202c.833-.063.966.297.961 1.025-.027 3.903-.019 7.81 0 11.713.011 2.252.12 2.388 2.36 2.72.571.085.631.347.642.802.011.458-.166.643-.629.662-1.358.06-2.719.11-4.069.248-.844.088-1.14-.182-1.086-1.027.036-.608.13-1.243-.147-1.941zM38.183 72.634c-.008 5.27-3.364 8.696-8.516 8.696-5.142 0-8.405-3.405-8.394-8.759.008-5.228 3.511-8.76 8.672-8.75 4.964.011 8.249 3.525 8.238 8.813zm-3.285.025c.035-1.655-.229-3.247-1.037-4.708-1.717-3.102-5.819-3.328-7.866-.444-1.777 2.502-1.864 7.66-.174 10.233 1.927 2.93 6.287 2.726 7.975-.382.789-1.464 1.13-3.04 1.102-4.7zM73.427 81.319c-1.527.019-2.964-.316-4.26-1.15-.416-.268-.794-.5-.936.245-.087.452-.392.507-.797.526-.54.024-.684-.297-.833-.7-.501-1.358-1.002-2.716-1.546-4.057-.207-.515-.37-.924.321-1.175.509-.185.914-.436 1.325.267a10.073 10.073 0 0 0 2.586 2.944c1.434 1.102 3.04 1.56 4.831 1.383 1.413-.142 2.575-1.096 2.733-2.236.204-1.469-.749-2.178-1.873-2.65-1.706-.71-3.465-1.3-5.198-1.951-.507-.19-1.01-.393-1.497-.633-2.123-1.044-3.103-2.507-2.904-4.298.18-1.606 1.766-3.211 3.718-3.735 1.916-.512 3.77-.346 5.527.6.499.267.852.687 1.342-.174.267-.467 1.127-.587 1.397.373.356 1.262.729 2.522 1.115 3.773.136.444.39.872-.313 1.06-.506.136-.947.444-1.306-.343-.675-1.492-1.85-2.557-3.301-3.302-1.214-.621-2.486-.85-3.8-.36-.855.32-1.524.884-1.57 1.86-.044.913.528 1.493 1.298 1.902 1.565.835 3.274 1.295 4.923 1.906 1.018.376 2.028.768 2.967 1.32 2.959 1.733 3.1 5.394.28 7.384-1.268.896-2.702 1.229-4.23 1.22zM6.227 72.53c.055.633.036 1.282.177 1.892.52 2.274 1.568 4.198 3.969 4.915 2.534.758 4.558-.319 6.442-1.938.454-.39.737-1.783 1.71-.782.952.975-.357 1.392-.801 1.859-2.583 2.72-5.776 3.584-9.292 2.358-3.337-1.164-5.139-3.773-5.487-7.27-.34-3.397.721-6.278 3.628-8.262 3.29-2.247 8.282-1.906 10.966.686.672.652 1.17 1.388 1.132 2.375-.024.64-.294 1.153-.912 1.382-.656.245-1.265.128-1.687-.472a7.875 7.875 0 0 1-.653-1.177c-1.405-2.977-4.63-3.623-7.052-1.38-1.699 1.565-2.156 3.601-2.14 5.815zM112.44 67.005c0 3.356-.011 6.711.006 10.067.008 1.883.326 2.249 2.139 2.41.566.049.92.081.903.806-.016.734-.46.636-.903.636-2.354 0-4.711.002-7.066 0-.435 0-.906.12-.928-.625-.019-.717.313-.774.898-.815 1.612-.111 2.009-.488 2.02-2.088.038-6.032.016-12.062.043-18.094.003-.723-.255-.979-.947-.922-.449.036-.906-.01-1.358.009-.463.019-.669-.175-.642-.638.022-.36-.038-.73.501-.788 1.412-.153 2.683-.733 3.976-1.292.757-.327 1.413-.237 1.383.995-.082 3.445-.028 6.894-.028 10.34h.003zM128.953 78.345c.351 1.142-.09 1.723-1.086 2.167-1.233.548-2.474.883-3.813.78-2.458-.194-3.685-1.459-3.721-3.934-.046-3.268-.095-6.54.003-9.805.041-1.32-.31-1.845-1.628-1.605a1.713 1.713 0 0 1-.541.002c-.354-.049-.866.191-.89-.493-.019-.529-.009-.96.656-1.14 2.25-.605 3.217-2.333 3.731-4.424.054-.218.044-.458.117-.668.136-.384.052-.93.765-.89.767.043.555.582.563.98.025 1.27.052 2.544-.008 3.814-.041.853.169 1.24 1.113 1.17 1.081-.082 2.178.024 3.264-.028.729-.035.792.327.797.908.008.575-.16.807-.767.788-1.179-.039-2.357.019-3.536-.022-.648-.022-.874.207-.868.858.024 3.359-.046 6.72.043 10.078.063 2.358 1.593 3.29 3.792 2.437.672-.262 1.301-.627 2.014-.973zM136.615 71.293c0 2.085.04 4.173-.014 6.256-.035 1.316.509 1.943 1.818 1.954.495.006 1.113-.212 1.108.723-.006.957-.651.687-1.13.692-2.218.02-4.436.016-6.657.005-.495-.002-1.092.219-1.081-.722.011-.823.493-.67.975-.703 1.731-.115 2.033-.425 2.038-2.162.011-3.036-.073-6.079.041-9.112.049-1.309-.392-1.63-1.578-1.521-.458.04-1.165.37-1.402-.325-.161-.474-.223-1.101.631-1.186 1.274-.122 2.436-.616 3.593-1.153 1.296-.6 1.649-.327 1.652 1.132.006 2.041 0 4.08 0 6.122h.006zM137.096 57.972c.028 1.076-.849 1.976-1.948 2-1.119.025-1.985-.787-2.028-1.905-.041-1.104.792-1.968 1.921-1.993 1.103-.021 2.028.834 2.055 1.898z" fill="#fff"/><path d="M211.225 24.484l.06 16.873c-1.295.074-2.591.18-3.876-.114.025-4.34.044-8.677.074-13.016.005-.676.052-1.352.079-2.028.601.079.925-.426 1.355-.682.735-.439 1.372-1.052 2.308-1.033zM200.828 38.225c-.021-3.579-.03-7.16-.076-10.74-.008-.706.231-.921.931-.96 2.912-.155 2.937-.176 2.907 2.792-.041 3.67.144 7.338-.093 11.004-1.377-.433-2.702-.95-3.669-2.096z" fill="#fff"/><path d="M211.225 24.484c-.933-.022-1.573.594-2.305 1.033-.427.256-.754.76-1.355.682-.019-.54-.055-1.083-.058-1.622-.008-2.797-.005-2.762 2.741-2.77.83-.002 1.168.205 1.056 1.055-.068.534-.054 1.082-.079 1.622z" fill="#fff"/></svg>