<svg width="3476" height="735" viewBox="0 0 3476 735" fill="none" xmlns="http://www.w3.org/2000/svg"><path d="M3107 10.303c88.68.161 174.13 33.169 239.79 92.62 65.66 59.45 106.84 141.106 115.55 229.125 8.71 88.02-15.67 176.128-68.41 247.233-52.74 71.105-130.08 120.138-217.02 137.585-86.93 17.448-177.27 2.068-253.47-43.158-76.21-45.225-132.86-117.071-158.96-201.6a355.903 355.903 0 0 1 17.69-255.867c37.5-80.153 103.5-143.559 185.22-177.918A357.682 357.682 0 0 1 3107 10.303zM3107 0c-203.8 0-369 164.534-369 367.5S2903.2 735 3107 735s369-164.534 369-367.5S3310.8 0 3107 0z" fill="#fff"/><path d="M3108.08 40.479c80.97.113 159.01 30.22 218.98 84.478 59.97 54.258 97.6 128.8 105.58 209.164 7.99 80.364-14.25 160.821-62.38 225.762-48.13 64.94-118.73 109.735-198.1 125.693-79.37 15.958-161.86 1.941-231.45-39.33-69.6-41.271-121.34-106.855-145.2-184.028a324.973 324.973 0 0 1 16.09-233.627c34.21-73.194 94.46-131.104 169.07-162.495a326.445 326.445 0 0 1 127.41-25.617zm0-10.303c-186.49 0-337.66 150.546-337.66 336.246 0 185.701 151.17 336.247 337.66 336.247 186.49 0 337.67-150.546 337.67-336.247 0-185.7-151.18-336.246-337.67-336.246z" fill="#fff"/><path d="M3107 115.919c62.79.085 123.31 23.429 169.82 65.503 46.51 42.075 75.69 99.88 81.89 162.202 6.19 62.322-11.05 124.717-48.37 175.08-37.32 50.363-92.07 85.104-153.62 97.484-61.55 12.379-125.52 1.513-179.49-30.489-53.98-32.003-94.11-82.86-112.61-142.706a252.032 252.032 0 0 1 12.46-181.178c26.53-56.763 73.25-101.675 131.1-126.023A253.461 253.461 0 0 1 3107 115.94v-.021zm0-10.282c-145.9-.021-264.19 117.708-264.19 262.941 0 145.232 118.29 262.962 264.19 262.962 145.9 0 264.19-117.73 264.19-262.962 0-145.233-118.29-262.962-264.19-262.962v.021z" fill="#fff"/><path d="M2908.33 186.089l-8.58-3.072-10.99 13.181 4.6 7.846-3.45 4.149-20.28-35.274 3.68-4.397 38.47 13.428-3.45 4.139zm-22.1 5.744l8.75-10.508-18.87-6.735 10.12 17.243zM2935.39 159.9l-4.54 4.247-24.56-2.091 12.54 13.331-3.7 3.514-26.13-27.784 3.7-3.459 11.8 12.533-.18-23.407 4.53-4.247.4 25.003 26.14 2.36zM2961.41 140.728l-5.02 3.685-24.14-4.979 10.87 14.679-4.08 2.996-22.69-30.683 4.08-2.996 10.23 13.849 2.61-23.268 5-3.686-2.53 24.917 25.67 5.486zM2958.59 98.46c1.4-.826 2.95-1.363 4.56-1.58 1.61-.216 3.25-.107 4.81.32a12.07 12.07 0 0 1 4.31 2.168 12.014 12.014 0 0 1 3.12 3.672c.83 1.39 1.37 2.933 1.57 4.536.21 1.604.09 3.232-.36 4.786a11.919 11.919 0 0 1-2.18 4.317 12.027 12.027 0 0 1-3.73 3.098l-7.66 4.311 6.72 11.855-4.41 2.5-18.8-33.15 12.05-6.833zm9.73 17.243a7.064 7.064 0 0 0 2.22-1.841c.6-.76 1.04-1.638 1.29-2.577a7.62 7.62 0 0 0-.87-5.712 8.053 8.053 0 0 0-1.96-2.35 6.667 6.667 0 0 0-2.5-1.315 7.309 7.309 0 0 0-2.79-.204c-.99.118-1.95.437-2.82.937l-7.64 4.311 7.43 13.062 7.64-4.311zM2996.43 116.695l16.31-6.919 1.88 4.462-20.99 8.901-14.95-35.057 20.74-8.795 1.88 4.408-16.07 6.811 4.59 10.777L3004.64 95l1.86 4.365-14.82 6.251 4.75 11.079zM3045.96 99.742l3.93-1.077 3.32 11.617-4.89 1.391-1.99-7.016-24.25 6.886 2.01 7.016-4.89 1.38-3.31-11.618 3.24-.905c1.44-3.514 1.35-8.13-.27-13.849l-5.5-19.205 23.46-6.66 9.14 32.04zm-4.89 1.391l-7.84-27.482-13.69 3.944 4.2 14.711c1.58 5.518 1.87 10.037.87 13.558l16.46-4.731zM3080.54 98.966l-3.9-28.139-15.55 30.834-4.05.56-5.26-37.72 5.04-.69 3.91 28.193 15.54-30.887 4.06-.56 5.24 37.72-5.03.69zM3117.67 59.425l.07 4.785-11.29.173.5 33.3-5.07.076-.51-33.301-11.23.172-.08-4.795 27.61-.41zM3121.19 78.253a19.565 19.565 0 0 1 5.89-11.834 19.676 19.676 0 0 1 12.08-5.427c4.53-.363 9.05.852 12.79 3.439a19.62 19.62 0 0 1 7.7 10.746 19.55 19.55 0 0 1-.87 13.184 19.664 19.664 0 0 1-9.05 9.645 19.727 19.727 0 0 1-13.13 1.735 19.665 19.665 0 0 1-11.26-6.96 18.947 18.947 0 0 1-3.58-6.837 18.856 18.856 0 0 1-.57-7.691zm34.27 3.826a14.49 14.49 0 0 0-.39-5.787 14.442 14.442 0 0 0-2.66-5.163 13.817 13.817 0 0 0-4.38-3.745 13.909 13.909 0 0 0-5.53-1.644c-1.94-.26-3.91-.117-5.8.42a14.181 14.181 0 0 0-5.13 2.706 14.613 14.613 0 0 0-3.69 4.482 14.502 14.502 0 0 0-1.65 5.562c-.25 1.937-.12 3.906.39 5.79.52 1.886 1.4 3.65 2.61 5.192 1.2 1.532 2.71 2.8 4.43 3.728 1.72.927 3.61 1.492 5.55 1.66a14.078 14.078 0 0 0 10.86-3.072 14.582 14.582 0 0 0 3.74-4.51 14.408 14.408 0 0 0 1.65-5.62zM3190.46 89.525a10.286 10.286 0 0 1 3.18 4.505c.63 1.815.68 3.778.16 5.626a10.187 10.187 0 0 1-1.82 3.839 10.359 10.359 0 0 1-3.24 2.767 10.93 10.93 0 0 1-4.1 1.354c-1.44.176-2.9.064-4.3-.33l-15.98-4.138 9.6-36.88 14.82 3.837c1.36.32 2.65.91 3.79 1.735 1.13.826 2.09 1.87 2.81 3.072a10.085 10.085 0 0 1 1.41 3.862c.2 1.37.11 2.768-.27 4.102a9.046 9.046 0 0 1-2.14 4.13 9.007 9.007 0 0 1-3.92 2.52zm-8.96 13.17c.8.213 1.63.257 2.45.129.76-.134 1.49-.4 2.16-.786a5.998 5.998 0 0 0 1.73-1.574c.5-.672.87-1.438 1.08-2.252a5.92 5.92 0 0 0-.65-4.666c-.38-.7-.9-1.31-1.53-1.795a5.71 5.71 0 0 0-2.13-1.019l-11.05-2.855-3.11 11.962 11.05 2.856zm-3.82-30.564l-2.95 11.327 9.88 2.554c.74.198 1.52.234 2.28.108a6.25 6.25 0 0 0 2.05-.733 5.425 5.425 0 0 0 1.62-1.476c.48-.645.82-1.377 1.01-2.156a5.37 5.37 0 0 0 .15-2.255 5.595 5.595 0 0 0-.75-2.131 5.306 5.306 0 0 0-1.41-1.717 5.33 5.33 0 0 0-2-.977l-9.88-2.544zM3220.08 121.372l.31-9.085-15.95-6.391-6.13 6.779-5.01-2.015 27.47-30.047 5.3 2.156-1.08 40.651-4.91-2.048zm-12.25-19.215l12.71 5.097.64-19.98-13.35 14.883zM3268.55 104.031l4.42 2.501-18.87 33.139-4.41-2.5 8.48-14.915-16.14-9.096-8.48 14.915-4.41-2.5 18.88-33.172 4.42 2.5-8 14.01 16.13 9.139 7.98-14.021zM3302.88 128.248l4.03 3.071-23.23 30.23-3.99-3.125 10.47-13.579-14.78-11.209-10.43 13.623-4.04-3.072 23.19-30.273 4.04 3.072-9.87 12.825 14.75 11.229 9.86-12.792zM3289.97 166.776l27.4-26.555 3.54 3.632-9.79 9.484 6.14 6.305a12.217 12.217 0 0 1 3.48 8.711c-.04 3.25-1.37 6.35-3.71 8.618a12.299 12.299 0 0 1-8.73 3.476 12.29 12.29 0 0 1-8.64-3.702l-9.69-9.969zm6.95.334l6.12 6.283a7.246 7.246 0 0 0 2.45 1.681 7.14 7.14 0 0 0 2.72.582 6.81 6.81 0 0 0 2.77-.56 7.91 7.91 0 0 0 2.56-1.714 8.064 8.064 0 0 0 1.78-2.489c.41-.86.63-1.797.64-2.748a6.948 6.948 0 0 0-.5-2.738 7.171 7.171 0 0 0-1.62-2.489l-6.12-6.283-10.8 10.475zm14.05 21.166l27.4-26.544 3.53 3.632-27.43 26.544-3.5-3.632zM3333.44 217.601l23.13-16.586-34.57.679-2.39-3.319 31.01-22.234 2.96 4.107-23.17 16.618 34.62-.722 2.39 3.308-31.01 22.244-2.97-4.095zm24.59-38.151l3.37-2.414 8.65 11.93-3.37 2.414-8.65-11.93zM3363.63 263.813l1.73 3.697-10.99 5.151-2.16-4.591 6.63-3.071-10.62-22.805-6.63 3.072-2.16-4.591 10.97-5.098 1.41 3.018c3.7.883 8.26.072 13.67-2.436l18.11-8.385 10.29 22.007-30.25 14.032zm-2.16-4.591l25.98-12.038-5.99-12.879-13.91 6.467c-5.21 2.428-9.65 3.423-13.3 2.985l7.22 15.465zM3368.87 278.492l5.4 16.834-4.57 1.465-6.98-21.662 36.37-11.65 6.89 21.404-4.53 1.465-5.4-16.586-11.17 3.578 4.92 15.293-4.52 1.444-4.88-15.26-11.53 3.675zM3411.42 308.851c.36 1.59.39 3.236.09 4.837a12.135 12.135 0 0 1-1.85 4.474 12.502 12.502 0 0 1-7.86 5.175c-3.2.636-6.52.001-9.25-1.769a11.95 11.95 0 0 1-3.43-3.423c-.9-1.363-1.5-2.893-1.78-4.498l-1.73-8.622-13.34 2.673-1.08-4.968 37.51-7.437 2.72 13.558zm-19.45 3.847c.17.958.53 1.871 1.06 2.682a7.135 7.135 0 0 0 2.05 2.028 7.722 7.722 0 0 0 5.71.97 8.15 8.15 0 0 0 2.85-1.132 6.627 6.627 0 0 0 2.03-1.95c.54-.806.92-1.711 1.1-2.662.19-.951.18-1.929-.02-2.878l-1.71-8.621-14.77 2.953 1.7 8.61zM3379.71 374.355l-.34-5.766 17.45-15.465-18.29 1.077-.3-5.054 18.3-1.078-19.15-13.32-.33-5.712 20.39 14.075 17.77-15.757.34 5.702-16.68 14.883 17.49-1.078.29 5.055-17.48 1.077 18.3 12.825.34 5.766-19.45-13.644-18.65 16.414zM3376.53 405.026l8.82-2.285 1.61-17.071-8.21-3.89.51-5.389 36.74 17.707-.54 5.69-39.37 10.573.44-5.335zm14.99-17.179l-1.28 13.601 19.45-5.065-18.17-8.536zM3407.94 443.694l-4.7-.959 2.26-11.036-32.7-6.692 1.01-4.969 32.69 6.736 2.27-10.982 4.7.959-5.53 26.943zM3372.07 447.068l-5.4 16.844-4.57-1.465 6.93-21.663 36.36 11.651-6.89 21.403-4.57-1.466 5.36-16.575-11.16-3.578-4.93 15.282-4.52-1.444 4.93-15.293-11.54-3.696zM3365.53 467.124a6.873 6.873 0 0 0-1.18 3.05 4.763 4.763 0 0 0 .71 2.942 10.1 10.1 0 0 0 2.86 2.877 32.696 32.696 0 0 0 5.29 2.953l19.6 9.096-10.57 22.794-34.64-16.026 2.16-4.591 30.25 14.01 6.31-13.611-15.3-7.081a31.424 31.424 0 0 1-7.38-4.494 12.696 12.696 0 0 1-3.57-4.591 8.053 8.053 0 0 1-.53-4.623c.31-1.64.92-3.21 1.79-4.634l4.2 1.929zM3356.84 526.732a12.072 12.072 0 0 1-3.28 3.561 12.112 12.112 0 0 1-4.42 1.979 12.277 12.277 0 0 1-12.87-4.882 12.229 12.229 0 0 1-2.22-6.835c-.03-2.449.67-4.851 2.02-6.895l7.43-11.715 32.28 20.347-2.71 4.311-11.53-7.264-4.7 7.393zm-16.74-10.572c-.54.84-.91 1.782-1.08 2.77-.16.922-.13 1.867.08 2.78.2.927.61 1.799 1.19 2.554a7.88 7.88 0 0 0 2.27 2.069c.81.541 1.73.915 2.7 1.1.96.185 1.95.178 2.91-.022a6.874 6.874 0 0 0 2.68-1.115c.8-.558 1.47-1.28 1.97-2.118l4.7-7.415-12.74-8.018-4.68 7.415zM3303.51 554.472l3.4-3.61 3.18 2.985c4.02-3.693 8.11-5.848 12.25-6.466a13.796 13.796 0 0 1 14.38 8.519c.75 1.855 1.08 3.85.97 5.847-.38 4.16-2.3 8.36-5.75 12.599l3.18 2.985-3.4 3.61-3.24-2.985c-4.07 3.743-8.15 5.899-12.24 6.466-1.99.238-4 .039-5.9-.582a13.596 13.596 0 0 1-5.09-3.016 13.58 13.58 0 0 1-3.34-4.882 13.523 13.523 0 0 1-.95-5.832c.33-4.11 2.24-8.309 5.75-12.598l-3.2-3.04zm6.48 6.111c-2.64 3.226-4.1 6.251-4.4 9.074a9.926 9.926 0 0 0 .7 4.105 9.69 9.69 0 0 0 2.37 3.433 9.64 9.64 0 0 0 3.59 2.129c1.33.442 2.75.589 4.15.432 2.81-.475 5.74-2.116 8.79-4.925l-15.2-14.248zm19.88-5.927a8.602 8.602 0 0 0-3.52-2.239 8.69 8.69 0 0 0-4.17-.326c-2.8.488-5.71 2.13-8.75 4.925l15.12 14.204c2.62-3.211 4.06-6.225 4.33-9.042a8.663 8.663 0 0 0-.56-4.123 8.707 8.707 0 0 0-2.4-3.399h-.05zM3299.88 609.565a12.286 12.286 0 0 1-4.25 2.205 12.308 12.308 0 0 1-9.34-1.02 12.334 12.334 0 0 1-3.67-3.071 12.198 12.198 0 0 1-2.21-4.237 12.342 12.342 0 0 1-.42-4.759c.18-1.598.67-3.146 1.44-4.556a12.432 12.432 0 0 1 3.08-3.659l6.86-5.496-8.53-10.616 3.96-3.168 23.88 29.712-10.8 8.665zm-12.41-15.422a7.02 7.02 0 0 0-1.89 2.174 6.873 6.873 0 0 0-.86 2.751 7.585 7.585 0 0 0 1.77 5.496c.64.81 1.42 1.493 2.31 2.016.82.482 1.74.787 2.68.894a7.339 7.339 0 0 0 5.41-1.616l6.85-5.486-9.44-11.715-6.83 5.486zM3243.36 602.226l7.21 5.539 14.5-9.203-1.93-8.87 4.55-2.888 8.42 39.756-4.84 3.072-32.52-24.518 4.61-2.888zm22.79 1.271l-11.56 7.329 15.91 12.167-4.35-19.496zM3229.3 651.606l-4.6 2.156-16.05-34.573 4.62-2.156 7.2 15.584 16.85-7.77-7.22-15.551 4.6-2.156 16.05 34.573-4.61 2.155-6.77-14.699-16.88 7.759 6.81 14.678zM3174.17 669.443l-4.9 1.347-10.12-36.739 42-11.51 10.12 36.739-4.9 1.358-8.85-32.127-13.68 3.751 8.85 32.115-4.9 1.348-8.85-32.116-13.62 3.729 8.85 32.105zM3127.33 637.392l2.9 28.268 16.62-30.273 4.07-.42 3.92 37.892-5.05.517-2.93-28.311-16.63 30.327-4.07.42-3.92-37.892 5.09-.528zM3095.53 657.405a10.314 10.314 0 0 1-4.55-3.686 9.788 9.788 0 0 1-1.6-5.658c-.02-1.528.31-3.041.96-4.422a10.037 10.037 0 0 1 2.83-3.542 16.994 16.994 0 0 1 18.58-.496 12.98 12.98 0 0 1 4.67 6.348l-4.32 2.414c-1.09-4.311-4.17-6.467-9.23-6.467a9.6 9.6 0 0 0-6.18 1.714 5.833 5.833 0 0 0-1.67 2.081 5.86 5.86 0 0 0-.55 2.607c-.04.891.12 1.781.47 2.603.35.822.87 1.557 1.54 2.15a8.4 8.4 0 0 0 5.69 1.843h4.47v4.58h-3.24c-2-.123-3.99.473-5.59 1.681a5.71 5.71 0 0 0-1.61 1.995 5.678 5.678 0 0 0-.55 2.499c-.03.843.12 1.683.45 2.46.33.777.82 1.472 1.45 2.034a7.854 7.854 0 0 0 5.41 1.735c4.22 0 7.06-1.846 8.5-5.539l4.24 2.489c-2.34 5.238-6.6 7.835-12.78 7.792-3.25.117-6.43-1-8.89-3.125a9.883 9.883 0 0 1-2.58-3.501 9.657 9.657 0 0 1-.83-4.269 9.038 9.038 0 0 1 1.26-4.864 9.103 9.103 0 0 1 3.65-3.456zM3053.72 632.617l-5.97 37.634-5.01-.798 5.97-37.622 5.01.786zm29.7 4.688l-5.97 37.634-5.02-.797 2.16-13.44-8.71-1.368a12.004 12.004 0 0 1-4.57-1.596 11.913 11.913 0 0 1-3.56-3.275 12.429 12.429 0 0 1-2.14-9.176c.51-3.22 2.25-6.114 4.87-8.068a12.005 12.005 0 0 1 9.24-2.069l13.7 2.155zm-5.76 3.891l-8.64-1.369c-.99-.171-2-.134-2.97.108-.92.225-1.78.62-2.54 1.164a6.89 6.89 0 0 0-1.87 2.101 8.576 8.576 0 0 0-.95 5.971c.18.923.54 1.8 1.08 2.576a7.246 7.246 0 0 0 2.05 1.896c.85.526 1.8.871 2.79 1.013l8.64 1.38 2.41-14.84zM2979.74 648.05l-4.73-1.983 22.62-22.071a15.652 15.652 0 0 1 7.65-4.516c2.73-.478 5.54-.026 7.99 1.283l-1.83 4.31a7.97 7.97 0 0 0-5.07-1.153 9.013 9.013 0 0 0-4.7 2.716l-.69.658 1.29 30.176-4.74-1.983-.87-23.947-16.92 16.51zM2948.47 631.356l-4.41-2.511 19.03-33.042 4.39 2.522-7.66 13.309c3.24.24 6.39 1.205 9.2 2.824 2.92 1.5 5.16 4.061 6.26 7.156a10.546 10.546 0 0 1-1.09 8.783l-6.79 11.801-4.4-2.522 6.63-11.51c.5-.775.82-1.645.95-2.553.13-.908.07-1.834-.18-2.717a7.655 7.655 0 0 0-3.81-4.311 21.403 21.403 0 0 0-9.14-2.791l-8.98 15.562zM2949.38 592.02l-14.24-10.54 2.85-3.847 18.37 13.557-22.78 30.65-18.1-13.385 2.85-3.847 14.05 10.367 6.99-9.397-12.96-9.56 2.82-3.804 12.96 9.559 7.19-9.753zM2889.41 585.069l3.25-3.524 8.29 7.652 22.69-24.475 3.73 3.438-22.69 24.464 8.26 7.608-3.24 3.524-20.29-18.687zM3109.7 151.623c53.8.089 105.65 20.106 145.5 56.17 39.84 36.064 64.83 85.603 70.12 139.006 5.3 53.403-9.49 106.864-41.48 150.01-31.99 43.145-78.91 72.901-131.66 83.494-52.74 10.592-107.55 1.267-153.79-26.167-46.25-27.435-80.62-71.023-96.46-122.307a215.98 215.98 0 0 1 10.72-155.243c22.75-48.633 62.79-87.107 112.37-107.956a217.093 217.093 0 0 1 84.68-17.007zm0-15.831c-128.9 0-233.4 103.977-233.4 232.247 0 128.269 104.5 232.247 233.4 232.247 128.89 0 233.39-103.978 233.39-232.247 0-128.27-104.5-232.247-233.39-232.247zM1311.72 609.727v30.956h-35.61v-30.956c-39.41-2.906-70.86-13.594-94.36-32.064a92.425 92.425 0 0 1-26.74-33.784 92.352 92.352 0 0 1-8.5-42.237 92.333 92.333 0 0 1 8.51-42.201 92.4 92.4 0 0 1 26.73-33.748c23.7-18.519 55.15-29.207 94.36-32.063v-30.956h35.61v30.956c39.7 2.807 71.18 13.495 94.43 32.063a91.872 91.872 0 0 1 35.61 75.949 92.026 92.026 0 0 1-35.61 76.021c-23.3 18.47-54.77 29.158-94.43 32.064zM1206.8 448.965a63.28 63.28 0 0 0-18.71 23.344 63.27 63.27 0 0 0-5.89 29.333 62.735 62.735 0 0 0 5.88 29.237 62.75 62.75 0 0 0 18.72 23.217c16.16 12.461 39.26 19.849 69.31 22.164V426.876c-30 2.068-53.1 9.431-69.31 22.089zm104.92-22.163V576.26c30-2.143 53.13-9.457 69.31-22.164a63.179 63.179 0 0 0 24.31-52.676 63.299 63.299 0 0 0-5.76-29.29 63.265 63.265 0 0 0-18.55-23.386c-16.16-12.461-39.26-19.751-69.31-21.868v-.074zM1586.22 437.81a93.911 93.911 0 0 1 70.12 30.142 106.527 106.527 0 0 1 28.97 73.03c0 27.145-10.36 53.267-28.97 73.03a93.373 93.373 0 0 1-31.91 22.247 93.332 93.332 0 0 1-38.21 7.305 83.065 83.065 0 0 1-42.16-9.408 83.115 83.115 0 0 1-31.73-29.305V717h-34.06V443.277h34.06v33.689a82.856 82.856 0 0 1 31.65-29.576 82.889 82.889 0 0 1 42.24-9.58zm-4.28 173.099a67.083 67.083 0 0 0 26.74-4.869 67.16 67.16 0 0 0 22.61-15.078 69.927 69.927 0 0 0 15.02-23.079 69.916 69.916 0 0 0 4.93-27.085 67.585 67.585 0 0 0-4.83-26.924 67.547 67.547 0 0 0-15.12-22.797 70.558 70.558 0 0 0-49.54-20.314 70.558 70.558 0 0 0-49.54 20.314 67.547 67.547 0 0 0-15.12 22.797 67.585 67.585 0 0 0-4.83 26.924 69.916 69.916 0 0 0 4.93 27.085 69.927 69.927 0 0 0 15.02 23.079 67.55 67.55 0 0 0 49.73 19.947zM1888.19 476.596v-33.319h34.06v195.78h-34.06v-33.984a82.555 82.555 0 0 1-31.7 29.366 82.604 82.604 0 0 1-42.19 9.346 93.316 93.316 0 0 1-70.12-29.551 106.527 106.527 0 0 1-28.97-73.03c0-27.145 10.36-53.267 28.97-73.03a94.04 94.04 0 0 1 31.87-22.503 94.042 94.042 0 0 1 38.25-7.64 82.493 82.493 0 0 1 42.18 9.261 82.497 82.497 0 0 1 31.71 29.304zm-69.75 134.313a67.471 67.471 0 0 0 49.73-19.947 69.833 69.833 0 0 0 15.07-23.063 69.63 69.63 0 0 0 4.95-27.102 68.925 68.925 0 0 0-4.98-26.92 68.86 68.86 0 0 0-15.08-22.853 68.781 68.781 0 0 0-22.79-15.172 68.83 68.83 0 0 0-26.9-5.092 66.527 66.527 0 0 0-26.77 5.004 66.501 66.501 0 0 0-22.51 15.313 67.33 67.33 0 0 0-15.18 22.781 67.488 67.488 0 0 0-4.85 26.939 69.657 69.657 0 0 0 20.03 50.238 66.953 66.953 0 0 0 22.58 15.036 66.951 66.951 0 0 0 26.7 4.838zM2109.41 524.544v-81.268h34.06v195.781h-34.06v-82.154h-101.38v81.785h-34.13V443.276h34.13v81.268h101.38zM2429.34 606.181V443.276h34.06v195.781h-268.21V443.276h34.06V606.55h83.42V443.276h34.07V606.55l82.6-.369zM2549.11 580.397l108.54-137.121h27.41v195.781h-33.69V501.272L2542.9 638.688h-27.41V443.276h33.62v137.121zM2842.53 538.507c21.67 9.112 32.51 24.626 32.51 46.544a52.44 52.44 0 0 1-5.09 23.399 52.436 52.436 0 0 1-14.94 18.712c-13.3 11.082-31.69 16.623-55.19 16.623-39.16 0-65.39-15.662-78.69-46.987l28.59-16.845c7.24 21.425 24.07 32.138 50.47 32.138a49.389 49.389 0 0 0 30.15-8.201 26.132 26.132 0 0 0 11-22.164c.1-3.667-.65-7.306-2.19-10.637a23.975 23.975 0 0 0-6.67-8.571 35.41 35.41 0 0 0-23.65-7.388h-28.59v-30.586h21.13a34.002 34.002 0 0 0 23.13-7.388 25.205 25.205 0 0 0 8.2-19.8c.14-3.954-.67-7.885-2.37-11.459a24.719 24.719 0 0 0-7.38-9.079 41.615 41.615 0 0 0-26.23-7.388c-21.92 0-36.82 9.284-44.71 27.852l-27.78-16.106c13.84-28.665 38.01-43.022 72.49-43.071a75.145 75.145 0 0 1 50.31 16.253 51.545 51.545 0 0 1 14.13 18.152 51.648 51.648 0 0 1 4.86 22.482c.45 8.71-1.5 17.375-5.65 25.049a47.525 47.525 0 0 1-17.84 18.466z" fill="#fff"/><path d="M3073.72 476.596v-33.319h34.06v195.78h-34.06v-33.984a82.555 82.555 0 0 1-31.7 29.366 82.582 82.582 0 0 1-42.19 9.346 93.46 93.46 0 0 1-38.2-7.318 93.566 93.566 0 0 1-31.92-22.233 106.527 106.527 0 0 1-28.97-73.03c0-27.145 10.36-53.267 28.97-73.03a94.062 94.062 0 0 1 70.12-30.364 82.478 82.478 0 0 1 42.22 9.357 82.486 82.486 0 0 1 31.67 29.429zm-69.45 134.313a67.683 67.683 0 0 0 26.92-4.844 67.622 67.622 0 0 0 22.8-15.103 69.898 69.898 0 0 0 14.9-23.104 69.943 69.943 0 0 0 4.83-27.061 68.706 68.706 0 0 0-4.95-26.915 68.83 68.83 0 0 0-37.83-38.029 68.833 68.833 0 0 0-26.89-5.093 66.502 66.502 0 0 0-49.36 20.317 67.64 67.64 0 0 0-20.03 49.72 69.971 69.971 0 0 0 5.07 27.158 69.928 69.928 0 0 0 15.18 23.08 67.178 67.178 0 0 0 22.62 15.039 67.123 67.123 0 0 0 26.74 4.835z" fill="#fff"/><path fill-rule="evenodd" clip-rule="evenodd" d="M1140.67 143.917c19.36-25.71 28.67-70.038 13.6-143.917-190.187 29.552-149.4 132.318-131.22 164.456a657.529 657.529 0 0 1 98.41-119.094A725.606 725.606 0 0 0 1056 161.427c25.64-29.552 55.71-31.104 84.67-17.51zm59.85 60.286c-83.34 93.974-128.04 41.963-144.67 13.741a221.735 221.735 0 0 1 80.39-11.082 247.336 247.336 0 0 0-85.04-10.712c10.12-24.306 51.79-96.043 149.32 8.053z" fill="#85BC22"/><path fill-rule="evenodd" clip-rule="evenodd" d="M1020.98 196.076H57.558A57.551 57.551 0 0 0 0 253.628v374.347a57.558 57.558 0 0 0 57.558 57.552h905.86a57.568 57.568 0 0 0 40.702-16.857 57.567 57.567 0 0 0 16.86-40.695V196.076zM606.982 303.497h-25.048v25.045h25.048v-25.045zm-321.558 0l-62.213 156.92-70.045-156.92h-39.973l92.138 200.139c-15.295 35.315-28.595 43.737-44.333 43.737-11.526.222-15.738-.887-48.027-10.343v31.546c16.5 6.32 34.055 9.43 51.721 9.161 34.063-1.329 52.46-15.957 66.499-48.982l95.61-225.258h-41.377zm174.522 274.24h34.506V376.785h-34.506v98.186a181.373 181.373 0 0 1-46.475 5.984c-28.446 0-43.224-13.076-43.224-43.071v-61.099h-34.358v59.695c.444 49.351 29.186 74.323 77.582 74.323a181.418 181.418 0 0 0 46.475-5.985v72.919zm76.326-101.14c0 58.881 31.181 101.14 95.61 101.14 34.974 0 61.327-12.485 79.06-37.456l-22.166-15.737a68.27 68.27 0 0 1-55.785 25.045 62.506 62.506 0 0 1-64.947-62.723h145.188c0-57.257-13.669-109.933-85.783-109.933-57.854 0-91.177 47.948-91.177 99.664zm32.954-16.845c3.842-29.33 24.604-55.705 58.223-55.705 33.693 0 54.012 25.636 54.012 55.705H569.226zm271.093-55.04h67.385l-.369-.148v-27.779H739.462v27.927h66.499v173.025h34.358V404.712zM667.865 303.719h-25.047v25.045h25.047v-25.045z" fill="#fff"/></svg>