<svg width="120" height="120" viewBox="0 0 120 120" fill="none" xmlns="http://www.w3.org/2000/svg"><path d="M110.625 77.813V28.124c0-5.17-4.206-9.375-9.375-9.375h-6.094v4.688a4.687 4.687 0 1 1-9.375 0V18.75H64.453v4.688a4.687 4.687 0 1 1-9.375 0V18.75H33.984v4.688a4.687 4.687 0 1 1-9.375 0V18.75H18.75c-5.17 0-9.375 4.206-9.375 9.375v7.031h87.188a4.687 4.687 0 1 1 0 9.375H9.374v56.719c0 5.169 4.206 9.375 9.375 9.375h82.5c5.169 0 9.375-4.206 9.375-9.375a4.687 4.687 0 1 1 9.375 0c0 10.339-8.411 18.75-18.75 18.75h-82.5C8.41 120 0 111.589 0 101.25V28.125c0-10.34 8.41-18.75 18.75-18.75h5.86V4.687a4.687 4.687 0 1 1 9.374 0v4.688h21.094V4.687a4.687 4.687 0 1 1 9.375 0v4.688h21.328V4.687a4.687 4.687 0 1 1 9.375 0v4.688h6.094c10.339 0 18.75 8.41 18.75 18.75v49.688a4.687 4.687 0 1 1-9.375 0z" fill="#04664A"/><path d="M28.509 93.431V67.397L22.56 68.82 21 62.845 30.8 60h5.12v33.431h-7.411zM55.27 94c-4.94 0-9.199-1.66-12.774-4.98l4.534-5.263c2.73 2.403 5.445 3.604 8.143 3.604 1.788 0 3.185-.41 4.193-1.233 1.008-.822 1.511-1.975 1.511-3.461 0-1.391-.552-2.482-1.657-3.272-1.105-.822-2.568-1.233-4.389-1.233-1.82 0-3.721.41-5.704 1.233l-4.34-2.798.976-16.36h20.965v6.402h-14.53l-.39 5.738c1.56-.38 3.056-.57 4.486-.57 3.543 0 6.42.886 8.63 2.656 2.21 1.77 3.316 4.458 3.316 8.061 0 3.51-1.187 6.307-3.56 8.394C62.34 92.973 59.203 94 55.27 94zM83.251 88.547V80.01h-8.825v-6.544h8.825v-8.535h6.924v8.535H99v6.544h-8.825v8.536H83.25z" fill="#04664A"/></svg>