<svg width="120" height="120" viewBox="0 0 120 120" fill="none" xmlns="http://www.w3.org/2000/svg"><path fill-rule="evenodd" clip-rule="evenodd" d="M120 81.21c0-17.49-11.786-32.772-28.405-37.377C90.55 19.486 70.42 0 45.82 0 20.555 0 0 20.555 0 45.82a45.677 45.677 0 0 0 6.354 23.29L.168 91.471l22.362-6.184a45.65 45.65 0 0 0 21.302 6.306C48.436 108.214 63.719 120 81.21 120a38.65 38.65 0 0 0 19.737-5.392l18.883 5.223-5.223-18.883A38.65 38.65 0 0 0 120 81.211zm-96.36-3.526l-13.387 3.704L13.956 68l-.844-1.32a38.659 38.659 0 0 1-6.08-20.86c0-21.39 17.4-38.79 38.788-38.79 21.389 0 38.79 17.4 38.79 38.79 0 21.388-17.401 38.788-38.79 38.788a38.66 38.66 0 0 1-20.86-6.08l-1.32-.845zm86.107 32.063l-9.933-2.748-1.327.863a31.634 31.634 0 0 1-17.276 5.107c-13.748 0-25.828-8.889-30.108-21.635 21.051-2.427 37.804-19.18 40.232-40.232 12.745 4.281 21.634 16.361 21.634 30.109a31.634 31.634 0 0 1-5.107 17.276l-.863 1.327 2.748 9.933zM49.336 63.516v7.03h-7.031v-7.03h7.03zm1.227-23.17a6.959 6.959 0 0 0 2.289-5.19 7.039 7.039 0 0 0-7.032-7.031 7.039 7.039 0 0 0-7.03 7.031h-7.032c0-7.754 6.308-14.062 14.062-14.062 7.755 0 14.063 6.308 14.063 14.062 0 3.936-1.667 7.718-4.573 10.378L49.336 51v5.483h-7.031v-8.579l8.258-7.559z" fill="#04664A"/></svg>