<svg width="204" height="255" viewBox="0 0 204 255" fill="none" xmlns="http://www.w3.org/2000/svg"><mask id="a" maskUnits="userSpaceOnUse" x=".248" y="0" width="204" height="255" fill="#000"><path fill="#fff" d="M.248 0h204v255h-204z"/><path d="M199.522 104.88c5.038-7.68 4.107-17.673-2.262-24.301a12.177 12.177 0 0 1-3.14-10.98c1.91-8.973-2.584-17.957-10.93-21.848a12.223 12.223 0 0 1-6.913-9.11c-1.476-9.053-8.928-15.814-18.122-16.442a12.28 12.28 0 0 1-9.753-6.01c-4.663-7.91-14.063-11.536-22.866-8.816a12.32 12.32 0 0 1-11.275-2.098 19.72 19.72 0 0 0-24.522 0 12.318 12.318 0 0 1-11.275 2.098c-8.801-2.72-18.204.905-22.867 8.816a12.28 12.28 0 0 1-9.752 6.01c-9.194.628-16.646 7.39-18.123 16.443a12.222 12.222 0 0 1-6.912 9.11c-8.345 3.89-12.84 12.874-10.931 21.847a12.177 12.177 0 0 1-3.139 10.98c-6.369 6.629-7.3 16.622-2.262 24.302a12.165 12.165 0 0 1 1.058 11.368c-3.534 8.47-.774 18.123 6.71 23.474a12.193 12.193 0 0 1 5.113 10.219c-.22 9.169 5.857 17.178 14.778 19.477a12.267 12.267 0 0 1 6.56 4.263L18.18 222.979c-2.875 6.908 3.633 14.022 10.809 11.83l22.462-6.861a1.438 1.438 0 0 1 1.686.696l11.009 20.659c3.521 6.608 13.176 6.142 16.047-.759l21.385-51.381c.281-.009.561-.009.842 0l21.384 51.381c2.878 6.912 12.531 7.358 16.049.759l11.009-20.659a1.435 1.435 0 0 1 1.685-.695l22.462 6.86c7.18 2.194 13.683-4.925 10.809-11.83L165.3 173.682a12.273 12.273 0 0 1 6.561-4.263c8.921-2.298 14.998-10.307 14.778-19.476a12.194 12.194 0 0 1 5.113-10.219c7.485-5.351 10.244-15.004 6.71-23.475a12.177 12.177 0 0 1 1.06-11.369zM73.315 245.707c-.468 1.122-2.02 1.191-2.59.122L59.718 225.17c-1.992-3.737-6.386-5.547-10.449-4.307l-22.462 6.86c-1.166.355-2.21-.787-1.744-1.908l18.202-43.738c4.107 5.599 10.973 8.719 18.2 7.879a12.307 12.307 0 0 1 10.696 4.124 19.686 19.686 0 0 0 14.865 6.777c1.757 0 3.524-.244 5.257-.723l-18.968 45.573zm103.88-17.984l-22.462-6.861c-4.063-1.24-8.458.571-10.449 4.308l-11.009 20.659c-.568 1.068-2.122.998-2.589-.123l-18.964-45.564a19.692 19.692 0 0 0 20.119-6.063 12.301 12.301 0 0 1 10.695-4.124c7.235.842 14.096-2.28 18.2-7.879l18.204 43.737c.468 1.125-.583 2.263-1.745 1.91zm16.092-126.894a19.54 19.54 0 0 0-1.7 18.26c2.199 5.273.482 11.282-4.178 14.614a19.59 19.59 0 0 0-8.213 16.415c.137 5.708-3.646 10.694-9.2 12.125a19.696 19.696 0 0 0-12.173 9.254l-.021.039a19.47 19.47 0 0 0-1.422 3.061c-1.944 5.371-7.278 8.663-12.979 7.998a19.764 19.764 0 0 0-17.182 6.625 12.273 12.273 0 0 1-15.006 2.792 19.728 19.728 0 0 0-5.418-1.901l-.046-.01a19.774 19.774 0 0 0-7.504.002l-.027.005c-1.87.364-3.7.995-5.43 1.904a12.271 12.271 0 0 1-15.005-2.792 19.751 19.751 0 0 0-17.182-6.624c-5.696.663-11.036-2.627-12.98-7.999a19.628 19.628 0 0 0-1.42-3.058l-.026-.046a19.698 19.698 0 0 0-12.17-9.25c-5.554-1.431-9.337-6.417-9.2-12.125a19.59 19.59 0 0 0-8.213-16.415c-4.659-3.331-6.377-9.341-4.177-14.614a19.541 19.541 0 0 0-1.7-18.26c-3.136-4.78-2.557-11.002 1.409-15.128a19.56 19.56 0 0 0 5.042-17.638c-1.189-5.586 1.61-11.178 6.805-13.6a19.634 19.634 0 0 0 11.104-14.635c.919-5.636 5.558-9.845 11.281-10.235a19.725 19.725 0 0 0 15.666-9.654c2.903-4.925 8.758-7.181 14.235-5.488a19.79 19.79 0 0 0 18.112-3.37 12.276 12.276 0 0 1 15.266 0 19.788 19.788 0 0 0 18.112 3.37c5.478-1.693 11.332.564 14.234 5.488a19.728 19.728 0 0 0 15.666 9.654c5.723.39 10.363 4.6 11.282 10.235a19.633 19.633 0 0 0 11.104 14.635c5.195 2.422 7.993 8.014 6.804 13.6a19.557 19.557 0 0 0 5.043 17.638c3.963 4.126 4.542 10.347 1.407 15.128z"/></mask><path d="M199.522 104.88c5.038-7.68 4.107-17.673-2.262-24.301a12.177 12.177 0 0 1-3.14-10.98c1.91-8.973-2.584-17.957-10.93-21.848a12.223 12.223 0 0 1-6.913-9.11c-1.476-9.053-8.928-15.814-18.122-16.442a12.28 12.28 0 0 1-9.753-6.01c-4.663-7.91-14.063-11.536-22.866-8.816a12.32 12.32 0 0 1-11.275-2.098 19.72 19.72 0 0 0-24.522 0 12.318 12.318 0 0 1-11.275 2.098c-8.801-2.72-18.204.905-22.867 8.816a12.28 12.28 0 0 1-9.752 6.01c-9.194.628-16.646 7.39-18.123 16.443a12.222 12.222 0 0 1-6.912 9.11c-8.345 3.89-12.84 12.874-10.931 21.847a12.177 12.177 0 0 1-3.139 10.98c-6.369 6.629-7.3 16.622-2.262 24.302a12.165 12.165 0 0 1 1.058 11.368c-3.534 8.47-.774 18.123 6.71 23.474a12.193 12.193 0 0 1 5.113 10.219c-.22 9.169 5.857 17.178 14.778 19.477a12.267 12.267 0 0 1 6.56 4.263L18.18 222.979c-2.875 6.908 3.633 14.022 10.809 11.83l22.462-6.861a1.438 1.438 0 0 1 1.686.696l11.009 20.659c3.521 6.608 13.176 6.142 16.047-.759l21.385-51.381c.281-.009.561-.009.842 0l21.384 51.381c2.878 6.912 12.531 7.358 16.049.759l11.009-20.659a1.435 1.435 0 0 1 1.685-.695l22.462 6.86c7.18 2.194 13.683-4.925 10.809-11.83L165.3 173.682a12.273 12.273 0 0 1 6.561-4.263c8.921-2.298 14.998-10.307 14.778-19.476a12.194 12.194 0 0 1 5.113-10.219c7.485-5.351 10.244-15.004 6.71-23.475a12.177 12.177 0 0 1 1.06-11.369zM73.315 245.707c-.468 1.122-2.02 1.191-2.59.122L59.718 225.17c-1.992-3.737-6.386-5.547-10.449-4.307l-22.462 6.86c-1.166.355-2.21-.787-1.744-1.908l18.202-43.738c4.107 5.599 10.973 8.719 18.2 7.879a12.307 12.307 0 0 1 10.696 4.124 19.686 19.686 0 0 0 14.865 6.777c1.757 0 3.524-.244 5.257-.723l-18.968 45.573zm103.88-17.984l-22.462-6.861c-4.063-1.24-8.458.571-10.449 4.308l-11.009 20.659c-.568 1.068-2.122.998-2.589-.123l-18.964-45.564a19.692 19.692 0 0 0 20.119-6.063 12.301 12.301 0 0 1 10.695-4.124c7.235.842 14.096-2.28 18.2-7.879l18.204 43.737c.468 1.125-.583 2.263-1.745 1.91zm16.092-126.894a19.54 19.54 0 0 0-1.7 18.26c2.199 5.273.482 11.282-4.178 14.614a19.59 19.59 0 0 0-8.213 16.415c.137 5.708-3.646 10.694-9.2 12.125a19.696 19.696 0 0 0-12.173 9.254l-.021.039a19.47 19.47 0 0 0-1.422 3.061c-1.944 5.371-7.278 8.663-12.979 7.998a19.764 19.764 0 0 0-17.182 6.625 12.273 12.273 0 0 1-15.006 2.792 19.728 19.728 0 0 0-5.418-1.901l-.046-.01a19.774 19.774 0 0 0-7.504.002l-.027.005c-1.87.364-3.7.995-5.43 1.904a12.271 12.271 0 0 1-15.005-2.792 19.751 19.751 0 0 0-17.182-6.624c-5.696.663-11.036-2.627-12.98-7.999a19.628 19.628 0 0 0-1.42-3.058l-.026-.046a19.698 19.698 0 0 0-12.17-9.25c-5.554-1.431-9.337-6.417-9.2-12.125a19.59 19.59 0 0 0-8.213-16.415c-4.659-3.331-6.377-9.341-4.177-14.614a19.541 19.541 0 0 0-1.7-18.26c-3.136-4.78-2.557-11.002 1.409-15.128a19.56 19.56 0 0 0 5.042-17.638c-1.189-5.586 1.61-11.178 6.805-13.6a19.634 19.634 0 0 0 11.104-14.635c.919-5.636 5.558-9.845 11.281-10.235a19.725 19.725 0 0 0 15.666-9.654c2.903-4.925 8.758-7.181 14.235-5.488a19.79 19.79 0 0 0 18.112-3.37 12.276 12.276 0 0 1 15.266 0 19.788 19.788 0 0 0 18.112 3.37c5.478-1.693 11.332.564 14.234 5.488a19.728 19.728 0 0 0 15.666 9.654c5.723.39 10.363 4.6 11.282 10.235a19.633 19.633 0 0 0 11.104 14.635c5.195 2.422 7.993 8.014 6.804 13.6a19.557 19.557 0 0 0 5.043 17.638c3.963 4.126 4.542 10.347 1.407 15.128z" fill="#04664A"/><path d="M199.522 104.88c5.038-7.68 4.107-17.673-2.262-24.301a12.177 12.177 0 0 1-3.14-10.98c1.91-8.973-2.584-17.957-10.93-21.848a12.223 12.223 0 0 1-6.913-9.11c-1.476-9.053-8.928-15.814-18.122-16.442a12.28 12.28 0 0 1-9.753-6.01c-4.663-7.91-14.063-11.536-22.866-8.816a12.32 12.32 0 0 1-11.275-2.098 19.72 19.72 0 0 0-24.522 0 12.318 12.318 0 0 1-11.275 2.098c-8.801-2.72-18.204.905-22.867 8.816a12.28 12.28 0 0 1-9.752 6.01c-9.194.628-16.646 7.39-18.123 16.443a12.222 12.222 0 0 1-6.912 9.11c-8.345 3.89-12.84 12.874-10.931 21.847a12.177 12.177 0 0 1-3.139 10.98c-6.369 6.629-7.3 16.622-2.262 24.302a12.165 12.165 0 0 1 1.058 11.368c-3.534 8.47-.774 18.123 6.71 23.474a12.193 12.193 0 0 1 5.113 10.219c-.22 9.169 5.857 17.178 14.778 19.477a12.267 12.267 0 0 1 6.56 4.263L18.18 222.979c-2.875 6.908 3.633 14.022 10.809 11.83l22.462-6.861a1.438 1.438 0 0 1 1.686.696l11.009 20.659c3.521 6.608 13.176 6.142 16.047-.759l21.385-51.381c.281-.009.561-.009.842 0l21.384 51.381c2.878 6.912 12.531 7.358 16.049.759l11.009-20.659a1.435 1.435 0 0 1 1.685-.695l22.462 6.86c7.18 2.194 13.683-4.925 10.809-11.83L165.3 173.682a12.273 12.273 0 0 1 6.561-4.263c8.921-2.298 14.998-10.307 14.778-19.476a12.194 12.194 0 0 1 5.113-10.219c7.485-5.351 10.244-15.004 6.71-23.475a12.177 12.177 0 0 1 1.06-11.369zM73.315 245.707c-.468 1.122-2.02 1.191-2.59.122L59.718 225.17c-1.992-3.737-6.386-5.547-10.449-4.307l-22.462 6.86c-1.166.355-2.21-.787-1.744-1.908l18.202-43.738c4.107 5.599 10.973 8.719 18.2 7.879a12.307 12.307 0 0 1 10.696 4.124 19.686 19.686 0 0 0 14.865 6.777c1.757 0 3.524-.244 5.257-.723l-18.968 45.573zm103.88-17.984l-22.462-6.861c-4.063-1.24-8.458.571-10.449 4.308l-11.009 20.659c-.568 1.068-2.122.998-2.589-.123l-18.964-45.564a19.692 19.692 0 0 0 20.119-6.063 12.301 12.301 0 0 1 10.695-4.124c7.235.842 14.096-2.28 18.2-7.879l18.204 43.737c.468 1.125-.583 2.263-1.745 1.91zm16.092-126.894a19.54 19.54 0 0 0-1.7 18.26c2.199 5.273.482 11.282-4.178 14.614a19.59 19.59 0 0 0-8.213 16.415c.137 5.708-3.646 10.694-9.2 12.125a19.696 19.696 0 0 0-12.173 9.254l-.021.039a19.47 19.47 0 0 0-1.422 3.061c-1.944 5.371-7.278 8.663-12.979 7.998a19.764 19.764 0 0 0-17.182 6.625 12.273 12.273 0 0 1-15.006 2.792 19.728 19.728 0 0 0-5.418-1.901l-.046-.01a19.774 19.774 0 0 0-7.504.002l-.027.005c-1.87.364-3.7.995-5.43 1.904a12.271 12.271 0 0 1-15.005-2.792 19.751 19.751 0 0 0-17.182-6.624c-5.696.663-11.036-2.627-12.98-7.999a19.628 19.628 0 0 0-1.42-3.058l-.026-.046a19.698 19.698 0 0 0-12.17-9.25c-5.554-1.431-9.337-6.417-9.2-12.125a19.59 19.59 0 0 0-8.213-16.415c-4.659-3.331-6.377-9.341-4.177-14.614a19.541 19.541 0 0 0-1.7-18.26c-3.136-4.78-2.557-11.002 1.409-15.128a19.56 19.56 0 0 0 5.042-17.638c-1.189-5.586 1.61-11.178 6.805-13.6a19.634 19.634 0 0 0 11.104-14.635c.919-5.636 5.558-9.845 11.281-10.235a19.725 19.725 0 0 0 15.666-9.654c2.903-4.925 8.758-7.181 14.235-5.488a19.79 19.79 0 0 0 18.112-3.37 12.276 12.276 0 0 1 15.266 0 19.788 19.788 0 0 0 18.112 3.37c5.478-1.693 11.332.564 14.234 5.488a19.728 19.728 0 0 0 15.666 9.654c5.723.39 10.363 4.6 11.282 10.235a19.633 19.633 0 0 0 11.104 14.635c5.195 2.422 7.993 8.014 6.804 13.6a19.557 19.557 0 0 0 5.043 17.638c3.963 4.126 4.542 10.347 1.407 15.128z" stroke="#04664A" stroke-width="2" mask="url(#a)"/><path d="M27.647 90.894c-.288 2.267 1.378 4.304 3.682 4.578l.06-.496-.06.496c2.299.274 4.423-1.307 4.71-3.57 4.084-32.097 32.429-56.325 65.959-56.325 33.546 0 61.892 24.24 65.962 56.354.266 2.093 2.1 3.604 4.192 3.604.171 0 .344-.01.517-.03 2.304-.274 3.971-2.31 3.684-4.577l-.496.063.496-.063c-4.595-36.25-36.572-63.56-74.355-63.56-37.766 0-69.741 27.296-74.35 63.526zM172.611 106.258l.06-.497a4.232 4.232 0 0 0-4.71 3.68c-4.071 33.205-32.428 58.246-65.962 58.246-33.52 0-61.875-25.029-65.96-58.217a4.226 4.226 0 0 0-4.711-3.677 4.225 4.225 0 0 0-3.681 4.709c4.605 37.42 36.569 65.635 74.351 65.635 37.799 0 69.765-28.23 74.355-65.668m0 0l-.496-.061.496.061z" fill="#04664A" stroke="#04664A"/><path d="M74.595 139.864l7.626-26.129c.881-3.017-.183-6.214-2.7-8.143L57.675 88.851l27.738-.974c3.186-.112 5.962-2.081 7.06-5.026L102 57.304l9.528 25.547c1.098 2.945 3.873 4.914 7.06 5.025l27.737.974-21.846 16.742c-2.518 1.929-3.582 5.127-2.701 8.143l7.626 26.13-23.044-15.184a7.912 7.912 0 0 0-8.72-.001l.275.418-.275-.418-23.045 15.184zm81.247-54.048c-1.028-3.098-3.842-5.17-7.152-5.286L119.391 79.5 109.34 52.548c-1.141-3.059-4.028-5.03-7.34-5.03-3.312 0-6.199 1.971-7.34 5.03L84.61 79.501 55.31 80.53c-3.31.116-6.124 2.188-7.152 5.286-1.028 3.099.004 6.402 2.618 8.406l23.077 17.683-8.05 27.581c-.915 3.134.24 6.399 2.925 8.309a7.875 7.875 0 0 0 8.95.157L102 131.924l24.323 16.027a7.875 7.875 0 0 0 8.949-.157c2.686-1.91 3.839-5.175 2.924-8.309l-8.05-27.58 23.077-17.684c2.615-2.003 3.648-5.306 2.619-8.405z" fill="#04664A" stroke="#04664A"/></svg>