<svg width="150" height="51" viewBox="0 0 150 51" fill="none" xmlns="http://www.w3.org/2000/svg"><path d="M2.437 30.567C.575 30.141-.117 29.765.016 29.29c.08-.24.267-1.357.452-2.501.268-1.73.4-2.05.745-1.889 1.198.48 3.247.904 4.497.904 2.793 0 4.443-1.462 4.23-3.751-.133-1.703-.878-2.607-3.645-4.496-2.822-1.94-4.336-3.538-5.241-5.48C.468 10.799.389 10.32.495 8.298c.133-3.644 1.65-6.039 4.71-7.45 2.34-1.09 7.422-1.143 9.046-.08.292.187.292.586-.08 2.584-.24 1.278-.48 2.368-.506 2.422-.053.053-.612-.107-1.247-.32-1.543-.535-3.858-.505-4.815.053-1.011.612-1.677 2.022-1.464 3.22.186 1.223 1.357 2.447 4.018 4.176 3.99 2.608 5.56 5.109 5.533 8.78 0 3.832-1.888 6.732-5.345 8.328-1.224.559-1.969.691-4.178.745-1.468.05-3.144-.03-3.73-.189z" fill="#FF2728"/><path d="M20.4 28.299v-1.863h81.68l12.988 3.725H20.4v-1.862zM69.537 25.007c-3.353-.852-5.561-3.352-6.598-7.45-.453-1.862-.453-6.598.026-8.514C64.213 3.883 67.462.875 72.171.58c2.234-.133 4.632.346 4.632.932 0 .212-.133 1.197-.293 2.234-.292 1.702-.372 1.836-.877 1.65-.32-.134-1.41-.213-2.448-.213-1.65 0-1.995.08-2.9.771-1.65 1.277-2.368 3.167-2.474 6.705-.134 3.698.319 5.534 1.756 7.077.745.801 1.247 1.091 2.128 1.197l1.117.16v-5.665H70.68v-4.257h6.648v13.275l-.98.293c-1.437.4-5.612.56-6.811.268zM20.4 15.163V5.318h-4.26V.795h13.568v4.523h-4.257v19.689H20.4v-9.844zM28.91 24.714c0-.186 1.144-5.561 2.528-11.973C32.82 6.33 33.965 1.005 33.965.93c0-.077 1.357-.107 2.98-.08l3.006.08 2.316 11.839c1.278 6.518 2.317 11.92 2.317 12.052.026.107-1.037.187-2.342.187-2.049 0-2.393-.08-2.527-.453-.133-.452-.958-4.79-.958-5.029 0-.052-.877-.106-1.969-.106-2.26 0-2.021-.292-2.713 3.273l-.452 2.316h-2.345c-1.596-.001-2.368-.108-2.368-.294zm9.308-9.26c0-.132-.292-2.154-.664-4.469-.373-2.314-.666-4.31-.693-4.47-.026-.292-1.543 8.354-1.57 8.86 0 .213.48.32 1.464.32.802 0 1.463-.107 1.463-.24zM47.002 13.033V1.088l1.01-.186c1.597-.32 6.732-.24 8.036.133 3.029.852 4.523 2.98 4.523 6.385 0 2.475-.535 3.752-2.102 5.162-1.118 1.01-1.145 1.038-.585 1.437.93.638 1.595 2.316 2.288 5.773.345 1.81.771 3.618.93 3.99.133.4.268.852.268.985 0 .134-1.144.24-2.528.24-3.006 0-2.794.266-3.592-4.366-.267-1.623-.612-3.272-.771-3.646-.32-.877-1.248-1.57-2.076-1.57h-.611v9.581h-4.79V13.033zm7.609-2.495c.825-.825.905-1.069.905-2.395 0-.801-.134-1.781-.32-2.155-.372-.851-1.49-1.463-2.607-1.463h-.802v6.913h.962c.744 0 1.17-.213 1.862-.9zM80.525 12.9V.796h10.641v4.258H85.58v5.32H90.9v3.996H85.58v6.385h6.12v4.257H80.524v-12.11zM97.284 15.163V5.318h-4.256V.795h13.302v4.523h-4.256v19.689h-4.79v-9.844z" fill="#006649"/><path d="M10.702 43.126l.655.532c-1.284 1.715-2.824 2.572-4.62 2.572-1.4 0-2.582-.499-3.545-1.496-.963-.997-1.444-2.237-1.444-3.719 0-.99.222-1.878.666-2.663a4.745 4.745 0 0 1 1.864-1.844c.8-.438 1.715-.656 2.746-.656 1.175 0 2.155.29 2.94.87.785.574 1.178 1.155 1.178 1.742 0 .314-.092.557-.276.728a.896.896 0 0 1-.625.256.758.758 0 0 1-.359-.093 1.352 1.352 0 0 1-.358-.297c-.055-.061-.154-.252-.298-.573-.184-.396-.327-.663-.43-.8a2.267 2.267 0 0 0-1.823-.88c-.58 0-1.12.16-1.62.481-.49.321-.884.796-1.177 1.424-.287.622-.43 1.366-.43 2.233 0 1.346.358 2.415 1.075 3.207.622.683 1.363 1.025 2.223 1.025.396 0 .796-.065 1.199-.195.41-.137.796-.335 1.158-.594.266-.185.7-.605 1.3-1.26zM17.74 35.852c1.004 0 1.871.208 2.602.625.738.416 1.318 1.024 1.742 1.823.423.8.635 1.711.635 2.736 0 1.024-.219 1.936-.656 2.735-.43.799-1.021 1.41-1.772 1.834-.745.416-1.636.625-2.674.625-1.653 0-2.896-.516-3.73-1.547-.826-1.032-1.239-2.244-1.239-3.637 0-1.018.215-1.92.646-2.705a4.525 4.525 0 0 1 1.803-1.834c.778-.437 1.66-.655 2.643-.655zm-.082.994c-.779 0-1.438.307-1.977.922-.683.764-1.025 1.878-1.025 3.34 0 1.406.29 2.479.87 3.216.527.656 1.24.984 2.142.984a2.68 2.68 0 0 0 1.547-.461c.458-.308.826-.796 1.106-1.465.28-.676.42-1.469.42-2.377 0-.888-.15-1.684-.45-2.387-.233-.56-.584-.994-1.056-1.301a2.75 2.75 0 0 0-1.577-.471zM24.337 37.573v-.86c.608-.069 1.062-.15 1.363-.246.3-.096.734-.301 1.301-.615h.738v1.946c.901-.758 1.67-1.27 2.305-1.536a4.932 4.932 0 0 1 1.946-.41c.56 0 1.055.095 1.486.287.43.184.778.437 1.045.758.273.32.454.686.542 1.096.055.253.082.635.082 1.147v4.508c0 .54.038.888.113 1.045a.72.72 0 0 0 .38.328c.17.068.59.102 1.26.102v.86H31.62v-.86h.287c.492 0 .827-.044 1.004-.133a.778.778 0 0 0 .38-.39c.081-.17.122-.518.122-1.044v-3.77c0-.779-.065-1.318-.195-1.619a1.505 1.505 0 0 0-.645-.727c-.3-.191-.683-.287-1.147-.287-.553 0-1.144.143-1.773.43-.628.28-1.236.697-1.823 1.25v4.723c0 .533.037.888.113 1.065a.82.82 0 0 0 .389.4c.123.068.45.102.983.102h.297v.86h-5.276v-.86h.256c.506 0 .85-.04 1.035-.123a.756.756 0 0 0 .39-.46c.04-.11.06-.486.06-1.128v-5.84h-1.74zM45.114 36.098h.717l.922 3.135-.922.307c-.37-.84-.888-1.5-1.558-1.977-.662-.485-1.335-.728-2.018-.728-.526 0-.952.13-1.28.39-.328.252-.492.546-.492.88 0 .315.12.585.359.81.232.232.754.495 1.567.789l1.998.707c1.127.403 1.895.833 2.305 1.29.403.465.604.99.604 1.578 0 .499-.15.98-.45 1.445-.301.457-.738.823-1.312 1.096-.567.273-1.219.41-1.957.41-1.147 0-2.13-.328-2.95-.984l-.215.738h-.728l-1.28-3.35.932-.369c.622.983 1.209 1.68 1.762 2.09.772.58 1.605.87 2.5.87.594 0 1.082-.156 1.465-.47.382-.322.574-.677.574-1.066 0-.321-.12-.615-.359-.881-.246-.26-.717-.512-1.414-.758l-2.366-.86c-1.018-.37-1.725-.773-2.121-1.21a2.177 2.177 0 0 1-.594-1.506c0-.69.32-1.297.963-1.823.649-.533 1.472-.8 2.469-.8.519 0 .983.07 1.393.206.41.13.813.348 1.209.655l.277-.614zM48.546 36.098l3.882-.154v6.598c0 .58.079 1.041.236 1.383.164.341.41.608.737.799.335.184.724.276 1.168.276.547 0 1.165-.147 1.855-.44.696-.294 1.39-.731 2.08-1.312v-4.774c0-.505-.038-.836-.113-.993a.833.833 0 0 0-.4-.38c-.191-.095-.492-.143-.901-.143h-.748v-.86l3.883-.154v7.642c0 .492.04.834.122 1.025a.795.795 0 0 0 .359.4c.164.075.488.112.973.112h.318v.86l-3.401.175v-1.895c-.936.744-1.752 1.26-2.449 1.547a5.64 5.64 0 0 1-2.12.42c-.533 0-.998-.072-1.394-.215a2.97 2.97 0 0 1-1.035-.646 2.895 2.895 0 0 1-.676-1.035 3.522 3.522 0 0 1-.235-1.29v-4.662c0-.416-.038-.707-.113-.87a.826.826 0 0 0-.379-.4c-.17-.103-.406-.154-.707-.154h-.942v-.86zM63.267 32.656v-.84c.929-.069 1.834-.356 2.715-.861h.758v12.611c0 .533.034.867.103 1.004a.866.866 0 0 0 .389.42c.17.089.498.133.983.133h.328v.86h-5.276v-.86h.533c.335 0 .584-.051.748-.153a.826.826 0 0 0 .358-.42c.075-.178.113-.533.113-1.066V32.656h-1.752zM72.365 32.614h.727v3.484h3.043v1.024h-3.043V43.3c0 .526.044.901.133 1.127.096.225.253.41.471.553.226.143.475.215.748.215.649 0 1.366-.29 2.151-.87v.993c-.894.608-1.8.912-2.714.912-.52 0-.99-.116-1.414-.349-.417-.232-.704-.505-.86-.82-.15-.313-.226-.86-.226-1.638v-6.3h-1.793v-.861c.574-.13 1.035-.332 1.383-.605.355-.273.642-.628.86-1.065.22-.437.397-1.096.534-1.977zM80.17 31.231c.329 0 .609.116.841.349.232.225.348.502.348.83 0 .327-.116.607-.348.84a1.145 1.145 0 0 1-.84.348c-.328 0-.608-.116-.84-.348a1.144 1.144 0 0 1-.349-.84c0-.328.117-.605.349-.83.232-.232.512-.349.84-.349zm-2.612 6.342v-.85a7.767 7.767 0 0 0 1.424-.287c.39-.123.83-.318 1.322-.584h.748v8.216c0 .287.04.502.123.646.082.143.195.249.338.317.15.062.42.092.81.092h.48v.86h-5.245v-.86h.42c.458 0 .766-.04.923-.123a.677.677 0 0 0 .327-.348c.069-.15.103-.502.103-1.055v-6.024h-1.773zM83.941 37.573v-.86c.608-.069 1.062-.15 1.362-.246.301-.096.735-.301 1.302-.615h.737v1.946c.902-.758 1.67-1.27 2.305-1.536a4.931 4.931 0 0 1 1.947-.41c.56 0 1.055.095 1.485.287.43.184.779.437 1.045.758.273.32.454.686.543 1.096.055.253.082.635.082 1.147v4.508c0 .54.038.888.113 1.045a.72.72 0 0 0 .379.328c.17.068.59.102 1.26.102v.86h-5.276v-.86h.287c.492 0 .826-.044 1.004-.133a.778.778 0 0 0 .379-.39c.082-.17.123-.518.123-1.044v-3.77c0-.779-.065-1.318-.195-1.619a1.505 1.505 0 0 0-.645-.727c-.3-.191-.683-.287-1.148-.287-.553 0-1.144.143-1.772.43-.628.28-1.236.697-1.824 1.25v4.723c0 .533.038.888.113 1.065a.82.82 0 0 0 .39.4c.122.068.45.102.983.102h.297v.86h-5.276v-.86h.256c.505 0 .85-.04 1.035-.123a.756.756 0 0 0 .39-.46c.04-.11.06-.486.06-1.128v-5.84h-1.741zM105.701 36.907c.307-.362.618-.628.932-.8.321-.17.615-.255.881-.255.246 0 .451.075.615.225.17.144.256.321.256.533a.775.775 0 0 1-.799.779c-.096 0-.226-.018-.39-.052a2.044 2.044 0 0 0-.481-.071c-.171 0-.348.078-.533.235a2.74 2.74 0 0 1 .635 1.803c0 .943-.396 1.759-1.188 2.449-.792.69-1.793 1.035-3.002 1.035-.669 0-1.342-.14-2.018-.42-.451.32-.707.518-.768.594a.572.572 0 0 0-.144.368c0 .199.103.362.308.492.259.17.771.314 1.536.43l2.961.441c.656.102 1.315.273 1.977.512.663.24 1.141.55 1.435.933.3.382.45.84.45 1.372 0 .902-.416 1.622-1.25 2.162-1.058.69-2.629 1.035-4.712 1.035-1.093 0-1.981-.117-2.664-.349-.683-.232-1.212-.56-1.588-.983-.273-.308-.41-.625-.41-.953 0-.423.137-.837.41-1.24.28-.403.922-.976 1.926-1.72-.648-.165-1.113-.356-1.393-.574-.355-.28-.533-.598-.533-.953 0-.178.031-.342.093-.492.068-.157.174-.31.317-.46.15-.158.42-.373.81-.646.245-.171.42-.297.522-.38-.499-.355-.874-.75-1.127-1.188a2.89 2.89 0 0 1-.379-1.454c0-.868.335-1.626 1.004-2.275.813-.792 1.909-1.188 3.289-1.188.614 0 1.15.078 1.608.235.458.15.929.424 1.414.82zm-3.115-.102c-.669 0-1.236.242-1.7.727-.465.485-.697 1.086-.697 1.803 0 .478.106.912.318 1.301a2.398 2.398 0 0 0 2.1 1.24c.423 0 .826-.113 1.209-.338a2.29 2.29 0 0 0 .891-.912c.212-.383.318-.813.318-1.291 0-.751-.229-1.36-.687-1.824-.451-.47-1.035-.706-1.752-.706zm-1.629 8.892c-.655.56-1.092 1.014-1.31 1.362-.213.349-.319.684-.319 1.005 0 .273.106.536.318.788.219.26.587.472 1.107.636.519.163 1.171.245 1.956.245.929 0 1.725-.102 2.387-.307.67-.198 1.148-.454 1.435-.768.211-.246.317-.537.317-.871 0-.287-.089-.53-.266-.727-.171-.199-.499-.373-.984-.523-.478-.143-.925-.25-1.342-.318l-3.299-.522zM130.908 19.535v17.61c1.131.15 2.276.158 3.41.023V19.535h-3.41z" fill="#1E664C"/><path d="M130.907 37.2V23.666a13.07 13.07 0 0 1 3.409-1.983v15.515h-3.409z" fill="#E72B2C"/><path d="M144.409 31.017c6.156-9.468-.601-22.138-12.14-22.138a14.228 14.228 0 0 0-8.844 3.07l.714-2.666-3.687.988C125.868 3.73 132.382 0 132.382 0S150 9.611 150 23.22a17.528 17.528 0 0 1-3.23 10.157l1.504 1.497-7.132 1.91 1.887-7.04 1.38 1.273z" fill="#FF151F"/><path d="M124.877 23.7v11.213c1.056.7 2.202 1.254 3.408 1.644V23.699h-3.408z" fill="#E72B2C"/><path d="M136.939 15.386v21.24a13.811 13.811 0 0 0 3.409-1.568V15.386h-3.409z" fill="#1E664C"/><path d="M118.949 12.46l-1.497-1.498 7.131-1.91-1.991 7.05-1.393-1.261c-8.407 13.794 8.103 29.074 20.773 18.843l-.392 2.87 3.687-.989c-5.418 6.541-11.932 10.273-11.932 10.273s-17.616-9.613-17.616-23.225a17.512 17.512 0 0 1 3.23-10.153z" fill="#006649"/></svg>