<svg width="32" height="32" viewBox="0 0 32 32" fill="none" xmlns="http://www.w3.org/2000/svg"><path fill-rule="evenodd" clip-rule="evenodd" d="M15.95 31.741c8.765 0 15.87-7.105 15.87-15.87C31.82 7.106 24.715 0 15.95 0 7.185 0 .08 7.106.08 15.87c0 3.272.989 6.312 2.685 8.838L.212 31.876l7.08-2.701a15.796 15.796 0 0 0 8.658 2.566z" fill="#fff"/><path d="M23.653 9.146a.527.527 0 0 0-.178.032L8.196 14.983a.492.492 0 0 0 .017.925l3.542 1.197 2.136 4.275s0 .003.003.003l.005.01h.003a.23.23 0 0 0 .352.076l2.002-1.698-2.236-1.694.175 2.227-1.606-3.325 8.538-5.127-7.107 6.227 5.53 4.2a1.005 1.005 0 0 0 1.584-.56l2.992-11.962a.49.49 0 0 0-.473-.611z" fill="#04664A"/></svg>