<svg width="33" height="32" viewBox="0 0 33 32" fill="none" xmlns="http://www.w3.org/2000/svg"><path fill-rule="evenodd" clip-rule="evenodd" d="M16.13 31.741c8.766 0 15.872-7.105 15.872-15.87C32.002 7.106 24.895 0 16.13 0S.26 7.106.26 15.87c0 3.273.99 6.314 2.687 8.84L.395 31.876l7.08-2.701a15.796 15.796 0 0 0 8.656 2.566z" fill="#fff"/><path fill-rule="evenodd" clip-rule="evenodd" d="M16.131 6.457c-5.193 0-9.415 4.221-9.415 9.414 0 1.828.52 3.582 1.503 5.102L6.79 24.12a.817.817 0 0 0 .125.874.817.817 0 0 0 .84.262l3.942-1.08a9.426 9.426 0 0 0 4.433 1.11c5.193 0 9.415-4.223 9.415-9.416 0-5.193-4.222-9.414-9.415-9.414zm0 17.184a7.778 7.778 0 0 1-3.913-1.057.817.817 0 0 0-.634-.086l-2.577.709.897-1.977a.833.833 0 0 0-.08-.823 7.71 7.71 0 0 1-1.468-4.541c0-4.285 3.485-7.77 7.77-7.77 4.284 0 7.769 3.485 7.769 7.77.006 4.29-3.48 7.775-7.764 7.775z" fill="#04664A"/><path fill-rule="evenodd" clip-rule="evenodd" d="M19.753 17.282c-.394-.234-.908-.497-1.37-.308-.355.149-.583.703-.818.988-.12.149-.257.172-.44.098-1.336-.532-2.365-1.429-3.102-2.657-.125-.189-.102-.343.046-.52.223-.263.503-.56.566-.914.063-.354-.103-.765-.252-1.08-.188-.4-.394-.976-.8-1.205-.37-.211-.856-.091-1.188.177-.571.463-.845 1.194-.834 1.914 0 .205.029.411.075.605.114.475.337.92.582 1.343.189.32.389.628.606.925a9.345 9.345 0 0 0 2.633 2.445 7.9 7.9 0 0 0 1.646.783c.645.212 1.216.434 1.913.303.726-.137 1.446-.588 1.737-1.291.086-.206.126-.44.08-.657-.103-.463-.714-.731-1.08-.949z" fill="#04664A"/></svg>