<svg width="33" height="32" viewBox="0 0 33 32" fill="none" xmlns="http://www.w3.org/2000/svg"><path fill-rule="evenodd" clip-rule="evenodd" d="M16.312 31.741c8.765 0 15.87-7.105 15.87-15.87C32.183 7.106 25.078 0 16.313 0 7.547 0 .442 7.106.442 15.87c0 3.273.99 6.314 2.687 8.84L.577 31.876l7.079-2.7a15.796 15.796 0 0 0 8.656 2.565z" fill="#fff"/><path fill-rule="evenodd" clip-rule="evenodd" d="M21.457 18.26c-.579-.344-1.334-.73-2.014-.453-.52.218-.856 1.033-1.2 1.452-.177.218-.378.252-.647.143-1.964-.78-3.475-2.099-4.557-3.903-.185-.277-.151-.504.067-.764.327-.386.738-.822.83-1.343.093-.52-.15-1.124-.369-1.586-.277-.588-.579-1.435-1.175-1.771-.545-.31-1.259-.134-1.745.26-.84.68-1.243 1.754-1.226 2.812 0 .302.042.604.11.89.167.696.494 1.35.855 1.972.277.47.571.923.89 1.36 1.05 1.427 2.359 2.669 3.87 3.592.755.462 1.569.873 2.417 1.15.948.31 1.787.638 2.811.445 1.066-.202 2.124-.865 2.552-1.897.126-.302.185-.646.117-.965-.15-.68-1.049-1.075-1.586-1.394z" fill="#04664A"/></svg>